<svg width="430" height="206" viewBox="0 0 430 206" fill="none" xmlns="http://www.w3.org/2000/svg">
<g clip-path="url(#clip0_5_936)">
<path d="M106.75 58.5858H-2L20.8305 8.86612C23.2704 3.65077 28.4988 0.347717 34.25 0.347717H72.2428C77.994 0.347717 83.2224 3.82462 85.488 9.03996L106.75 58.5858Z" fill="#772F07"/>
<g opacity="0.5">
<path d="M87.5793 58.5858L69.8028 1.21694C68.06 1.04309 65.4459 1.39078 64.5745 1.56463L76.5997 58.5858C80.2596 58.4119 83.9194 58.5858 87.5793 58.5858Z" stroke="#350101" stroke-miterlimit="10"/>
<path d="M31.2872 58.2381C33.5529 39.1151 35.9928 20.166 38.2584 1.04308C38.2584 0.695389 32.6815 1.04308 32.3329 1.04308C31.2872 1.21692 30.2416 1.56461 29.3702 1.9123C28.3245 2.25999 28.4988 3.30306 28.3245 4.34613C27.2788 8.69226 26.2331 13.2122 25.1875 17.5584C23.0961 26.4244 21.0048 35.1167 18.9134 43.9828C17.6935 48.8504 16.6478 53.7181 15.4279 58.5858C17.5192 58.7596 28.3245 58.5858 31.2872 58.2381Z" stroke="#350101" stroke-miterlimit="10"/>
<path d="M51.3293 57.8904C55.512 57.3689 59.6947 57.3689 63.8774 57.5427L58.3005 0.869263C55.3377 0.869263 52.375 0.869263 49.4123 0.869263L45.5781 58.2381C47.4952 58.2381 49.4123 58.0642 51.3293 57.8904Z" stroke="#350101" stroke-miterlimit="10"/>
<path d="M22.3989 6.25843C27.1045 6.25843 24.8388 11.4738 29.5444 11.4738C34.2499 11.4738 34.2499 5.56305 38.9554 5.56305C43.6609 5.56305 43.6609 11.4738 48.3665 11.4738C53.072 11.4738 53.072 5.56305 57.7775 5.56305C62.4831 5.56305 62.4831 11.4738 67.1886 11.4738C71.8941 11.4738 71.8941 5.56305 76.5996 5.56305C81.3052 5.56305 81.3052 11.4738 86.0107 11.4738" stroke="#350101" stroke-miterlimit="10"/>
<path d="M18.3906 14.2553C23.9675 14.2553 21.7019 20.5137 27.1046 20.5137C32.6815 20.5137 32.6815 13.7338 38.2584 13.7338C43.8353 13.7338 43.8353 20.5137 49.4123 20.5137C54.9892 20.5137 54.9892 13.7338 60.5661 13.7338C66.143 13.7338 66.143 20.5137 71.7199 20.5137C77.2969 20.5137 77.2969 13.7338 82.8738 13.7338C88.4507 13.7338 84.9651 20.5137 90.5421 20.5137" stroke="#350101" stroke-miterlimit="10"/>
<path d="M15.2535 22.9476C21.0047 22.9476 19.9591 30.0752 25.8845 30.0752C31.6358 30.0752 31.6358 22.9476 37.5612 22.9476C43.3124 22.9476 43.3124 30.0752 49.2379 30.0752C54.9891 30.0752 54.9891 22.9476 60.9146 22.9476C66.6658 22.9476 66.6658 30.0752 72.5913 30.0752C78.3425 30.0752 78.3425 22.9476 84.268 22.9476C90.0192 22.9476 88.7992 29.7275 94.7247 29.7275" stroke="#350101" stroke-miterlimit="10"/>
<path d="M11.2451 30.0752C17.5192 30.0752 16.4735 37.7244 22.7475 37.7244C29.0216 37.7244 29.0216 29.9014 35.4699 29.9014C41.7439 29.9014 41.7439 37.7244 48.1922 37.7244C54.4663 37.7244 54.4663 29.9014 60.9146 29.9014C67.1886 29.9014 67.1886 37.7244 73.6369 37.7244C79.911 37.7244 79.911 29.9014 86.3593 29.9014C92.6333 29.9014 91.4134 37.5505 97.8617 37.5505" stroke="#350101" stroke-miterlimit="10"/>
<path d="M7.23682 38.4198C14.3822 38.4198 10.0253 47.112 16.9964 47.112C24.1419 47.112 24.1419 38.4198 31.113 38.4198C38.2585 38.4198 38.2584 47.112 45.2296 47.112C52.375 47.112 52.375 38.4198 59.3462 38.4198C66.4916 38.4198 66.4916 47.112 73.4628 47.112C80.6082 47.112 80.6082 38.4198 87.5794 38.4198C94.5505 38.4198 92.6335 44.3305 99.7789 44.3305" stroke="#350101" stroke-miterlimit="10"/>
<path d="M3.40259 47.112C10.8966 47.112 9.50235 56.152 16.9963 56.152C24.4903 56.152 24.4903 46.9382 31.9843 46.9382C39.4783 46.9382 39.4783 56.152 46.9723 56.152C54.4663 56.152 54.4663 46.9382 61.9603 46.9382C69.4543 46.9382 69.4543 56.152 76.9483 56.152C84.4423 56.152 84.4423 46.9382 91.9362 46.9382C99.4302 46.9382 97.3389 55.9781 104.833 55.9781" stroke="#350101" stroke-miterlimit="10"/>
</g>
<path d="M106.75 58.5858H-2V222H106.75V58.5858Z" fill="#008B47"/>
<path d="M106.75 58.5858H-2V70.2334H106.75V58.5858Z" fill="#1DC03A"/>
<path d="M18.3906 77.5349H3.40259V215.394H18.3906V77.5349Z" fill="#1DC03A"/>
<path d="M59.869 77.5349H44.881V215.394H59.869V77.5349Z" fill="#1DC03A"/>
<path d="M101.696 77.5349H86.7079V215.394H101.696V77.5349Z" fill="#1DC03A"/>
<path d="M41.2211 97.0055H21.8762C20.482 97.0055 19.4363 95.9625 19.4363 94.5717V93.3548C19.4363 91.964 20.482 90.921 21.8762 90.921H41.2211C42.6154 90.921 43.661 91.964 43.661 93.3548V94.5717C43.661 95.7886 42.6154 97.0055 41.2211 97.0055Z" fill="#FFDD2E"/>
<path d="M42.964 215.394H20.1334V113.521C20.1334 107.089 25.3618 102.047 31.6358 102.047C37.9099 102.047 42.964 107.088 42.964 113.347V215.394Z" fill="black"/>
<path d="M42.964 141.684V215.394H20.1334V141.684C20.1334 140.293 20.8305 139.076 21.8762 138.207C21.8762 138.207 22.0505 138.033 22.2248 138.033C22.2248 138.033 22.399 138.033 22.399 137.859C24.3161 136.816 24.4904 135.947 26.2332 134.208C27.2789 132.47 29.1959 131.253 31.4615 131.253C33.7272 131.253 35.6442 132.47 36.6899 134.208C38.4327 135.947 38.607 136.816 40.6983 137.859C40.8726 138.033 41.0469 138.033 41.0469 138.033C42.2668 139.076 42.964 140.293 42.964 141.684Z" fill="#FFDD2E"/>
<path d="M30.9387 160.111H22.9219V144.987C22.9219 141.336 25.8846 138.381 29.5445 138.381C30.4159 138.381 30.9387 139.076 30.9387 139.771V160.111Z" fill="black"/>
<path d="M32.1587 160.111H40.1755V144.987C40.1755 141.336 37.2128 138.381 33.5529 138.381C32.6815 138.381 32.1587 139.076 32.1587 139.771V160.111Z" fill="black"/>
<path d="M30.9387 161.85H22.9219V186.362H30.9387V161.85Z" fill="black"/>
<path d="M40.1755 161.85H32.1587V186.362H40.1755V161.85Z" fill="black"/>
<path d="M30.9387 187.926H22.9219V212.091H30.9387V187.926Z" fill="black"/>
<path d="M40.1755 187.926H32.1587V212.091H40.1755V187.926Z" fill="black"/>
<g opacity="0.5">
<path d="M28.1095 143.619L27.863 143.373L23.9196 147.307L24.1661 147.553L28.1095 143.619Z" fill="white"/>
</g>
<g opacity="0.5">
<path d="M28.2124 146.269L27.9659 146.023L24.0225 149.957L24.269 150.203L28.2124 146.269Z" fill="white"/>
</g>
<g opacity="0.5">
<path d="M37.895 148.862L37.6486 148.616L33.7051 152.55L33.9516 152.795L37.895 148.862Z" fill="white"/>
</g>
<g opacity="0.5">
<path d="M37.8748 151.635L37.6283 151.389L33.6848 155.323L33.9313 155.569L37.8748 151.635Z" fill="white"/>
</g>
<g opacity="0.5">
<path d="M28.5598 168.191L28.3134 167.945L24.3699 171.879L24.6164 172.124L28.5598 168.191Z" fill="white"/>
</g>
<g opacity="0.5">
<path d="M28.5396 170.964L28.2931 170.718L24.3497 174.652L24.5961 174.897L28.5396 170.964Z" fill="white"/>
</g>
<g opacity="0.5">
<path d="M38.2222 173.556L37.9757 173.311L34.0323 177.244L34.2787 177.49L38.2222 173.556Z" fill="white"/>
</g>
<g opacity="0.5">
<path d="M38.2018 176.329L37.9553 176.083L34.0119 180.017L34.2584 180.263L38.2018 176.329Z" fill="white"/>
</g>
<g opacity="0.5">
<path d="M28.2274 190.071L27.981 189.826L24.0375 193.759L24.284 194.005L28.2274 190.071Z" fill="white"/>
</g>
<g opacity="0.5">
<path d="M28.207 192.845L27.9606 192.599L24.0171 196.532L24.2636 196.778L28.207 192.845Z" fill="white"/>
</g>
<g opacity="0.5">
<path d="M37.8897 195.437L37.6432 195.191L33.6998 199.125L33.9462 199.371L37.8897 195.437Z" fill="white"/>
</g>
<g opacity="0.5">
<path d="M37.8694 198.21L37.6229 197.964L33.6795 201.898L33.926 202.144L37.8694 198.21Z" fill="white"/>
</g>
<path d="M83.0481 93.8763H63.8774V207.745H83.0481V93.8763Z" fill="black"/>
<g opacity="0.7">
<path d="M64.7488 93.8763H63.006V207.745H64.7488V93.8763Z" fill="white"/>
</g>
<g opacity="0.7">
<path d="M69.6285 94.3978H67.8857V207.919H69.6285V94.3978Z" fill="white"/>
</g>
<g opacity="0.7">
<path d="M74.1598 93.8763H72.417V207.745H74.1598V93.8763Z" fill="white"/>
</g>
<g opacity="0.7">
<path d="M79.2139 94.0501H77.4711V207.571H79.2139V94.0501Z" fill="white"/>
</g>
<g opacity="0.7">
<path d="M83.9194 93.8763H82.1766V207.745H83.9194V93.8763Z" fill="white"/>
</g>
<path d="M83.048 97.0055H63.7031C62.3089 97.0055 61.2632 95.9625 61.2632 94.5717V93.3548C61.2632 91.964 62.3089 90.921 63.7031 90.921H83.048C84.4423 90.921 85.4879 91.964 85.4879 93.3548V94.5717C85.4879 95.7886 84.4423 97.0055 83.048 97.0055Z" fill="#FFDD2E"/>
<path d="M83.048 158.547H63.7031C62.3089 158.547 61.2632 157.504 61.2632 156.113V154.896C61.2632 153.505 62.3089 152.462 63.7031 152.462H83.048C84.4423 152.462 85.4879 153.505 85.4879 154.896V156.113C85.4879 157.33 84.4423 158.547 83.048 158.547Z" fill="#FFDD2E"/>
<path d="M324.25 58.5858H215.5V222H324.25V58.5858Z" fill="#0B0073"/>
<path d="M324.25 58.5858H215.5L238.331 8.86612C240.77 3.65077 245.999 0.347717 251.75 0.347717H289.743C295.494 0.347717 300.722 3.82462 302.988 9.03996L324.25 58.5858Z" fill="#772F07"/>
<g opacity="0.5">
<path d="M305.079 58.5858L287.303 1.21694C285.56 1.04309 282.946 1.39078 282.074 1.56463L294.1 58.5858C297.76 58.4119 301.419 58.5858 305.079 58.5858Z" stroke="#350101" stroke-miterlimit="10"/>
<path d="M248.787 58.2381C251.053 39.1151 253.493 20.166 255.758 1.04308C255.758 0.695389 250.181 1.04308 249.833 1.04308C248.787 1.21692 247.742 1.56461 246.87 1.9123C245.824 2.25999 245.999 3.30306 245.824 4.34613C244.779 8.69226 243.733 13.2122 242.687 17.5584C240.596 26.4244 238.505 35.1167 236.413 43.9828C235.193 48.8504 234.148 53.7181 232.928 58.5858C235.019 58.7596 245.65 58.5858 248.787 58.2381Z" stroke="#350101" stroke-miterlimit="10"/>
<path d="M268.829 57.8904C273.012 57.3689 277.195 57.3689 281.377 57.5427L275.8 0.869263C272.838 0.869263 269.875 0.869263 266.912 0.869263L263.078 58.2381C264.995 58.2381 266.912 58.0642 268.829 57.8904Z" stroke="#350101" stroke-miterlimit="10"/>
<path d="M239.899 6.25843C244.604 6.25843 242.339 11.4738 247.044 11.4738C251.75 11.4738 251.75 5.56305 256.455 5.56305C261.161 5.56305 261.161 11.4738 265.866 11.4738C270.572 11.4738 270.572 5.56305 275.278 5.56305C279.983 5.56305 279.983 11.4738 284.689 11.4738C289.394 11.4738 289.394 5.56305 294.1 5.56305C298.805 5.56305 298.805 11.4738 303.511 11.4738" stroke="#350101" stroke-miterlimit="10"/>
<path d="M235.891 14.2553C241.468 14.2553 239.202 20.5137 244.605 20.5137C250.181 20.5137 250.181 13.7338 255.758 13.7338C261.335 13.7338 261.335 20.5137 266.912 20.5137C272.489 20.5137 272.489 13.7338 278.066 13.7338C283.643 13.7338 283.643 20.5137 289.22 20.5137C294.797 20.5137 294.797 13.7338 300.374 13.7338C305.951 13.7338 302.465 20.5137 308.042 20.5137" stroke="#350101" stroke-miterlimit="10"/>
<path d="M232.579 22.9476C238.33 22.9476 237.285 30.0752 243.21 30.0752C248.961 30.0752 248.961 22.9476 254.887 22.9476C260.638 22.9476 260.638 30.0752 266.564 30.0752C272.315 30.0752 272.315 22.9476 278.24 22.9476C283.991 22.9476 283.991 30.0752 289.917 30.0752C295.668 30.0752 295.668 22.9476 301.594 22.9476C307.345 22.9476 306.125 29.7275 312.05 29.7275" stroke="#350101" stroke-miterlimit="10"/>
<path d="M228.745 29.9014C235.019 29.9014 233.973 37.5506 240.248 37.5506C246.522 37.5506 246.522 29.7275 252.97 29.7275C259.244 29.7275 259.244 37.5506 265.692 37.5506C271.966 37.5506 271.966 29.7275 278.415 29.7275C284.689 29.7275 284.689 37.5506 291.137 37.5506C297.411 37.5506 297.411 29.7275 303.859 29.7275C310.308 29.7275 308.913 37.3767 315.362 37.3767" stroke="#350101" stroke-miterlimit="10"/>
<path d="M224.737 38.4198C231.882 38.4198 227.525 47.112 234.496 47.112C241.642 47.112 241.642 38.4198 248.613 38.4198C255.758 38.4198 255.758 47.112 262.729 47.112C269.875 47.112 269.875 38.4198 276.846 38.4198C283.991 38.4198 283.992 47.112 290.963 47.112C298.108 47.112 298.108 38.4198 305.079 38.4198C312.05 38.4198 310.133 44.3305 317.279 44.3305" stroke="#350101" stroke-miterlimit="10"/>
<path d="M220.903 47.112C228.397 47.112 227.002 56.152 234.496 56.152C241.99 56.152 241.99 46.9382 249.484 46.9382C256.978 46.9382 256.978 56.152 264.472 56.152C271.966 56.152 271.966 46.9382 279.46 46.9382C286.954 46.9382 286.954 56.152 294.448 56.152C301.942 56.152 301.942 46.9382 309.436 46.9382C316.93 46.9382 314.839 55.9781 322.333 55.9781" stroke="#350101" stroke-miterlimit="10"/>
</g>
<path d="M324.25 58.5858H215.5V70.2334H324.25V58.5858Z" fill="#1DC0B8"/>
<path d="M235.542 77.5349H220.554V215.394H235.542V77.5349Z" fill="#1DC0B8"/>
<path d="M277.02 77.5349H262.032V215.394H277.02V77.5349Z" fill="#1DC0B8"/>
<path d="M319.022 77.5349H304.034V215.394H319.022V77.5349Z" fill="#1DC0B8"/>
<path d="M258.373 97.0055H239.028C237.633 97.0055 236.588 95.9625 236.588 94.5717V93.3548C236.588 91.964 237.633 90.921 239.028 90.921H258.373C259.767 90.921 260.813 91.964 260.813 93.3548V94.5717C260.813 95.7886 259.767 97.0055 258.373 97.0055Z" fill="#1DC03A"/>
<path d="M260.464 215.22H237.633V113.347C237.633 106.915 242.862 101.873 249.136 101.873C255.41 101.873 260.464 106.915 260.464 113.173V215.22Z" fill="black"/>
<path d="M260.464 141.51V215.22H237.633V141.51C237.633 140.119 238.331 138.902 239.376 138.033C239.376 138.033 239.55 137.859 239.725 137.859C239.725 137.859 239.899 137.859 239.899 137.685C241.816 136.642 241.99 135.773 243.733 134.034C244.779 132.296 246.696 131.079 248.962 131.079C251.227 131.079 253.144 132.296 254.19 134.034C255.933 135.773 256.107 136.642 258.198 137.685C258.373 137.859 258.547 137.859 258.547 137.859C259.767 138.902 260.464 140.119 260.464 141.51Z" fill="#1DC03A"/>
<path d="M248.439 159.937H240.422V144.813C240.422 141.162 243.385 138.207 247.044 138.207C247.916 138.207 248.439 138.902 248.439 139.597V159.937Z" fill="black"/>
<path d="M249.659 159.937H257.676V144.813C257.676 141.162 254.713 138.207 251.053 138.207C250.182 138.207 249.659 138.902 249.659 139.597V159.937Z" fill="black"/>
<path d="M248.439 161.676H240.422V186.188H248.439V161.676Z" fill="black"/>
<path d="M257.676 161.676H249.659V186.188H257.676V161.676Z" fill="black"/>
<path d="M248.439 187.753H240.422V211.917H248.439V187.753Z" fill="black"/>
<path d="M257.676 187.753H249.659V211.917H257.676V187.753Z" fill="black"/>
<g opacity="0.5">
<path d="M245.616 143.433L245.369 143.188L241.426 147.121L241.672 147.367L245.616 143.433Z" fill="white"/>
</g>
<g opacity="0.5">
<path d="M245.719 146.084L245.472 145.838L241.529 149.771L241.775 150.017L245.719 146.084Z" fill="white"/>
</g>
<g opacity="0.5">
<path d="M255.401 148.676L255.155 148.43L251.211 152.364L251.458 152.61L255.401 148.676Z" fill="white"/>
</g>
<g opacity="0.5">
<path d="M255.381 151.449L255.135 151.203L251.191 155.137L251.438 155.383L255.381 151.449Z" fill="white"/>
</g>
<g opacity="0.5">
<path d="M246.066 168.005L245.819 167.759L241.876 171.693L242.122 171.939L246.066 168.005Z" fill="white"/>
</g>
<g opacity="0.5">
<path d="M246.046 170.778L245.799 170.532L241.856 174.466L242.102 174.712L246.046 170.778Z" fill="white"/>
</g>
<g opacity="0.5">
<path d="M255.728 173.371L255.482 173.125L251.538 177.059L251.785 177.304L255.728 173.371Z" fill="white"/>
</g>
<g opacity="0.5">
<path d="M255.708 176.144L255.461 175.898L251.518 179.831L251.764 180.077L255.708 176.144Z" fill="white"/>
</g>
<g opacity="0.5">
<path d="M245.734 189.886L245.487 189.64L241.544 193.574L241.79 193.819L245.734 189.886Z" fill="white"/>
</g>
<g opacity="0.5">
<path d="M245.713 192.659L245.467 192.413L241.523 196.347L241.77 196.592L245.713 192.659Z" fill="white"/>
</g>
<g opacity="0.5">
<path d="M255.396 195.251L255.149 195.006L251.206 198.939L251.452 199.185L255.396 195.251Z" fill="white"/>
</g>
<g opacity="0.5">
<path d="M255.376 198.025L255.129 197.779L251.186 201.712L251.432 201.958L255.376 198.025Z" fill="white"/>
</g>
<path d="M300.025 93.1809H280.855V207.049H300.025V93.1809Z" fill="black"/>
<path d="M302.639 207.919V209.135C302.639 210.526 301.594 211.569 300.2 211.569V212.96C300.2 214.003 299.328 214.699 298.457 214.699H282.772C281.726 214.699 281.029 213.829 281.029 212.96V211.569C279.635 211.569 278.589 210.526 278.589 209.135V207.919C278.589 206.528 279.635 205.485 281.029 205.485H300.374C301.594 205.485 302.639 206.528 302.639 207.919Z" fill="#1DC03A"/>
<g opacity="0.7">
<path d="M281.726 93.5286H279.983V207.397H281.726V93.5286Z" fill="white"/>
</g>
<g opacity="0.7">
<path d="M286.78 94.0502H285.037V207.571H286.78V94.0502Z" fill="white"/>
</g>
<g opacity="0.7">
<path d="M291.311 93.5286H289.568V207.397H291.311V93.5286Z" fill="white"/>
</g>
<g opacity="0.7">
<path d="M296.365 93.7025H294.623V207.223H296.365V93.7025Z" fill="white"/>
</g>
<g opacity="0.7">
<path d="M301.071 93.5286H299.328V207.397H301.071V93.5286Z" fill="white"/>
</g>
<path d="M300.2 97.0055H280.855C279.46 97.0055 278.415 95.9625 278.415 94.5717V93.3548C278.415 91.964 279.46 90.921 280.855 90.921H300.2C301.594 90.921 302.639 91.964 302.639 93.3548V94.5717C302.639 95.7886 301.594 97.0055 300.2 97.0055Z" fill="#1DC03A"/>
<path d="M300.2 158.025H280.855C279.46 158.025 278.415 156.982 278.415 155.591V154.374C278.415 152.984 279.46 151.941 280.855 151.941H300.2C301.594 151.941 302.639 152.984 302.639 154.374V155.591C302.639 156.982 301.594 158.025 300.2 158.025Z" fill="#1DC03A"/>
<path d="M215.5 102.395H106.75V222H215.5V102.395Z" fill="#FFDD2E"/>
<path d="M215.5 102.221H106.75L129.581 52.5012C132.02 47.2858 137.249 43.9828 143 43.9828H180.993C186.744 43.9828 191.972 47.4597 194.238 52.675L215.5 102.221Z" fill="#772F07"/>
<g opacity="0.5">
<path d="M196.329 102.221L178.553 44.852C176.81 44.6782 174.196 45.0259 173.324 45.1997L185.35 102.221C189.01 102.221 192.669 102.221 196.329 102.221Z" stroke="#350101" stroke-miterlimit="10"/>
<path d="M140.037 102.047C142.303 82.924 144.743 63.9749 147.008 44.852C147.008 44.5043 141.431 44.852 141.083 44.852C140.037 45.0258 138.992 45.3735 138.12 45.7212C137.074 46.0689 137.249 47.112 137.074 48.155C136.029 52.5012 134.983 57.0211 133.937 61.3672C131.846 70.2333 129.755 78.9256 127.663 87.7917C126.443 92.6593 125.398 97.527 124.178 102.395C126.269 102.395 136.9 102.221 140.037 102.047Z" stroke="#350101" stroke-miterlimit="10"/>
<path d="M160.079 101.525C164.262 101.004 168.445 101.004 172.627 101.178L167.05 44.6782C164.088 44.6782 161.125 44.6782 158.162 44.6782L154.328 102.047C156.245 101.873 158.162 101.873 160.079 101.525Z" stroke="#350101" stroke-miterlimit="10"/>
<path d="M131.149 50.0673C135.854 50.0673 133.589 55.2827 138.294 55.2827C143 55.2827 143 49.3719 147.705 49.3719C152.411 49.3719 152.411 55.2827 157.116 55.2827C161.822 55.2827 161.822 49.3719 166.528 49.3719C171.233 49.3719 171.233 55.2827 175.939 55.2827C180.644 55.2827 180.644 49.3719 185.35 49.3719C190.055 49.3719 190.055 55.2827 194.761 55.2827" stroke="#350101" stroke-miterlimit="10"/>
<path d="M127.141 57.8904C132.718 57.8904 130.452 64.1488 135.855 64.1488C141.431 64.1488 141.431 57.3688 147.008 57.3688C152.585 57.3688 152.585 64.1488 158.162 64.1488C163.739 64.1488 163.739 57.3688 169.316 57.3688C174.893 57.3688 174.893 64.1488 180.47 64.1488C186.047 64.1488 186.047 57.3688 191.624 57.3688C197.201 57.3688 193.715 64.1488 199.292 64.1488" stroke="#350101" stroke-miterlimit="10"/>
<path d="M123.829 66.5826C129.58 66.5826 128.535 73.7103 134.46 73.7103C140.211 73.7103 140.211 66.5826 146.137 66.5826C151.888 66.5826 151.888 73.7103 157.814 73.7103C163.565 73.7103 163.565 66.5826 169.49 66.5826C175.241 66.5826 175.241 73.7103 181.167 73.7103C186.918 73.7103 186.918 66.5826 192.844 66.5826C198.769 66.5826 197.375 73.3626 203.3 73.3626" stroke="#350101" stroke-miterlimit="10"/>
<path d="M119.995 73.7103C126.269 73.7103 125.223 81.3595 131.498 81.3595C137.772 81.3595 137.772 73.5364 144.22 73.5364C150.494 73.5364 150.494 81.3595 156.942 81.3595C163.216 81.3595 163.216 73.5364 169.665 73.5364C175.939 73.5364 175.939 81.3595 182.387 81.3595C188.661 81.3595 188.661 73.5364 195.109 73.5364C201.383 73.5364 200.163 81.1856 206.612 81.1856" stroke="#350101" stroke-miterlimit="10"/>
<path d="M115.987 82.2287C123.132 82.2287 118.775 90.9209 125.746 90.9209C132.892 90.9209 132.892 82.2287 139.863 82.2287C147.008 82.2287 147.008 90.9209 153.979 90.9209C161.125 90.9209 161.125 82.2287 168.096 82.2287C175.242 82.2287 175.242 90.9209 182.213 90.9209C189.358 90.9209 189.358 82.2287 196.329 82.2287C203.3 82.2287 201.383 88.1394 208.529 88.1394" stroke="#350101" stroke-miterlimit="10"/>
<path d="M112.153 90.9209C119.647 90.9209 118.252 99.9609 125.746 99.9609C133.24 99.9609 133.24 90.7471 140.734 90.7471C148.228 90.7471 148.228 99.9609 155.722 99.9609C163.216 99.9609 163.216 90.7471 170.71 90.7471C178.204 90.7471 178.204 99.9609 185.698 99.9609C193.192 99.9609 193.192 90.7471 200.686 90.7471C208.18 90.7471 206.089 99.787 213.583 99.787" stroke="#350101" stroke-miterlimit="10"/>
</g>
<path d="M215.5 102.395H106.75V114.042H215.5V102.395Z" fill="#FF9C12"/>
<path d="M127.489 118.041H112.501V215.394H127.489V118.041Z" fill="#FF9C12"/>
<path d="M173.847 118.041H158.859V215.394H173.847V118.041Z" fill="#FF9C12"/>
<path d="M210.446 118.041H195.458V215.394H210.446V118.041Z" fill="#FF9C12"/>
<path d="M154.154 134.73H131.498C130.103 134.73 129.058 133.687 129.058 132.296V130.384C129.058 128.993 130.103 127.95 131.498 127.95H154.154C155.548 127.95 156.594 128.993 156.594 130.384V132.47C156.594 133.687 155.548 134.73 154.154 134.73Z" fill="#0B0073"/>
<path d="M153.98 214.177H131.149V147.421C131.149 140.988 136.377 135.947 142.651 135.947C148.925 135.947 153.98 140.988 153.98 147.247V214.177Z" fill="black"/>
<path d="M153.98 163.24V214.003H131.149V163.24C131.149 162.197 131.846 161.328 132.892 160.807C132.892 160.807 133.066 160.807 133.24 160.633H133.415C135.332 159.937 135.506 159.416 137.249 158.199C138.294 156.982 140.212 156.113 142.477 156.113C144.743 156.113 146.66 156.982 147.706 158.199C149.448 159.416 149.623 159.937 151.714 160.807C151.888 160.807 152.063 160.98 152.063 160.98C153.282 161.502 153.98 162.371 153.98 163.24Z" fill="#0B0073"/>
<path d="M141.954 175.931H133.938V167.587C133.938 163.936 136.9 160.98 140.56 160.98C141.431 160.98 141.954 161.676 141.954 162.371V175.931Z" fill="black"/>
<path d="M143.174 175.931H151.191V167.587C151.191 163.936 148.228 160.98 144.569 160.98C143.697 160.98 143.174 161.676 143.174 162.371V175.931Z" fill="black"/>
<path d="M141.954 177.148H133.938V194.011H141.954V177.148Z" fill="black"/>
<path d="M151.191 177.148H143.174V194.011H151.191V177.148Z" fill="black"/>
<path d="M141.954 195.228H133.938V211.917H141.954V195.228Z" fill="black"/>
<path d="M151.191 195.228H143.174V211.917H151.191V195.228Z" fill="black"/>
<g opacity="0.5">
<path d="M135.332 167.239L134.983 167.065L138.992 164.457L139.166 164.631L135.332 167.239Z" fill="white"/>
</g>
<g opacity="0.5">
<path d="M135.332 169.151L134.983 168.977L138.992 166.196L139.166 166.543L135.332 169.151Z" fill="white"/>
</g>
<g opacity="0.5">
<path d="M145.091 170.89L144.743 170.716L148.751 167.934L148.925 168.282L145.091 170.89Z" fill="white"/>
</g>
<g opacity="0.5">
<path d="M145.091 172.802L144.743 172.628L148.751 169.847L148.925 170.194L145.091 172.802Z" fill="white"/>
</g>
<g opacity="0.5">
<path d="M135.68 184.276L135.332 184.102L139.34 181.32L139.514 181.668L135.68 184.276Z" fill="white"/>
</g>
<g opacity="0.5">
<path d="M135.68 186.188L135.332 186.014L139.34 183.233L139.514 183.58L135.68 186.188Z" fill="white"/>
</g>
<g opacity="0.5">
<path d="M145.44 187.926L145.091 187.753L148.925 184.971L149.274 185.319L145.44 187.926Z" fill="white"/>
</g>
<g opacity="0.5">
<path d="M145.44 189.839L145.091 189.665L148.925 186.883L149.274 187.231L145.44 189.839Z" fill="white"/>
</g>
<g opacity="0.5">
<path d="M135.332 199.4L134.983 199.226L138.992 196.445L139.34 196.793L135.332 199.4Z" fill="white"/>
</g>
<g opacity="0.5">
<path d="M135.332 201.312L134.983 201.139L138.992 198.357L139.34 198.705L135.332 201.312Z" fill="white"/>
</g>
<g opacity="0.5">
<path d="M145.091 203.051L144.743 202.877L148.751 200.096L148.925 200.443L145.091 203.051Z" fill="white"/>
</g>
<g opacity="0.5">
<path d="M145.091 204.963L144.743 204.789L148.751 202.008L148.925 202.356L145.091 204.963Z" fill="white"/>
</g>
<path d="M193.715 131.427H175.939V210.005H193.715V131.427Z" fill="black"/>
<g opacity="0.7">
<path d="M177.333 132.47H175.939V208.962H177.333V132.47Z" fill="white"/>
</g>
<g opacity="0.7">
<path d="M181.516 132.644H180.121V208.962H181.516V132.644Z" fill="white"/>
</g>
<g opacity="0.7">
<path d="M185.35 132.47H183.956V209.135H185.35V132.47Z" fill="white"/>
</g>
<g opacity="0.7">
<path d="M189.532 132.644H188.138V209.135H189.532V132.644Z" fill="white"/>
</g>
<g opacity="0.7">
<path d="M193.367 132.47H191.972V208.962H193.367V132.47Z" fill="white"/>
</g>
<path d="M192.495 133.861H177.159C175.764 133.861 174.719 132.818 174.719 131.427V131.253C174.719 129.862 175.764 128.819 177.159 128.819H192.495C193.889 128.819 194.935 129.862 194.935 131.253V131.427C194.935 132.818 193.715 133.861 192.495 133.861Z" fill="#0B0073"/>
<path d="M192.495 171.759H177.159C175.764 171.759 174.719 170.716 174.719 169.325V169.151C174.719 167.76 175.764 166.717 177.159 166.717H192.495C193.889 166.717 194.935 167.76 194.935 169.151V169.325C194.935 170.716 193.715 171.759 192.495 171.759Z" fill="#0B0073"/>
<path d="M433 101.873H324.25V221.478H433V101.873Z" fill="#FFDDDB"/>
<path d="M433 101.873H324.25L347.081 52.1535C349.52 46.9381 354.749 43.6351 360.5 43.6351H398.493C404.244 43.6351 409.472 47.112 411.738 52.3273L433 101.873Z" fill="#772F07"/>
<g opacity="0.5">
<path d="M413.829 101.873L396.053 44.5043C394.31 44.3304 391.696 44.6781 390.825 44.852L402.85 101.873C406.51 101.699 410.17 101.873 413.829 101.873Z" stroke="#350101" stroke-miterlimit="10"/>
<path d="M357.537 101.525C359.803 82.4025 362.243 63.4534 364.508 44.3305C364.508 43.9828 358.931 44.3305 358.583 44.3305C357.537 44.5043 356.492 44.852 355.62 45.1997C354.574 45.5474 354.749 46.5905 354.575 47.6335C353.529 51.9797 352.483 56.4996 351.437 60.8458C349.346 69.7119 347.255 78.4041 345.163 87.2702C343.943 92.1379 342.898 97.0055 341.678 101.873C343.769 101.873 354.4 101.873 357.537 101.525Z" stroke="#350101" stroke-miterlimit="10"/>
<path d="M377.579 101.178C381.762 100.656 385.945 100.656 390.127 100.83L384.55 44.1566C381.588 44.1566 378.625 44.1566 375.662 44.1566L371.828 101.525C373.745 101.525 375.662 101.352 377.579 101.178Z" stroke="#350101" stroke-miterlimit="10"/>
<path d="M348.649 49.5458C353.355 49.5458 351.089 54.7611 355.794 54.7611C360.5 54.7611 360.5 48.8504 365.206 48.8504C369.911 48.8504 369.911 54.7611 374.617 54.7611C379.322 54.7611 379.322 48.8504 384.028 48.8504C388.733 48.8504 388.733 54.7611 393.439 54.7611C398.144 54.7611 398.144 48.8504 402.85 48.8504C407.555 48.8504 407.555 54.7611 412.261 54.7611" stroke="#350101" stroke-miterlimit="10"/>
<path d="M344.641 57.5427C350.218 57.5427 347.952 63.8011 353.355 63.8011C358.931 63.8011 358.932 57.0211 364.508 57.0211C370.085 57.0211 370.085 63.8011 375.662 63.8011C381.239 63.8011 381.239 57.0211 386.816 57.0211C392.393 57.0211 392.393 63.8011 397.97 63.8011C403.547 63.8011 403.547 57.0211 409.124 57.0211C414.701 57.0211 411.215 63.8011 416.792 63.8011" stroke="#350101" stroke-miterlimit="10"/>
<path d="M341.329 66.2349C347.081 66.2349 346.035 73.3626 351.96 73.3626C357.712 73.3626 357.712 66.2349 363.637 66.2349C369.388 66.2349 369.388 73.3626 375.314 73.3626C381.065 73.3626 381.065 66.2349 386.99 66.2349C392.742 66.2349 392.742 73.3626 398.667 73.3626C404.418 73.3626 404.418 66.2349 410.344 66.2349C416.095 66.2349 414.875 73.0149 420.801 73.0149" stroke="#350101" stroke-miterlimit="10"/>
<path d="M337.495 73.1887C343.769 73.1887 342.724 80.8379 348.998 80.8379C355.272 80.8379 355.272 73.0149 361.72 73.0149C367.994 73.0149 367.994 80.8379 374.442 80.8379C380.716 80.8379 380.716 73.0149 387.165 73.0149C393.439 73.0149 393.439 80.8379 399.887 80.8379C406.161 80.8379 406.161 73.0149 412.609 73.0149C418.883 73.0149 417.664 80.6641 424.112 80.6641" stroke="#350101" stroke-miterlimit="10"/>
<path d="M333.487 81.7072C340.632 81.7072 336.275 90.3994 343.246 90.3994C350.392 90.3994 350.392 81.7072 357.363 81.7072C364.508 81.7072 364.508 90.3994 371.48 90.3994C378.625 90.3994 378.625 81.7072 385.596 81.7072C392.742 81.7072 392.742 90.3994 399.713 90.3994C406.858 90.3994 406.858 81.7072 413.829 81.7072C420.801 81.7072 418.883 87.6179 426.029 87.6179" stroke="#350101" stroke-miterlimit="10"/>
<path d="M329.478 90.3994C336.972 90.3994 335.578 99.4393 343.072 99.4393C350.566 99.4393 350.566 90.2255 358.06 90.2255C365.554 90.2255 365.554 99.4393 373.048 99.4393C380.542 99.4393 380.542 90.2255 388.036 90.2255C395.53 90.2255 395.53 99.4393 403.024 99.4393C410.518 99.4393 410.518 90.2255 418.012 90.2255C425.506 90.2255 423.415 99.2655 430.909 99.2655" stroke="#350101" stroke-miterlimit="10"/>
</g>
<path d="M433 101.873H324.25V113.521H433V101.873Z" fill="#FF1D12"/>
<path d="M344.989 117.519H330.001V214.872H344.989V117.519Z" fill="#FF1D12"/>
<path d="M391.347 117.519H376.359V214.872H391.347V117.519Z" fill="#FF1D12"/>
<path d="M427.946 117.519H412.958V214.872H427.946V117.519Z" fill="#FF1D12"/>
<path d="M371.654 134.208H348.998C347.603 134.208 346.558 133.165 346.558 131.774V129.688C346.558 128.298 347.603 127.255 348.998 127.255H371.654C373.048 127.255 374.094 128.298 374.094 129.688V131.774C374.094 133.165 373.048 134.208 371.654 134.208Z" fill="#FF9200"/>
<path d="M371.48 213.655H348.649V146.899C348.649 140.467 353.877 135.425 360.151 135.425C366.425 135.425 371.48 140.467 371.48 146.725V213.655Z" fill="black"/>
<path d="M371.48 162.719V213.482H348.649V162.719C348.649 161.676 349.346 160.807 350.392 160.285C350.392 160.285 350.566 160.285 350.74 160.111H350.915C352.832 159.416 353.006 158.894 354.749 157.677C355.794 156.46 357.712 155.591 359.977 155.591C362.243 155.591 364.16 156.46 365.206 157.677C366.948 158.894 367.123 159.416 369.214 160.285C369.388 160.285 369.563 160.459 369.563 160.459C370.782 160.98 371.48 161.85 371.48 162.719Z" fill="#FF9200"/>
<path d="M359.454 175.41H351.438V167.065C351.438 163.414 354.4 160.459 358.06 160.459C358.931 160.459 359.454 161.154 359.454 161.85V175.41Z" fill="black"/>
<path d="M360.674 175.41H368.691V167.065C368.691 163.414 365.728 160.459 362.069 160.459C361.197 160.459 360.674 161.154 360.674 161.85V175.41Z" fill="black"/>
<path d="M359.454 176.8H351.438V193.663H359.454V176.8Z" fill="black"/>
<path d="M368.691 176.8H360.674V193.663H368.691V176.8Z" fill="black"/>
<path d="M359.454 194.706H351.438V211.395H359.454V194.706Z" fill="black"/>
<path d="M368.691 194.706H360.674V211.395H368.691V194.706Z" fill="black"/>
<g opacity="0.5">
<path d="M352.832 166.891L352.483 166.543L356.492 163.936L356.666 164.11L352.832 166.891Z" fill="white"/>
</g>
<g opacity="0.5">
<path d="M352.832 168.803L352.483 168.456L356.492 165.848L356.666 166.022L352.832 168.803Z" fill="white"/>
</g>
<g opacity="0.5">
<path d="M362.591 170.542L362.243 170.194L366.077 167.587L366.425 167.76L362.591 170.542Z" fill="white"/>
</g>
<g opacity="0.5">
<path d="M362.591 172.28L362.243 172.107L366.077 169.499L366.425 169.673L362.591 172.28Z" fill="white"/>
</g>
<g opacity="0.5">
<path d="M353.18 183.928L352.832 183.58L356.666 180.973L357.014 181.146L353.18 183.928Z" fill="white"/>
</g>
<g opacity="0.5">
<path d="M353.18 185.84L352.832 185.493L356.666 182.885L357.014 183.059L353.18 185.84Z" fill="white"/>
</g>
<g opacity="0.5">
<path d="M362.766 187.405L362.591 187.231L366.425 184.623L366.774 184.797L362.766 187.405Z" fill="white"/>
</g>
<g opacity="0.5">
<path d="M362.766 189.317L362.591 189.143L366.425 186.536L366.774 186.709L362.766 189.317Z" fill="white"/>
</g>
<g opacity="0.5">
<path d="M352.832 199.052L352.483 198.705L356.492 196.097L356.666 196.271L352.832 199.052Z" fill="white"/>
</g>
<g opacity="0.5">
<path d="M352.832 200.965L352.483 200.617L356.492 198.009L356.666 198.183L352.832 200.965Z" fill="white"/>
</g>
<g opacity="0.5">
<path d="M362.591 202.529L362.243 202.356L366.251 199.748L366.425 199.922L362.591 202.529Z" fill="white"/>
</g>
<g opacity="0.5">
<path d="M362.591 204.442L362.243 204.268L366.251 201.66L366.425 201.834L362.591 204.442Z" fill="white"/>
</g>
<path d="M411.215 131.079H393.439V209.657H411.215V131.079Z" fill="black"/>
<g opacity="0.7">
<path d="M394.833 131.948H393.439V208.44H394.833V131.948Z" fill="white"/>
</g>
<g opacity="0.7">
<path d="M399.016 132.296H397.621V208.614H399.016V132.296Z" fill="white"/>
</g>
<g opacity="0.7">
<path d="M402.85 131.948H401.456V208.614H402.85V131.948Z" fill="white"/>
</g>
<g opacity="0.7">
<path d="M407.032 132.122H405.638V208.614H407.032V132.122Z" fill="white"/>
</g>
<g opacity="0.7">
<path d="M410.867 131.948H409.472V208.44H410.867V131.948Z" fill="white"/>
</g>
<path d="M409.995 133.339H394.659C393.264 133.339 392.219 132.296 392.219 130.905V130.731C392.219 129.341 393.264 128.298 394.659 128.298H409.995C411.389 128.298 412.435 129.341 412.435 130.731V130.905C412.435 132.296 411.215 133.339 409.995 133.339Z" fill="#FF9200"/>
<path d="M409.995 171.237H394.659C393.264 171.237 392.219 170.194 392.219 168.803V168.63C392.219 167.239 393.264 166.196 394.659 166.196H409.995C411.389 166.196 412.435 167.239 412.435 168.63V168.803C412.435 170.194 411.215 171.237 409.995 171.237Z" fill="#FF9200"/>
<rect x="-2" width="433" height="215" fill="url(#paint0_linear_5_936)" fill-opacity="0.76"/>
</g>
<defs>
<linearGradient id="paint0_linear_5_936" x1="167.457" y1="215" x2="163.579" y2="28.608" gradientUnits="userSpaceOnUse">
<stop stop-color="#D9D9D9"/>
<stop offset="1" stop-color="#737373"/>
</linearGradient>
<clipPath id="clip0_5_936">
<rect width="435" height="222" fill="white" transform="translate(-2)"/>
</clipPath>
</defs>
</svg>
