<svg width="36" height="36" viewBox="0 0 36 36" fill="none" xmlns="http://www.w3.org/2000/svg">
<path d="M33 18C33 21.9782 31.4196 25.7936 28.6066 28.6066C25.7936 31.4196 21.9782 33 18 33C14.0218 33 10.2064 31.4196 7.3934 28.6066C4.58035 25.7936 3 21.9782 3 18C3 14.0218 4.58035 10.2064 7.3934 7.3934C10.2064 4.58035 14.0218 3 18 3C21.9782 3 25.7936 4.58035 28.6066 7.3934C31.4196 10.2064 33 14.0218 33 18ZM16.5 19.5V24C16.5 24.3978 16.658 24.7794 16.9393 25.0607C17.2206 25.342 17.6022 25.5 18 25.5C18.3978 25.5 18.7794 25.342 19.0607 25.0607C19.342 24.7794 19.5 24.3978 19.5 24V19.5C19.5 19.1022 19.342 18.7206 19.0607 18.4393C18.7794 18.158 18.3978 18 18 18C17.6022 18 17.2206 18.158 16.9393 18.4393C16.658 18.7206 16.5 19.1022 16.5 19.5ZM18 11.25C17.4033 11.25 16.831 11.4871 16.409 11.909C15.9871 12.331 15.75 12.9033 15.75 13.5C15.75 14.0967 15.9871 14.669 16.409 15.091C16.831 15.5129 17.4033 15.75 18 15.75C18.5967 15.75 19.169 15.5129 19.591 15.091C20.0129 14.669 20.25 14.0967 20.25 13.5C20.25 12.9033 20.0129 12.331 19.591 11.909C19.169 11.4871 18.5967 11.25 18 11.25Z" fill="#0250A5"/>
</svg>
