<svg width="430" height="129" viewBox="0 0 430 129" fill="none" xmlns="http://www.w3.org/2000/svg">
<g clip-path="url(#clip0_3_502)">
<ellipse cx="220.5" cy="104.874" rx="101.5" ry="99.9504" fill="url(#paint0_radial_3_502)"/>
<g clip-path="url(#clip1_3_502)">
<path d="M15.1 72.0625L12.5286 74.4592L11.6286 73.5762L13.3 72.0625H15.1Z" fill="#6D6E71"/>
<path d="M37.8571 72.0625L35.5429 74.333L34.6429 73.4501L36.0571 72.0625H37.8571Z" fill="#6D6E71"/>
<path d="M131.329 73.4501L130.429 74.333L128.114 72.0625H129.914L131.329 73.4501Z" fill="#6D6E71"/>
<path d="M153.957 73.0716V73.1978L153.057 74.0808H152.929L152.543 74.4592L151.643 73.5762L152.029 73.0716L151 72.0625H154.986L153.957 73.0716Z" fill="#6D6E71"/>
<path d="M177.871 72.0625L175.557 74.333L174.657 73.4501L176.071 72.0625H177.871Z" fill="#6D6E71"/>
<path d="M271.343 73.4501L270.443 74.333L268 72.0625H269.8L271.343 73.4501Z" fill="#6D6E71"/>
<path d="M293.971 73.1978L293.071 74.0808L290.886 72.0625H292.686L293.971 73.1978Z" fill="#6D6E71"/>
<path d="M297.314 72.0625L294.871 74.4592L293.971 73.5762L295.514 72.0625H297.314Z" fill="#6D6E71"/>
<path d="M320.2 72.0625L317.886 74.333L316.986 73.4501L318.4 72.0625H320.2Z" fill="#6D6E71"/>
<path d="M413.671 73.4501L412.771 74.333L410.457 72.0625H412.257L413.671 73.4501Z" fill="#6D6E71"/>
<path d="M435.014 72.0625L436.3 73.3239L435.4 74.2069L433.343 72.1887C433.343 72.1887 433.214 72.0625 433.086 72.0625H412.257L413.671 73.4501L412.771 74.333L410.586 72.1887C410.586 72.1887 410.457 72.0625 410.329 72.0625H392.586C392.457 72.0625 392.329 71.9364 392.2 71.8102L387.314 49.4836C387.314 49.4836 387.314 49.3575 387.186 49.3575L379.729 42.0414C379.471 41.7891 379.086 42.0414 379.214 42.2937L385.643 71.6841C385.643 71.9364 385.514 72.0625 385.257 72.0625H370.086C369.829 72.0625 369.7 71.9364 369.7 71.6841L375.743 38.3834C375.743 38.2573 375.743 38.1311 375.614 38.1311L370.6 33.2117C370.471 33.0855 370.086 33.0856 370.086 33.3378L366.357 54.0246C366.229 54.5292 365.457 54.5292 365.457 54.0246L360.829 32.8333C360.829 32.581 360.443 32.4549 360.314 32.7071L355.429 37.5004C355.3 37.6266 355.3 37.7527 355.3 37.7527L362.629 71.6841C362.629 71.9364 362.5 72.0625 362.243 72.0625H346.686C346.429 72.0625 346.3 71.9364 346.3 71.6841L352.086 41.5369C352.086 41.1585 351.7 41.0323 351.571 41.2846L344.371 48.3484L344.243 48.4745L339.743 71.8102C339.743 71.9364 339.614 72.0625 339.357 72.0625H320.071C319.943 72.0625 319.943 72.0625 319.814 72.1887L317.629 74.333L316.729 73.4501L318.143 72.0625H297.314C297.186 72.0625 297.186 72.0625 297.057 72.1887L294.614 74.5853L293.714 73.7023L295.257 72.1887H292.429L293.714 73.4501L292.814 74.333L290.757 72.3148C290.757 72.3148 290.629 72.1887 290.5 72.1887H269.671L271.086 73.5762L270.186 74.4592L268 72.3148C268 72.3148 267.871 72.1887 267.743 72.1887H249.871C249.743 72.1887 249.614 72.0625 249.486 71.9364L244.6 49.4836L237.014 42.0414C236.757 41.7891 236.371 42.0414 236.5 42.2937L242.929 71.6841C242.929 71.9364 242.8 72.0625 242.543 72.0625H227.371C227.114 72.0625 226.986 71.9364 226.986 71.6841L233.157 38.3834C233.157 38.2573 233.157 38.1311 233.029 38.1311L228.014 33.2117C227.886 33.0855 227.5 33.0856 227.5 33.3378L223.771 54.0246C223.643 54.5292 222.871 54.5292 222.871 54.0246L218.243 32.8333C218.243 32.581 217.857 32.4549 217.729 32.7071L212.843 37.5004C212.714 37.6266 212.714 37.7527 212.714 37.7527L220.043 71.6841C220.043 71.9364 219.914 72.0625 219.657 72.0625H203.971C203.714 72.0625 203.586 71.9364 203.586 71.6841L209.371 41.5369C209.371 41.1585 208.986 41.0323 208.857 41.2846L201.657 48.3484L201.529 48.4745L197.029 71.8102C197.029 71.9364 196.9 72.0625 196.643 72.0625H177.357C177.229 72.0625 177.229 72.0625 177.1 72.1887L174.914 74.333L174.014 73.4501L175.429 72.0625H154.6C154.471 72.0625 154.471 72.0625 154.343 72.1887L153.314 73.1978L153.443 73.3239L152.543 74.2069L152.414 74.0807L151.9 74.4592L151 73.5762L151.514 73.1978L150.486 72.1887C150.486 72.1887 150.357 72.0625 150.229 72.0625H129.4L130.814 73.4501L130.429 74.333L128.243 72.1887C128.243 72.1887 128.114 72.0625 127.986 72.0625H110.886C110.243 72.0625 109.857 71.6841 109.729 71.0534L104.971 49.3575L104.457 47.087L98.8 20.8501L98.2857 18.5796L98.0286 17.4443V17.3182V14.5431C98.0286 14.0385 97.6429 13.7863 97.2571 13.7863H68.8429C68.3286 13.7863 68.0714 14.1647 68.0714 14.5431V17.4443L67.8143 18.4534L67.4286 20.7239L62.5429 46.0779L62.1572 48.2222L57.6572 71.6841C57.6572 71.8102 57.5286 71.9364 57.2714 71.9364H37.9857C37.8571 71.9364 37.8571 71.9364 37.7286 72.0625L35.5429 74.333L34.6429 73.4501L36.0571 72.0625H15.2286C15.1 72.0625 15.1 72.0625 14.9714 72.1887L12.5286 74.5853L11.6286 73.7023L13.1714 72.1887H-1.61429C-1.74286 72.1887 -2 72.3148 -2 72.5671V78.2433C-2 78.3695 -1.87143 78.6218 -1.61429 78.6218H43.2571C43.5143 78.6218 43.6429 78.7479 43.7714 79.0002L52.5143 97.5426C52.5143 97.6688 52.5143 97.921 52.5143 98.0472L46.6 129.204C46.6 129.456 46.7286 129.708 46.9857 129.834L52.3857 130.843C52.6429 130.843 52.9 130.717 52.9 130.465L57.0143 109.274C57.1429 108.769 57.7857 108.769 57.9143 109.147L68.4571 131.222C68.5857 131.474 68.8429 131.6 69.1 131.474L71.4143 130.465C71.5429 130.465 71.6714 130.465 71.8 130.465L74.1143 131.474C74.3714 131.6 74.6286 131.474 74.7571 131.222L86.7143 104.48C86.8429 104.102 87.4857 104.102 87.6143 104.606L93.1429 129.96C93.2714 130.213 93.5286 130.339 93.6572 130.339L96.1 129.834C96.2286 129.834 96.3571 129.834 96.6143 129.834L98.8 130.843C99.0572 130.969 99.3143 130.843 99.4429 130.591L110.114 107.634C110.371 107.255 110.886 107.255 111.014 107.76L115.771 129.834C115.9 130.087 116.157 130.213 116.286 130.213L121.686 129.077C121.943 128.951 122.071 128.699 122.071 128.447L115.129 96.6596L123.229 79.2525C123.614 78.4956 124.386 77.9911 125.157 77.9911H183.143C183.271 77.9911 183.4 78.1172 183.4 78.2433L192.271 96.9119C192.271 97.0381 192.271 97.2903 192.4 97.4165L186.486 128.573C186.486 128.825 186.614 129.077 186.871 129.204L192.271 130.213C192.529 130.213 192.786 130.087 192.786 129.834L196.9 108.643C197.029 108.138 197.671 108.138 197.8 108.517L208.343 130.591C208.471 130.843 208.729 130.969 208.986 130.843L211.3 129.834C211.429 129.834 211.557 129.834 211.686 129.834L214 130.843C214.257 130.969 214.514 130.843 214.643 130.591L226.6 104.48C226.857 104.102 227.371 104.102 227.5 104.606L233.029 129.96C233.029 130.213 233.286 130.339 233.671 130.339L236.114 129.834C236.243 129.834 236.5 129.834 236.629 129.834L238.814 130.843C239.071 130.969 239.329 130.843 239.457 130.591L250.129 107.634C250.386 107.255 250.9 107.255 251.029 107.76L255.786 129.834C255.786 130.087 256.043 130.213 256.429 130.213L261.7 129.077C261.957 128.951 262.086 128.699 262.086 128.447L255.143 96.6596L263.629 78.3695C263.757 78.1172 263.886 77.9911 264.143 77.9911H325.343C325.6 77.9911 325.857 78.1172 325.986 78.3695L334.729 96.7858C334.729 96.9119 334.729 97.1642 334.729 97.2903L328.814 128.447C328.814 128.699 328.943 128.951 329.2 129.077L334.6 130.087C334.857 130.087 335.114 129.96 335.114 129.708L339.229 108.517C339.357 108.012 340 108.012 340.129 108.391L350.671 130.465C350.8 130.717 351.057 130.843 351.314 130.717L353.629 129.708C353.757 129.708 353.886 129.708 354.014 129.708L356.329 130.717C356.586 130.843 356.843 130.717 356.971 130.465L368.929 104.354C369.057 103.976 369.7 103.976 369.829 104.48L375.357 129.834C375.357 130.087 375.743 130.213 375.871 130.213L378.314 129.708C378.443 129.708 378.571 129.708 378.829 129.708L381.014 130.717C381.271 130.843 381.529 130.717 381.657 130.465L392.329 107.508C392.586 107.129 393.1 107.129 393.229 107.634L397.986 129.708C397.986 129.96 398.371 130.087 398.5 130.087L403.771 128.951C404.029 128.825 404.157 128.573 404.157 128.321L397.214 96.5335L405.571 78.7479C405.829 78.2433 406.343 77.8649 406.857 77.8649H456.357C456.486 77.8649 456.743 77.7388 456.743 77.4865V71.8102C456.743 71.6841 456.614 71.4318 456.357 71.4318H435.014V72.0625ZM54.9571 85.3071C54.8286 85.8117 54.1857 85.8117 54.0571 85.4333L50.9714 78.874C50.8429 78.6218 50.9714 78.3695 51.2286 78.3695H55.8571C56.1143 78.3695 56.2429 78.4956 56.2429 78.7479L54.9571 85.3071ZM70.1286 40.4016L70.5143 38.2573L71.2857 34.0947C71.4143 33.5901 72.1857 33.5901 72.3143 34.0947L72.7 36.1129L73.0857 37.6266L80.4143 71.4318C80.5429 71.8102 80.1572 72.0625 79.7714 72.0625H64.4714C64.2143 72.0625 64.0857 71.9364 64.0857 71.6841L70.1286 40.4016ZM85.0429 92.7493L71.9286 121.257C71.8 121.635 71.2857 121.635 71.0286 121.257L59.4571 96.7858C59.4571 96.6597 59.4571 96.5335 59.4571 96.2812L62.8 78.4956C62.8 78.3695 62.9286 78.2433 63.1857 78.2433H81.5714C81.7 78.2433 81.8286 78.3695 81.9572 78.4956L85.0429 92.7493ZM84.1429 54.0246C84.0143 54.5292 83.2429 54.5292 83.2429 54.0246L78.4857 32.2026L78.1 30.6889L75.9143 20.8501L75.4 18.5796L75.2714 18.075C75.4 17.8227 75.5286 17.5704 75.9143 17.5704H90.3143C90.5714 17.5704 90.8286 17.8227 90.8286 18.075V18.4534L90.4429 20.5978L88.5143 31.0673L88 32.7071L84.1429 54.0246ZM87.6143 70.9273L93.6572 38.005L93.9143 36.4913L94.3 34.3469C94.4286 33.8424 95.2 33.8424 95.2 34.3469L96.2286 38.7618L96.7429 41.0323L103.171 70.9273C103.3 71.4318 102.914 71.9364 102.4 71.9364H88.3857C87.8714 72.0625 87.4857 71.558 87.6143 70.9273ZM91.3429 78.7479L90.5714 80.7661C90.1857 81.523 89.1572 81.3968 89.0286 80.64L88.7714 79.2525C88.6429 78.874 89.0286 78.3695 89.4143 78.3695H91.0857C91.3429 78.3695 91.4714 78.4956 91.3429 78.7479ZM108.443 96.4074L98.0286 118.608C97.9 118.986 97.2571 118.986 97.1286 118.482L91.7286 93.5062C91.7286 93.38 91.7286 93.38 91.7286 93.2539L98.2857 78.7479C98.4143 78.4956 98.6714 78.2433 99.0572 78.2433H104.071C104.457 78.2433 104.714 78.4956 104.714 78.7479L108.571 95.9028C108.571 96.0289 108.443 96.2812 108.443 96.4074ZM116.543 79.1263L113.714 85.3071C113.457 85.6855 112.943 85.6855 112.814 85.181L111.529 79.3786C111.4 78.874 111.786 78.2433 112.429 78.2433H116.029C116.414 78.3695 116.671 78.7479 116.543 79.1263ZM194.971 85.3071C194.843 85.8117 194.2 85.8117 194.071 85.4333L190.986 78.874C190.857 78.6218 190.986 78.3695 191.243 78.3695H195.871C196.129 78.3695 196.257 78.4956 196.257 78.7479L194.971 85.3071ZM224.929 92.7493L211.943 121.257C211.814 121.635 211.171 121.635 211.043 121.257L199.471 96.7858C199.471 96.6597 199.471 96.4074 199.471 96.2812L202.814 78.4956C202.814 78.3695 202.943 78.2433 203.2 78.2433H221.714C221.843 78.2433 221.971 78.3695 222.1 78.4956L224.929 92.7493ZM230.457 80.64C230.071 81.3968 229.043 81.2707 228.914 80.5138L228.529 78.7479C228.529 78.4956 228.657 78.3695 228.914 78.3695H231.1C231.357 78.3695 231.486 78.6218 231.357 78.874L230.457 80.64ZM248.457 96.4074L238.043 118.608C237.786 118.986 237.271 118.986 237.143 118.482L231.743 93.6323C231.743 93.5062 231.743 93.2539 231.743 93.1278L238.429 78.4956C238.429 78.3695 238.557 78.2433 238.686 78.2433H244.343C244.471 78.2433 244.6 78.3695 244.729 78.4956L248.457 95.7767C248.457 96.029 248.457 96.1551 248.457 96.4074ZM253.6 85.3071C253.343 85.6855 252.829 85.6855 252.7 85.181L251.286 78.7479C251.286 78.4956 251.414 78.3695 251.671 78.3695H256.429C256.686 78.3695 256.814 78.6218 256.686 78.874L253.6 85.3071ZM337.3 85.3071C337.171 85.8117 336.529 85.8117 336.4 85.4333L333.314 78.874C333.186 78.6218 333.314 78.3695 333.571 78.3695H338.2C338.457 78.3695 338.586 78.4956 338.586 78.7479L337.3 85.3071ZM367.257 92.7493L354.271 121.257C354.143 121.635 353.629 121.635 353.371 121.257L341.8 96.7858C341.8 96.6597 341.8 96.4074 341.671 96.2812L345.014 78.4956C345.014 78.3695 345.143 78.2433 345.4 78.2433H363.914C364.043 78.2433 364.171 78.3695 364.3 78.4956L367.257 92.7493ZM372.786 80.64C372.4 81.3968 371.371 81.2707 371.243 80.5138L370.857 78.7479C370.857 78.4956 370.986 78.3695 371.243 78.3695H373.429C373.686 78.3695 373.814 78.6218 373.686 78.874L372.786 80.64ZM390.786 96.4074L380.371 118.608C380.243 118.986 379.6 118.986 379.471 118.482L374.071 93.6323C374.071 93.5062 374.071 93.2539 374.071 93.1278L380.757 78.4956C380.757 78.3695 380.886 78.2433 381.014 78.2433H386.671C386.8 78.2433 386.929 78.3695 387.057 78.4956L390.786 95.7767C390.786 96.029 390.786 96.1551 390.786 96.4074ZM395.929 85.3071C395.671 85.6855 395.157 85.6855 395.029 85.181L393.614 78.7479C393.614 78.4956 393.743 78.3695 394 78.3695H398.757C399.014 78.3695 399.143 78.6218 399.014 78.874L395.929 85.3071Z" fill="#6D6E71"/>
<path d="M72.0571 16.0568L71.6714 16.5613L67.4286 20.7239L15.1 72.0625L12.5286 74.4592L11.6286 73.5762L13.3 72.0625L67.8143 18.5796L71.1572 15.1738L71.6714 15.6784L72.0571 16.0568Z" fill="#6D6E71"/>
<path d="M94.8143 16.0568L90.3143 20.5978L83.8857 26.9047L82.9857 27.7877L78.4857 32.2026L35.5429 74.333L34.6429 73.45L72.7 36.1129L78.1 30.6889L82.0857 26.9047L82.9857 26.0218L90.7 18.4534L93.9143 15.1738L94.4286 15.6784L94.8143 16.0568Z" fill="#6D6E71"/>
<path d="M131.329 73.45L130.429 74.333L128.114 72.0625L104.971 49.3575L88 32.7071L82.9857 27.7877L82.0857 26.9047L76.0428 20.8501L71.6714 16.5613L71.1571 16.0568L71.6714 15.6784L72.0571 15.1738L131.329 73.45Z" fill="#6D6E71"/>
<path d="M153.957 73.1978L153.057 74.0807L152.029 73.0716L151 72.0625L94.4286 16.5613L93.9143 16.0568L94.4286 15.6784L94.8143 15.1738L153.957 73.1978Z" fill="#6D6E71"/>
<path d="M244.986 49.3575L244.471 47.087L238.814 20.9762L238.3 18.7057L238.043 17.5704V14.2908C238.043 14.0385 237.786 13.7863 237.529 13.7863H208.343C208.086 13.7863 207.829 14.0385 207.829 14.2908V17.4443C207.829 17.4443 207.829 17.4443 207.829 17.5704L207.571 18.5796L207.186 20.7239L202.429 46.0779L202.043 48.2222L210.143 40.2755L210.529 38.1311L211.3 34.0947C211.429 33.5901 212.2 33.5901 212.2 34.0947L212.586 36.1129L212.971 37.6266L218.371 32.3287L217.986 30.815L215.8 20.9762L215.286 18.7057V18.075C215.286 17.8227 215.414 17.5704 215.8 17.5704H230.2C230.457 17.5704 230.714 17.8227 230.714 18.075L230.586 18.4534L230.2 20.5978L228.271 31.0673L228.014 32.581L233.543 38.005L233.8 36.4913L234.186 34.3469C234.314 33.8424 234.957 33.8424 235.086 34.3469L236.114 38.7618L236.629 41.0323L244.986 49.3575Z" fill="#6D6E71"/>
<path d="M211.943 16.0568L211.557 16.5613L207.314 20.7239L153.957 73.0716L152.929 74.0807L152.543 74.4592L151.643 73.5762L152.029 73.0716L152.929 72.1887L153.186 72.0625L207.7 18.5796L211.043 15.1738L211.557 15.6784L211.943 16.0568Z" fill="#6D6E71"/>
<path d="M234.829 16.0568L234.314 16.5613L230.2 20.5978L223.9 26.9047L218.371 32.2026L212.971 37.5004L175.557 74.333L174.657 73.45L176.071 72.0625L202.429 46.0779L210.529 38.1311L212.714 36.1129L218.114 30.6889L222.1 26.9047L223 26.0218L230.586 18.4534L233.929 15.1738L234.314 15.6784L234.829 16.0568Z" fill="#6D6E71"/>
<path d="M271.343 73.45L270.443 74.333L268 72.0625L244.986 49.3575L236.629 41.1584L233.543 38.1311L228.014 32.7071L223 27.7877L222.1 26.9047L215.929 20.8501L211.557 16.5613L211.043 16.0568L211.557 15.6784L211.943 15.1738L223 26.0218L223.9 26.9047L228.271 31.1935L233.8 36.6174L236.114 38.8879L244.471 47.087L271.343 73.45Z" fill="#6D6E71"/>
<path d="M293.971 73.1978L293.071 74.0807L290.886 72.0625L238.814 20.8501L234.314 16.5613L233.929 16.0568L234.314 15.6784L234.829 15.1738L293.971 73.1978Z" fill="#6D6E71"/>
<path d="M386.8 47.087L381.143 20.8501L380.629 18.5796L380.371 17.4443V17.3182V14.2908C380.371 14.0385 380.114 13.7863 379.857 13.7863H350.671C350.414 13.7863 350.157 14.0385 350.157 14.2908V17.5704L349.9 18.5796L349.514 20.7239L344.629 46.0779L344.243 48.2222L352.343 40.2755L352.729 38.1311L353.5 33.9685C353.629 33.464 354.4 33.464 354.529 33.9685L354.914 35.9867L355.3 37.5004L360.7 32.2026L360.314 30.6889L358.129 20.8501L357.614 18.5796L357.486 18.075C357.357 17.8227 357.614 17.5704 358 17.5704H372.4C372.657 17.5704 372.914 17.8227 372.914 18.075L372.786 18.4534L372.4 20.5978L370.471 31.0673L370.214 32.581L375.743 38.005L376 36.4913L376.386 34.3469C376.514 33.8424 377.286 33.8424 377.286 34.3469L378.314 38.7618L378.829 41.0323L387.186 49.2313L386.8 47.087Z" fill="#6D6E71"/>
<path d="M354.271 16.0568L353.886 16.5613L349.643 20.7239L297.314 72.0625L294.871 74.4592L293.971 73.5762L353.371 15.1738L353.886 15.6784L354.271 16.0568Z" fill="#6D6E71"/>
<path d="M377.157 16.0568L376.643 16.5613L372.529 20.7239L366.229 26.9047L365.329 27.7877L360.7 32.2026L355.3 37.5004L352.343 40.4016L344.371 48.2222L317.886 74.333L316.986 73.45L360.443 30.6889L364.429 26.9047L365.329 26.0218L376.257 15.1738L376.643 15.6784L377.157 16.0568Z" fill="#6D6E71"/>
<path d="M413.671 73.45L412.771 74.333L353.371 16.0568L353.886 15.6784L354.271 15.1738L376.129 36.6174L378.443 38.8879L386.8 47.087L412.257 72.0625L413.671 73.45Z" fill="#6D6E71"/>
<path d="M436.3 73.1978L435.4 74.0807L376.257 16.0568L376.643 15.6784L377.157 15.1738L436.3 73.1978Z" fill="#6D6E71"/>
</g>
</g>
<defs>
<radialGradient id="paint0_radial_3_502" cx="0" cy="0" r="1" gradientUnits="userSpaceOnUse" gradientTransform="translate(220.5 104.874) rotate(90) scale(99.9504 111.154)">
<stop stop-color="#FFDD2E"/>
<stop offset="1" stop-color="#EDD03B" stop-opacity="0"/>
</radialGradient>
<clipPath id="clip0_3_502">
<rect width="494" height="129" fill="white" transform="translate(-28)"/>
</clipPath>
<clipPath id="clip1_3_502">
<rect width="459" height="117.183" fill="white" transform="translate(-2 13.7863)"/>
</clipPath>
</defs>
</svg>
