<svg width="113" height="230" viewBox="0 0 113 230" fill="none" xmlns="http://www.w3.org/2000/svg">
<g opacity="0.69" filter="url(#filter0_f_3_821)">
<path d="M104.226 186.527C104.636 186.02 104.499 185.514 104.499 185.092C104.499 152.266 104.499 119.524 104.499 86.6974C104.499 85.516 104.226 84.7565 103.337 84.1658C90.2079 74.8833 77.0789 65.5164 63.95 56.1495C62.6508 55.2213 62.6508 55.2212 62.6508 57.0778C62.6508 89.7353 62.514 122.393 62.7191 155.05C62.7875 165.599 58.9582 172.772 51.8467 177.413C42.0684 183.742 31.9481 183.826 22.033 177.582C16.5626 174.122 13.2804 168.468 13.0069 160.62C12.8701 155.304 14.7847 151.084 17.9302 147.709C22.7168 142.646 28.3924 140.874 34.5466 141.549C38.7178 141.971 42.6838 143.321 46.3079 146.021C48.1542 147.371 49.6586 149.228 50.821 151.422C51.2313 151.253 51.0945 150.831 51.0945 150.494C51.0945 142.561 51.0945 134.629 51.0945 126.612C51.0945 89.229 51.0945 51.8458 51.0945 14.4626C51.0945 14.0407 50.9578 13.3656 51.2313 13.1124C51.5732 12.7749 51.9151 13.2812 52.257 13.5343C72.1556 27.7113 92.1225 41.8882 112.021 56.0651C113.115 56.8246 114.209 57.6685 115.372 58.4279C115.85 58.7655 116.056 59.103 115.987 59.7781C115.919 60.2844 115.987 60.7908 115.987 61.2971C115.987 96.2331 115.987 131.169 115.987 166.105C115.987 174.375 115.782 182.56 115.987 190.83C116.192 199.606 112.978 205.935 107.44 210.661C100.328 216.737 92.3961 218.003 84.0537 216.315C78.9252 215.302 74.2754 212.855 70.5828 208.214C66.0698 202.56 64.9757 193.615 68.0528 187.37C70.0358 183.32 72.9078 180.366 76.4635 178.679C84.9426 174.628 92.9431 175.978 100.602 181.885C102.106 183.067 103.2 184.67 104.226 186.527Z" fill="white"/>
</g>
<defs>
<filter id="filter0_f_3_821" x="0.2" y="0.2" width="128.6" height="229.6" filterUnits="userSpaceOnUse" color-interpolation-filters="sRGB">
<feFlood flood-opacity="0" result="BackgroundImageFix"/>
<feBlend mode="normal" in="SourceGraphic" in2="BackgroundImageFix" result="shape"/>
<feGaussianBlur stdDeviation="6.4" result="effect1_foregroundBlur_3_821"/>
</filter>
</defs>
</svg>
