<svg width="49" height="49" viewBox="0 0 49 49" fill="none" xmlns="http://www.w3.org/2000/svg">
<g clip-path="url(#clip0_201_6)">
<path d="M40.351 40.3511C44.5549 36.1472 46.9167 30.4454 46.9167 24.5002C46.9167 18.5549 44.5549 12.8531 40.351 8.64919C36.147 4.44525 30.4453 2.0835 24.5 2.0835C18.5547 2.0835 12.853 4.44525 8.64902 8.64919C4.44508 12.8531 2.08333 18.5549 2.08333 24.5002C2.08333 30.4454 4.44508 36.1472 8.64902 40.3511C12.853 44.5551 18.5547 46.9168 24.5 46.9168C30.4453 46.9168 36.147 44.5551 40.351 40.3511ZM24.4583 32.6668V26.5418C24.4583 26.5308 24.4627 26.5202 24.4705 26.5124C24.4784 26.5045 24.489 26.5002 24.5 26.5002C24.511 26.5002 24.5216 26.5046 24.5295 26.5124C24.5373 26.5202 24.5417 26.5308 24.5417 26.5418V32.6668C24.5417 32.6779 24.5373 32.6885 24.5295 32.6963C24.5216 32.7041 24.511 32.7085 24.5 32.7085C24.4889 32.7085 24.4783 32.7041 24.4705 32.6963C24.4627 32.6885 24.4583 32.6779 24.4583 32.6668ZM23.7487 17.6239C23.948 17.4246 24.2182 17.3127 24.5 17.3127C24.7818 17.3127 25.052 17.4246 25.2513 17.6239L26.6655 16.2096L25.2513 17.6239C25.4506 17.8231 25.5625 18.0934 25.5625 18.3752C25.5625 18.657 25.4506 18.9272 25.2513 19.1265C25.052 19.3257 24.7818 19.4377 24.5 19.4377C24.2182 19.4377 23.948 19.3257 23.7487 19.1265C23.5494 18.9272 23.4375 18.657 23.4375 18.3752C23.4375 18.0934 23.5494 17.8231 23.7487 17.6239Z" fill="#0250A3" stroke="white" stroke-width="4"/>
</g>
<defs>
<clipPath id="clip0_201_6">
<rect width="49" height="49" fill="white"/>
</clipPath>
</defs>
</svg>
