<svg width="89" height="95" viewBox="0 0 89 95" fill="none" xmlns="http://www.w3.org/2000/svg">
<path d="M82.1079 52.1179C80.1811 59.4485 71.0657 64.6284 52.8294 74.9883C35.199 85.0044 26.3838 90.0097 19.2825 88.001C16.3391 87.1667 13.6615 85.5853 11.5098 83.4106C6.29167 78.1433 6.29167 67.9307 6.29167 47.5002C6.29167 27.0696 6.29167 16.8571 11.5098 11.5898C13.6622 9.41699 16.3397 7.83755 19.2825 7.00479C26.3838 4.98521 35.199 9.99596 52.8294 20.012C71.0603 30.3719 80.1811 35.5519 82.1134 42.8824C82.916 45.9086 82.916 49.0917 82.1134 52.1179" fill="#0250A3"/>
<path d="M82.1079 52.1179C80.1811 59.4485 71.0657 64.6284 52.8294 74.9883C35.199 85.0044 26.3838 90.0097 19.2825 88.001C16.3391 87.1667 13.6615 85.5853 11.5098 83.4105C6.29167 78.1433 6.29167 67.9307 6.29167 47.5002C6.29167 27.0696 6.29167 16.8571 11.5098 11.5898C13.6622 9.41699 16.3397 7.83755 19.2825 7.00479C26.3838 4.98521 35.199 9.99596 52.8294 20.012C71.0603 30.3719 80.1811 35.5519 82.1134 42.8824C82.916 45.9086 82.916 49.0917 82.1134 52.1179" stroke="white" stroke-width="12" stroke-linecap="round" stroke-linejoin="round"/>
</svg>
