<svg width="430" height="112" viewBox="0 0 430 112" fill="none" xmlns="http://www.w3.org/2000/svg">
<g filter="url(#filter0_f_141_4173)">
<path d="M10 24C10 31.9636 10.2565 41.3455 15.3064 47.7727C16.7847 49.6541 22.5333 50.0279 24.5395 50.3197C29.5205 51.0442 34.6419 50.7442 39.6628 50.7442C50.3994 50.7442 61.136 50.7442 71.8726 50.7442C82.3061 50.7442 92.6865 48.6109 103.074 47.6665C113.465 46.7219 123.847 46.9236 134.276 46.9236C145.657 46.9236 155.728 49.7669 166.751 52.1239C177.675 54.4598 186.734 58.8638 196.202 64.5939C200.604 67.2588 205.142 70.1046 209.202 73.1903C215.121 77.6887 222.649 78.569 229.154 81.7336C241.82 87.8955 258.248 87.9952 272.136 87.9952C282.93 87.9952 291.595 83.5917 301.746 80.407C324.783 73.1798 349.253 70.1347 373.276 68.8921C381.901 68.446 392.432 63.5641 399.702 59.2876C406.854 55.0807 412.123 50.9791 415.727 43.2092C417.739 38.873 418.634 33.8943 420.715 29.7309" stroke="white" stroke-width="12" stroke-linecap="round"/>
</g>
<defs>
<filter id="filter0_f_141_4173" x="-13.1" y="0.9" width="456.917" height="110.195" filterUnits="userSpaceOnUse" color-interpolation-filters="sRGB">
<feFlood flood-opacity="0" result="BackgroundImageFix"/>
<feBlend mode="normal" in="SourceGraphic" in2="BackgroundImageFix" result="shape"/>
<feGaussianBlur stdDeviation="8.55" result="effect1_foregroundBlur_141_4173"/>
</filter>
</defs>
</svg>
