<svg width="117" height="342" viewBox="0 0 117 342" fill="none" xmlns="http://www.w3.org/2000/svg">
<g filter="url(#filter0_f_141_4154)">
<path d="M77.0026 17.6025C78.7577 18.0029 80.5127 18.3032 82.2679 18.9038C93.4566 22.5073 94.4158 31.6899 96.5 42C100.559 62.9205 99.5995 79.5633 83.5842 94.9784C79.1964 99.1825 73.4924 102.085 68.1174 105.188C63.4005 107.991 58.4643 110.594 53.9668 113.797C53.199 114.397 52.7602 114.898 52.7602 115.899C52.7602 129.012 53.0893 142.125 53.7474 155.137C53.8571 156.238 54.1862 156.639 55.3929 156.739C73.3826 158.441 85.449 167.449 92.1403 182.464C97.8444 195.377 98.2832 208.59 91.8112 221.502C85.7781 233.614 75.5765 241.822 62.3036 246.927C60.5485 247.628 59.8903 248.329 60 250.131C60.6582 261.241 61.2066 272.352 60.1097 283.363C59.3418 291.371 57.3673 299.179 52.4311 305.985C46.2883 314.393 37.6225 319.499 27.0918 322.001C15.4643 324.704 4.05613 324.003 -6.58417 318.898C-17.8826 313.393 -25.4515 305.184 -26 292.973C-26.4388 282.162 -22.051 273.253 -11.1913 268.048C-0.331625 262.843 10.5281 263.343 20.5102 270.25C27.2015 274.855 29.9439 282.162 27.8597 288.768C25.8852 295.175 18.9745 299.379 11.4056 298.878C4.38521 298.378 -1.64795 293.073 -2.5255 286.666C-2.74489 285.365 -2.6352 284.064 -2.6352 282.662C-6.80356 286.066 -7.68111 292.772 -4.82907 297.677C-3.07397 300.68 -0.55101 302.782 2.63011 304.284C12.6123 308.888 28.0791 306.286 35.4286 298.578C38.9388 294.974 40.3648 290.47 41.2424 285.866C42.6684 277.357 42.449 268.849 42.1199 260.24C42.0102 257.738 41.7908 255.236 41.7908 252.733C41.7908 251.332 41.2423 251.131 39.8163 251.131C29.3954 251.232 19.4133 249.53 10.0893 245.326C-7.46173 237.418 -18.102 224.505 -21.9413 206.988C-26.1097 188.07 -21.7219 170.552 -11.4107 154.036C-3.73213 141.724 6.25001 131.214 17.1097 121.304C22.2653 116.7 27.5306 112.195 33.0153 107.891C34.1123 106.99 34.4413 106.089 34.4413 104.888C34.9898 87.2708 37.2934 69.8538 42.1199 52.737C44.3138 45.0294 47.1658 37.5221 51.6633 30.7154C56.1607 23.9087 62.3036 19.104 71.1888 17.9028C71.2985 17.9028 71.5179 17.7026 71.6276 17.7026C73.602 17.6025 75.3571 17.6025 77.0026 17.6025ZM34.4413 130.413C34.3316 130.313 34.1123 130.313 34.0026 130.213C31.4796 132.615 28.9566 134.918 26.5434 137.42C17.7679 146.129 10.0893 155.538 5.26276 166.649C-2.08673 183.665 -1.75764 200.382 7.67603 216.598C14.148 227.709 24.4592 233.915 38.5 234.415C40.2551 234.515 40.8036 234.115 40.6939 232.413C39.3776 214.796 38.1709 197.078 36.9643 179.461C36.8546 178.06 36.5255 178.06 35.2092 178.66C27.0918 182.664 21.7168 188.57 18.6454 196.478C17.4388 199.681 17 202.984 16.8903 206.288C16.3418 206.288 16.2322 205.987 16.1225 205.787C11.9541 199.181 10.199 192.174 12.0638 184.666C14.8061 173.255 22.4847 165.347 33.8929 160.443C35.2092 159.842 35.648 159.341 35.648 157.94C35.4286 154.337 35.3189 150.733 35.0995 147.13C34.8801 141.524 34.6607 135.919 34.4413 130.413ZM55.6123 182.865C56.5995 197.379 57.8061 212.894 58.9031 228.409C59.0128 229.71 59.4515 229.61 60.4388 229.01C63.949 227.108 67.1301 224.806 69.8725 221.903C80.074 211.192 80.074 197.078 74.0408 185.868C70.5306 179.461 64.8265 175.257 57.0383 173.656C55.7219 173.355 55.1735 173.555 55.2832 174.957C55.2832 177.359 55.3929 179.561 55.6123 182.865ZM53.9668 91.3749C56.2704 89.9735 57.8061 88.3719 59.4515 87.0706C69.9821 78.5623 75.9056 67.8518 76.4541 54.9391C76.6735 49.6339 76.0153 44.4288 73.602 39.524C72.2857 36.8214 70.4209 36.7213 68.5561 39.1236C67.2398 40.9254 66.2526 42.9274 65.4847 44.9293C61.9745 53.738 59.7806 62.7468 57.6964 71.8557C56.2704 78.1619 54.9541 84.5682 53.9668 91.3749Z" fill="white"/>
</g>
<defs>
<filter id="filter0_f_141_4154" x="-43.5298" y="0.102539" width="159.559" height="340.95" filterUnits="userSpaceOnUse" color-interpolation-filters="sRGB">
<feFlood flood-opacity="0" result="BackgroundImageFix"/>
<feBlend mode="normal" in="SourceGraphic" in2="BackgroundImageFix" result="shape"/>
<feGaussianBlur stdDeviation="8.75" result="effect1_foregroundBlur_141_4154"/>
</filter>
</defs>
</svg>
