<svg width="54" height="54" viewBox="0 0 54 54" fill="none" xmlns="http://www.w3.org/2000/svg">
<path d="M27 53.6668C12.272 53.6668 0.333328 41.7282 0.333328 27.0002C0.333328 12.2722 12.272 0.333496 27 0.333496C41.728 0.333496 53.6667 12.2722 53.6667 27.0002C53.6667 41.7282 41.728 53.6668 27 53.6668ZM13.6667 29.6668C13.6667 33.203 15.0714 36.5944 17.5719 39.0949C20.0724 41.5954 23.4638 43.0002 27 43.0002C30.5362 43.0002 33.9276 41.5954 36.4281 39.0949C38.9286 36.5944 40.3333 33.203 40.3333 29.6668H35C35 31.7886 34.1571 33.8234 32.6568 35.3237C31.1566 36.824 29.1217 37.6668 27 37.6668C24.8783 37.6668 22.8434 36.824 21.3431 35.3237C19.8428 33.8234 19 31.7886 19 29.6668H13.6667ZM16.3333 24.3335C17.3942 24.3335 18.4116 23.9121 19.1618 23.1619C19.9119 22.4118 20.3333 21.3944 20.3333 20.3335C20.3333 19.2726 19.9119 18.2552 19.1618 17.5051C18.4116 16.7549 17.3942 16.3335 16.3333 16.3335C15.2725 16.3335 14.255 16.7549 13.5049 17.5051C12.7548 18.2552 12.3333 19.2726 12.3333 20.3335C12.3333 21.3944 12.7548 22.4118 13.5049 23.1619C14.255 23.9121 15.2725 24.3335 16.3333 24.3335ZM37.6667 24.3335C38.7275 24.3335 39.7449 23.9121 40.4951 23.1619C41.2452 22.4118 41.6667 21.3944 41.6667 20.3335C41.6667 19.2726 41.2452 18.2552 40.4951 17.5051C39.7449 16.7549 38.7275 16.3335 37.6667 16.3335C36.6058 16.3335 35.5884 16.7549 34.8382 17.5051C34.0881 18.2552 33.6667 19.2726 33.6667 20.3335C33.6667 21.3944 34.0881 22.4118 34.8382 23.1619C35.5884 23.9121 36.6058 24.3335 37.6667 24.3335Z" fill="#FEFEFE"/>
</svg>
