<svg width="118" height="118" viewBox="0 0 118 118" fill="none" xmlns="http://www.w3.org/2000/svg">
<g filter="url(#filter0_d_5_1226)">
<circle cx="59" cy="55" r="55" fill="#0250A5"/>
</g>
<g filter="url(#filter1_d_5_1226)">
<path d="M85.5635 45.9563C86.9034 46.6842 88.0241 47.7708 88.8056 49.0997C89.5871 50.4286 90 51.9497 90 53.5C90 55.0503 89.5871 56.5714 88.8056 57.9003C88.0241 59.2292 86.9034 60.3159 85.5635 61.0438L49.8236 80.8991C44.0688 84.0996 37 79.9387 37 73.3582V33.6447C37 27.0614 44.0688 22.9033 49.8236 26.0981L85.5635 45.9563Z" fill="white"/>
<path d="M85.5635 45.9563C86.9034 46.6842 88.0241 47.7708 88.8056 49.0997C89.5871 50.4286 90 51.9497 90 53.5C90 55.0503 89.5871 56.5714 88.8056 57.9003C88.0241 59.2292 86.9034 60.3159 85.5635 61.0438L49.8236 80.8991C44.0688 84.0996 37 79.9387 37 73.3582V33.6447C37 27.0614 44.0688 22.9033 49.8236 26.0981L85.5635 45.9563Z" stroke="#F8F8F8" stroke-width="1.5"/>
</g>
<defs>
<filter id="filter0_d_5_1226" x="0" y="0" width="118" height="118" filterUnits="userSpaceOnUse" color-interpolation-filters="sRGB">
<feFlood flood-opacity="0" result="BackgroundImageFix"/>
<feColorMatrix in="SourceAlpha" type="matrix" values="0 0 0 0 0 0 0 0 0 0 0 0 0 0 0 0 0 0 127 0" result="hardAlpha"/>
<feOffset dy="4"/>
<feGaussianBlur stdDeviation="2"/>
<feComposite in2="hardAlpha" operator="out"/>
<feColorMatrix type="matrix" values="0 0 0 0 0 0 0 0 0 0 0 0 0 0 0 0 0 0 0.25 0"/>
<feBlend mode="normal" in2="BackgroundImageFix" result="effect1_dropShadow_5_1226"/>
<feBlend mode="normal" in="SourceGraphic" in2="effect1_dropShadow_5_1226" result="shape"/>
</filter>
<filter id="filter1_d_5_1226" x="32.25" y="24.2489" width="62.5" height="66.5022" filterUnits="userSpaceOnUse" color-interpolation-filters="sRGB">
<feFlood flood-opacity="0" result="BackgroundImageFix"/>
<feColorMatrix in="SourceAlpha" type="matrix" values="0 0 0 0 0 0 0 0 0 0 0 0 0 0 0 0 0 0 127 0" result="hardAlpha"/>
<feOffset dy="4"/>
<feGaussianBlur stdDeviation="2"/>
<feComposite in2="hardAlpha" operator="out"/>
<feColorMatrix type="matrix" values="0 0 0 0 0 0 0 0 0 0 0 0 0 0 0 0 0 0 0.25 0"/>
<feBlend mode="normal" in2="BackgroundImageFix" result="effect1_dropShadow_5_1226"/>
<feBlend mode="normal" in="SourceGraphic" in2="effect1_dropShadow_5_1226" result="shape"/>
</filter>
</defs>
</svg>
