<svg width="430" height="86" viewBox="0 0 430 86" fill="none" xmlns="http://www.w3.org/2000/svg">
<g clip-path="url(#clip0_201_3396)" filter="url(#filter0_d_201_3396)">
<g filter="url(#filter1_d_201_3396)">
<path d="M428.879 0.569336C432.243 17.9912 421.844 36.0963 407.878 44.7504C393.912 53.5182 377.193 54.6569 361.29 54.2015C345.284 53.746 329.177 51.6963 313.376 54.7708C297.881 57.7314 283.506 65.4744 268.623 71.054C253.739 76.6336 237.326 80.1635 222.442 74.4701C207.354 68.7766 196.242 54.7708 182.99 44.8642C162.295 29.3781 136.707 24.254 111.833 23.7985C86.9583 23.3431 62.1859 26.9869 37.3115 27.4423C28.9521 27.5562 20.1849 27.3285 12.743 23.1153C5.30109 18.9022 -0.713609 9.79269 0.713608 0.569336H428.879Z" fill="#30B9CA"/>
</g>
</g>
<defs>
<filter id="filter0_d_201_3396" x="-4" y="0" width="438" height="86" filterUnits="userSpaceOnUse" color-interpolation-filters="sRGB">
<feFlood flood-opacity="0" result="BackgroundImageFix"/>
<feColorMatrix in="SourceAlpha" type="matrix" values="0 0 0 0 0 0 0 0 0 0 0 0 0 0 0 0 0 0 127 0" result="hardAlpha"/>
<feOffset dy="4"/>
<feGaussianBlur stdDeviation="2"/>
<feComposite in2="hardAlpha" operator="out"/>
<feColorMatrix type="matrix" values="0 0 0 0 0 0 0 0 0 0 0 0 0 0 0 0 0 0 0.25 0"/>
<feBlend mode="normal" in2="BackgroundImageFix" result="effect1_dropShadow_201_3396"/>
<feBlend mode="normal" in="SourceGraphic" in2="effect1_dropShadow_201_3396" result="shape"/>
</filter>
<filter id="filter1_d_201_3396" x="-7.49731" y="-3.43066" width="445.013" height="92.7983" filterUnits="userSpaceOnUse" color-interpolation-filters="sRGB">
<feFlood flood-opacity="0" result="BackgroundImageFix"/>
<feColorMatrix in="SourceAlpha" type="matrix" values="0 0 0 0 0 0 0 0 0 0 0 0 0 0 0 0 0 0 127 0" result="hardAlpha"/>
<feOffset dy="4"/>
<feGaussianBlur stdDeviation="4"/>
<feComposite in2="hardAlpha" operator="out"/>
<feColorMatrix type="matrix" values="0 0 0 0 0 0 0 0 0 0 0 0 0 0 0 0 0 0 0.25 0"/>
<feBlend mode="normal" in2="BackgroundImageFix" result="effect1_dropShadow_201_3396"/>
<feBlend mode="normal" in="SourceGraphic" in2="effect1_dropShadow_201_3396" result="shape"/>
</filter>
<clipPath id="clip0_201_3396">
<rect width="430" height="78" fill="white"/>
</clipPath>
</defs>
</svg>
