<svg width="176" height="176" viewBox="0 0 176 176" fill="none" xmlns="http://www.w3.org/2000/svg">
<path fill-rule="evenodd" clip-rule="evenodd" d="M96.25 24.75C96.25 22.562 95.3808 20.4635 93.8336 18.9164C92.2865 17.3692 90.188 16.5 88 16.5C85.812 16.5 83.7135 17.3692 82.1664 18.9164C80.6192 20.4635 79.75 22.562 79.75 24.75V79.75H24.75C22.562 79.75 20.4635 80.6192 18.9164 82.1664C17.3692 83.7135 16.5 85.812 16.5 88C16.5 90.188 17.3692 92.2865 18.9164 93.8336C20.4635 95.3808 22.562 96.25 24.75 96.25H85.25C88.1674 96.25 90.9653 95.0911 93.0282 93.0282C95.0911 90.9653 96.25 88.1674 96.25 85.25V24.75ZM79.75 121C79.75 118.083 80.9089 115.285 82.9718 113.222C85.0347 111.159 87.8326 110 90.75 110H121C123.188 110 125.286 110.869 126.834 112.416C128.381 113.964 129.25 116.062 129.25 118.25C129.25 120.438 128.381 122.536 126.834 124.084C125.286 125.631 123.188 126.5 121 126.5H96.25V151.25C96.25 153.438 95.3808 155.536 93.8336 157.084C92.2865 158.631 90.188 159.5 88 159.5C85.812 159.5 83.7135 158.631 82.1664 157.084C80.6192 155.536 79.75 153.438 79.75 151.25V121ZM143 143H118.25C116.062 143 113.964 143.869 112.416 145.416C110.869 146.964 110 149.062 110 151.25C110 153.438 110.869 155.536 112.416 157.084C113.964 158.631 116.062 159.5 118.25 159.5H148.5C151.417 159.5 154.215 158.341 156.278 156.278C158.341 154.215 159.5 151.417 159.5 148.5V90.75C159.5 87.8326 158.341 85.0347 156.278 82.9718C154.215 80.9089 151.417 79.75 148.5 79.75H118.25C116.062 79.75 113.964 80.6192 112.416 82.1664C110.869 83.7135 110 85.812 110 88C110 90.188 110.869 92.2865 112.416 93.8336C113.964 95.3808 116.062 96.25 118.25 96.25H143V143ZM33 49.5V33H49.5V49.5H33ZM16.5 27.5C16.5 24.5826 17.6589 21.7847 19.7218 19.7218C21.7847 17.6589 24.5826 16.5 27.5 16.5H55C57.9174 16.5 60.7153 17.6589 62.7782 19.7218C64.8411 21.7847 66 24.5826 66 27.5V55C66 57.9174 64.8411 60.7153 62.7782 62.7782C60.7153 64.8411 57.9174 66 55 66H27.5C24.5826 66 21.7847 64.8411 19.7218 62.7782C17.6589 60.7153 16.5 57.9174 16.5 55V27.5ZM33 126.5V143H49.5V126.5H33ZM27.5 110C24.5826 110 21.7847 111.159 19.7218 113.222C17.6589 115.285 16.5 118.083 16.5 121V148.5C16.5 151.417 17.6589 154.215 19.7218 156.278C21.7847 158.341 24.5826 159.5 27.5 159.5H55C57.9174 159.5 60.7153 158.341 62.7782 156.278C64.8411 154.215 66 151.417 66 148.5V121C66 118.083 64.8411 115.285 62.7782 113.222C60.7153 111.159 57.9174 110 55 110H27.5ZM126.5 49.5V33H143V49.5H126.5ZM110 27.5C110 24.5826 111.159 21.7847 113.222 19.7218C115.285 17.6589 118.083 16.5 121 16.5H148.5C151.417 16.5 154.215 17.6589 156.278 19.7218C158.341 21.7847 159.5 24.5826 159.5 27.5V55C159.5 57.9174 158.341 60.7153 156.278 62.7782C154.215 64.8411 151.417 66 148.5 66H121C118.083 66 115.285 64.8411 113.222 62.7782C111.159 60.7153 110 57.9174 110 55V27.5Z" fill="#F8F8F8"/>
</svg>
