<svg width="78" height="65" viewBox="0 0 78 65" fill="none" xmlns="http://www.w3.org/2000/svg">
<path d="M38.7794 57.9331L38.7803 57.9321C40.4284 56.2867 41.3557 54.0536 41.3557 51.7233C41.3557 49.4067 40.4392 47.1861 38.8093 45.5436L34.6417 41.2518L64.7142 41.2518C67.0416 41.2518 69.2754 40.3291 70.9237 38.6839C72.5723 37.0385 73.5 34.8049 73.5 32.4742C73.5 30.1434 72.5723 27.9099 70.9237 26.2644C69.2754 24.6193 67.0416 23.6966 64.7142 23.6966L34.6417 23.6966L38.8293 19.3842L38.8347 19.3786C40.4361 17.7237 41.3237 15.5054 41.3037 13.2012C41.2836 10.8971 40.3575 8.69463 38.7277 7.06786L35.5487 10.2529L38.7276 7.06785C37.098 5.44135 34.8953 4.52029 32.5945 4.50033C30.2936 4.48037 28.0753 5.36309 26.4177 6.96098L26.3896 6.98812L26.3619 7.01574L7.07589 26.2649L7.07541 26.2654C5.42738 27.9107 4.5 30.1439 4.5 32.4742C4.5 34.8045 5.42738 37.0376 7.0754 38.683L7.07589 38.6834L26.3619 57.9326L26.3624 57.9331C28.0106 59.5777 30.244 60.5 32.5709 60.5C34.8978 60.5 37.1311 59.5777 38.7794 57.9331Z" fill="#0250A3" stroke="white" stroke-width="9"/>
</svg>
