<svg width="78" height="65" viewBox="0 0 78 65" fill="none" xmlns="http://www.w3.org/2000/svg">
<path d="M39.2206 7.06692L39.2197 7.06787C37.5716 8.71325 36.6443 10.9464 36.6443 13.2767C36.6443 15.5933 37.5608 17.8139 39.1907 19.4564L43.3583 23.7482H13.2858C10.9584 23.7482 8.72465 24.6709 7.07634 26.3161C5.42774 27.9615 4.5 30.1951 4.5 32.5258C4.5 34.8566 5.42774 37.0901 7.07634 38.7356C8.72465 40.3807 10.9584 41.3034 13.2858 41.3034H43.3583L39.1707 45.6158L39.1653 45.6214C37.5639 47.2763 36.6763 49.4945 36.6963 51.7988C36.7164 54.1029 37.6425 56.3054 39.2723 57.9321L42.4513 54.7471L39.2724 57.9322C40.902 59.5586 43.1047 60.4797 45.4055 60.4997C47.7064 60.5196 49.9247 59.6369 51.5823 58.039L51.6104 58.0119L51.6381 57.9843L70.9241 38.7351L70.9246 38.7346C72.5726 37.0892 73.5 34.8561 73.5 32.5258C73.5 30.1955 72.5726 27.9624 70.9246 26.317L70.9241 26.3165L51.6381 7.0674L51.6376 7.06692C49.9894 5.42233 47.756 4.5 45.4291 4.5C43.1022 4.5 40.8689 5.42233 39.2206 7.06692Z" fill="#0250A3" stroke="white" stroke-width="9"/>
</svg>
