<svg width="59" height="61" viewBox="0 0 59 61" fill="none" xmlns="http://www.w3.org/2000/svg">
<g filter="url(#filter0_d_51_441)">
<path d="M53.686 28.1104L30.758 5.19905C30.5929 5.03364 30.3968 4.90241 30.1809 4.81287C29.9651 4.72333 29.7337 4.67725 29.5 4.67725C29.2663 4.67725 29.0349 4.72333 28.819 4.81287C28.6031 4.90241 28.4071 5.03364 28.242 5.19905L5.31394 28.1104C4.64597 28.7783 4.26746 29.6857 4.26746 30.632C4.26746 32.5969 5.86501 34.1945 7.82996 34.1945H10.2458V50.543C10.2458 51.5283 11.0418 52.3242 12.027 52.3242H25.9375V39.8555H32.1719V52.3242H46.9729C47.9582 52.3242 48.7542 51.5283 48.7542 50.543V34.1945H51.17C52.1163 34.1945 53.0236 33.8215 53.6916 33.148C55.0776 31.7564 55.0776 29.502 53.686 28.1104Z" fill="#F8F8F8"/>
</g>
<defs>
<filter id="filter0_d_51_441" x="-3" y="0" width="65" height="65" filterUnits="userSpaceOnUse" color-interpolation-filters="sRGB">
<feFlood flood-opacity="0" result="BackgroundImageFix"/>
<feColorMatrix in="SourceAlpha" type="matrix" values="0 0 0 0 0 0 0 0 0 0 0 0 0 0 0 0 0 0 127 0" result="hardAlpha"/>
<feOffset dy="4"/>
<feGaussianBlur stdDeviation="2"/>
<feComposite in2="hardAlpha" operator="out"/>
<feColorMatrix type="matrix" values="0 0 0 0 0 0 0 0 0 0 0 0 0 0 0 0 0 0 0.25 0"/>
<feBlend mode="normal" in2="BackgroundImageFix" result="effect1_dropShadow_51_441"/>
<feBlend mode="normal" in="SourceGraphic" in2="effect1_dropShadow_51_441" result="shape"/>
</filter>
</defs>
</svg>
