<svg width="430" height="86" viewBox="0 0 430 86" fill="none" xmlns="http://www.w3.org/2000/svg">
<g clip-path="url(#clip0_51_10)" filter="url(#filter0_f_51_10)">
<g filter="url(#filter1_d_51_10)">
<path d="M428.376 9C431.74 24.635 421.342 40.8832 407.375 48.6496C393.409 56.5182 376.69 57.5401 360.787 57.1314C344.782 56.7226 328.675 54.8832 312.873 57.6423C297.378 60.2993 283.004 67.2482 268.12 72.2555C253.236 77.2628 236.823 80.4307 221.939 75.3212C206.852 70.2117 195.74 57.6423 182.487 48.7518C161.792 34.854 136.204 30.2555 111.33 29.8467C86.4556 29.438 61.6832 32.708 36.8088 33.1168C28.4494 33.219 19.6822 33.0146 12.2403 29.2336C4.7984 25.4526 -1.21629 17.2774 0.210922 9H428.376Z" fill="url(#paint0_linear_51_10)"/>
</g>
<path d="M250.89 62.3806C257.305 54.041 253.438 37.0923 246.061 30.33C239.934 24.7134 232.742 21.0742 232.742 11.7576" stroke="white" stroke-width="3" stroke-linecap="round"/>
<path d="M211.729 49.0086C211.729 46.3569 211.145 42.4417 212.684 40.0938C213.667 38.5932 216.906 38.6241 218.415 37.5467C222.328 34.7514 223.868 31.9345 225.525 27.1993C227.391 21.8677 227.011 16.4498 227.011 10.8025" stroke="white" stroke-width="3" stroke-linecap="round"/>
<path d="M250.89 31.8158C259.492 31.4717 267.961 30.285 272.646 22.4766C274.491 19.4014 276.07 16.4578 278.377 13.6679C281.493 9.89934 284.694 10.8025 289.414 10.8025C291.92 10.8025 295.348 10.214 297.692 11.3862C300.1 12.5899 301.262 15.2327 303.423 16.7457C306.732 19.0621 307.968 23.1254 312.179 24.5991C317.262 26.3782 323.028 25.7317 328.31 26.138C332.878 26.4893 333.033 29.855 333.033 33.7261C333.033 39.7754 333.033 45.8247 333.033 51.874" stroke="white" stroke-width="3" stroke-linecap="round"/>
<path d="M335.898 29.9055C339.931 29.9055 343.964 29.9055 347.997 29.9055C352.938 29.9055 365.665 31.9764 369.753 29.3749C372.002 27.944 372.827 25.5888 375.696 25.1297C381.54 24.1948 387.279 21.4694 393.207 21.3091C397.841 21.1839 396.073 28.2772 396.073 31.8158" stroke="white" stroke-width="3" stroke-linecap="round"/>
<path d="M311.064 21.3091C323.583 21.3091 335.825 16.5333 348.528 16.5333C355.461 16.5333 362.395 16.5333 369.329 16.5333" stroke="white" stroke-width="3" stroke-linecap="round"/>
<path d="M289.096 58.56C289.498 54.9376 293.239 51.9813 294.084 48.2656C294.995 44.2584 294.827 40.3805 294.827 36.2731C294.827 31.1433 290.017 20.8143 285.275 18.4436" stroke="white" stroke-width="3" stroke-linecap="round"/>
<path d="M163.971 24.1746C166.798 21.662 172.638 23.8937 175.539 24.9175C179.128 26.1843 182.405 26.0849 186.152 26.0849C197.224 26.0849 208.297 26.0849 219.37 26.0849" stroke="white" stroke-width="3" stroke-linecap="round"/>
<path d="M143.913 23.2194C141.341 15.5025 130.886 15.5135 124.598 14.623C118.215 13.7193 112.305 11.8853 106.078 10.8024C104.008 10.4424 100.085 8.98565 98.1186 10.1657C94.2198 12.5049 94.9338 19.5696 91.9101 22.7949C88.2476 26.7016 75.4353 27.04 70.3661 27.04" stroke="white" stroke-width="3" stroke-linecap="round"/>
<path d="M20.6982 26.0848C29.1099 26.0848 28.317 13.6678 36.9358 13.6678C44.6832 13.6678 52.4305 13.6678 60.1778 13.6678C64.9165 13.6678 69.3869 12.8826 73.9745 12.7127C80.3437 12.4768 85.57 8.89209 92.3346 8.89209" stroke="white" stroke-width="3" stroke-linecap="round"/>
<path d="M159.195 20.3539C151.725 21.101 143.606 24.9609 136.908 19.3988C133.315 16.4141 134.839 10.8024 139.668 10.8024C142.406 10.8024 145.55 10.3619 148.264 10.8555C150.775 11.3119 152.316 13.857 154.844 14.4638C157.661 15.1399 158.332 14.1089 160.15 16.5333" stroke="white" stroke-width="3" stroke-linecap="round"/>
<path d="M291.961 41.3672C291.961 34.3584 289.961 29.1959 287.398 22.6887C285.178 17.053 283.571 15.1521 277.634 13.6678" stroke="white" stroke-width="3" stroke-linecap="round"/>
</g>
<defs>
<filter id="filter0_f_51_10" x="-7.3" y="0.7" width="444.6" height="84.6" filterUnits="userSpaceOnUse" color-interpolation-filters="sRGB">
<feFlood flood-opacity="0" result="BackgroundImageFix"/>
<feBlend mode="normal" in="SourceGraphic" in2="BackgroundImageFix" result="shape"/>
<feGaussianBlur stdDeviation="3.65" result="effect1_foregroundBlur_51_10"/>
</filter>
<filter id="filter1_d_51_10" x="-4" y="9" width="437.013" height="76.9216" filterUnits="userSpaceOnUse" color-interpolation-filters="sRGB">
<feFlood flood-opacity="0" result="BackgroundImageFix"/>
<feColorMatrix in="SourceAlpha" type="matrix" values="0 0 0 0 0 0 0 0 0 0 0 0 0 0 0 0 0 0 127 0" result="hardAlpha"/>
<feOffset dy="4"/>
<feGaussianBlur stdDeviation="2"/>
<feComposite in2="hardAlpha" operator="out"/>
<feColorMatrix type="matrix" values="0 0 0 0 0 0 0 0 0 0 0 0 0 0 0 0 0 0 0.25 0"/>
<feBlend mode="normal" in2="BackgroundImageFix" result="effect1_dropShadow_51_10"/>
<feBlend mode="normal" in="SourceGraphic" in2="effect1_dropShadow_51_10" result="shape"/>
</filter>
<linearGradient id="paint0_linear_51_10" x1="248" y1="112" x2="248" y2="15" gradientUnits="userSpaceOnUse">
<stop stop-color="#9CE0E9"/>
<stop offset="0.611673" stop-color="#6ACEDA"/>
<stop offset="1" stop-color="#30B9CA"/>
</linearGradient>
<clipPath id="clip0_51_10">
<rect width="430" height="70" fill="white" transform="translate(0 8)"/>
</clipPath>
</defs>
</svg>
