<svg width="430" height="206" viewBox="0 0 430 206" fill="none" xmlns="http://www.w3.org/2000/svg">
<g clip-path="url(#clip0_51_89)">
<path d="M106.75 58.5857H-2L20.8305 8.86606C23.2704 3.65071 28.4988 0.347656 34.25 0.347656H72.2428C77.994 0.347656 83.2224 3.82456 85.488 9.0399L106.75 58.5857Z" fill="#772F07"/>
<g opacity="0.5">
<path d="M87.5793 58.5857L69.8029 1.21681C68.0601 1.04297 65.4459 1.39066 64.5745 1.5645L76.5998 58.5857C80.2596 58.4118 83.9195 58.5857 87.5793 58.5857Z" stroke="#350101" stroke-miterlimit="10"/>
<path d="M31.2873 58.2379C33.5529 39.115 35.9928 20.1659 38.2584 1.04296C38.2584 0.695267 32.6815 1.04296 32.333 1.04296C31.2873 1.2168 30.2416 1.56449 29.3702 1.91218C28.3246 2.25987 28.4988 3.30294 28.3246 4.34601C27.2789 8.69213 26.2332 13.2121 25.1875 17.5582C23.0962 26.4243 21.0048 35.1166 18.9135 43.9827C17.6935 48.8503 16.6479 53.718 15.4279 58.5856C17.5193 58.7595 28.3246 58.5856 31.2873 58.2379Z" stroke="#350101" stroke-miterlimit="10"/>
<path d="M51.3293 57.8903C55.512 57.3687 59.6947 57.3687 63.8774 57.5426L58.3005 0.869141C55.3377 0.869141 52.375 0.869141 49.4123 0.869141L45.5781 58.238C47.4952 58.238 49.4123 58.0641 51.3293 57.8903Z" stroke="#350101" stroke-miterlimit="10"/>
<path d="M22.399 6.25837C27.1046 6.25837 24.839 11.4737 29.5445 11.4737C34.25 11.4737 34.25 5.56299 38.9555 5.56299C43.6611 5.56299 43.6611 11.4737 48.3666 11.4737C53.0721 11.4737 53.0721 5.56299 57.7776 5.56299C62.4832 5.56299 62.4832 11.4737 67.1887 11.4737C71.8942 11.4737 71.8942 5.56299 76.5998 5.56299C81.3053 5.56299 81.3053 11.4737 86.0108 11.4737" stroke="#350101" stroke-miterlimit="10"/>
<path d="M18.3906 14.2552C23.9675 14.2552 21.7019 20.5136 27.1046 20.5136C32.6815 20.5136 32.6815 13.7336 38.2584 13.7336C43.8353 13.7336 43.8353 20.5136 49.4123 20.5136C54.9892 20.5136 54.9892 13.7336 60.5661 13.7336C66.143 13.7336 66.143 20.5136 71.7199 20.5136C77.2969 20.5136 77.2969 13.7336 82.8738 13.7336C88.4507 13.7336 84.9651 20.5136 90.5421 20.5136" stroke="#350101" stroke-miterlimit="10"/>
<path d="M15.2536 22.9475C21.0048 22.9475 19.9591 30.0752 25.8846 30.0752C31.6358 30.0752 31.6358 22.9475 37.5613 22.9475C43.3125 22.9475 43.3125 30.0752 49.238 30.0752C54.9892 30.0752 54.9892 22.9475 60.9147 22.9475C66.6659 22.9475 66.6659 30.0752 72.5913 30.0752C78.3425 30.0752 78.3425 22.9475 84.268 22.9475C90.0192 22.9475 88.7993 29.7275 94.7247 29.7275" stroke="#350101" stroke-miterlimit="10"/>
<path d="M11.2452 30.0751C17.5192 30.0751 16.4735 37.7243 22.7476 37.7243C29.0216 37.7243 29.0216 29.9012 35.4699 29.9012C41.744 29.9012 41.744 37.7243 48.1923 37.7243C54.4663 37.7243 54.4663 29.9012 60.9146 29.9012C67.1887 29.9012 67.1887 37.7243 73.637 37.7243C79.911 37.7243 79.911 29.9012 86.3594 29.9012C92.6334 29.9012 91.4134 37.5504 97.8618 37.5504" stroke="#350101" stroke-miterlimit="10"/>
<path d="M7.23676 38.4197C14.3822 38.4197 10.0252 47.1119 16.9964 47.1119C24.1418 47.1119 24.1418 38.4197 31.113 38.4197C38.2584 38.4197 38.2584 47.1119 45.2295 47.1119C52.375 47.1119 52.375 38.4197 59.3461 38.4197C66.4916 38.4197 66.4916 47.1119 73.4627 47.1119C80.6081 47.1119 80.6082 38.4197 87.5793 38.4197C94.5505 38.4197 92.6334 44.3304 99.7788 44.3304" stroke="#350101" stroke-miterlimit="10"/>
<path d="M3.40265 47.112C10.8966 47.112 9.50241 56.1519 16.9964 56.1519C24.4904 56.1519 24.4904 46.9381 31.9844 46.9381C39.4784 46.9381 39.4784 56.1519 46.9724 56.1519C54.4664 56.1519 54.4664 46.9381 61.9603 46.9381C69.4543 46.9381 69.4543 56.1519 76.9483 56.1519C84.4423 56.1519 84.4423 46.9381 91.9363 46.9381C99.4303 46.9381 97.3389 55.978 104.833 55.978" stroke="#350101" stroke-miterlimit="10"/>
</g>
<path d="M106.75 58.5857H-2V222H106.75V58.5857Z" fill="#008B47"/>
<path d="M106.75 58.5857H-2V70.2333H106.75V58.5857Z" fill="#1DC03A"/>
<path d="M18.3906 77.5348H3.40265V215.394H18.3906V77.5348Z" fill="#1DC03A"/>
<path d="M59.869 77.5348H44.881V215.394H59.869V77.5348Z" fill="#1DC03A"/>
<path d="M101.696 77.5348H86.7079V215.394H101.696V77.5348Z" fill="#1DC03A"/>
<path d="M41.2211 97.0055H21.8762C20.482 97.0055 19.4363 95.9624 19.4363 94.5716V93.3547C19.4363 91.964 20.482 90.9209 21.8762 90.9209H41.2211C42.6154 90.9209 43.661 91.964 43.661 93.3547V94.5716C43.661 95.7886 42.6154 97.0055 41.2211 97.0055Z" fill="#FFDD2E"/>
<path d="M42.964 215.394H20.1334V113.521C20.1334 107.089 25.3618 102.047 31.6358 102.047C37.9099 102.047 42.964 107.088 42.964 113.347V215.394Z" fill="black"/>
<path d="M42.964 141.684V215.394H20.1334V141.684C20.1334 140.293 20.8305 139.076 21.8762 138.207C21.8762 138.207 22.0505 138.033 22.2248 138.033C22.2248 138.033 22.399 138.033 22.399 137.859C24.3161 136.816 24.4904 135.947 26.2332 134.208C27.2789 132.47 29.1959 131.253 31.4615 131.253C33.7272 131.253 35.6442 132.47 36.6899 134.208C38.4327 135.947 38.607 136.816 40.6983 137.859C40.8726 138.033 41.0469 138.033 41.0469 138.033C42.2668 139.076 42.964 140.293 42.964 141.684Z" fill="#FFDD2E"/>
<path d="M30.9387 160.111H22.9219V144.987C22.9219 141.336 25.8846 138.381 29.5445 138.381C30.4159 138.381 30.9387 139.076 30.9387 139.771V160.111Z" fill="black"/>
<path d="M32.1587 160.111H40.1755V144.987C40.1755 141.336 37.2128 138.381 33.5529 138.381C32.6815 138.381 32.1587 139.076 32.1587 139.771V160.111Z" fill="black"/>
<path d="M30.9387 161.85H22.9219V186.362H30.9387V161.85Z" fill="black"/>
<path d="M40.1755 161.85H32.1587V186.362H40.1755V161.85Z" fill="black"/>
<path d="M30.9387 187.926H22.9219V212.091H30.9387V187.926Z" fill="black"/>
<path d="M40.1755 187.926H32.1587V212.091H40.1755V187.926Z" fill="black"/>
<g opacity="0.5">
<path d="M28.1094 143.619L27.863 143.373L23.9195 147.307L24.166 147.553L28.1094 143.619Z" fill="white"/>
</g>
<g opacity="0.5">
<path d="M28.2123 146.269L27.9659 146.023L24.0224 149.957L24.2689 150.203L28.2123 146.269Z" fill="white"/>
</g>
<g opacity="0.5">
<path d="M37.895 148.862L37.6485 148.616L33.7051 152.55L33.9515 152.795L37.895 148.862Z" fill="white"/>
</g>
<g opacity="0.5">
<path d="M37.8746 151.635L37.6282 151.389L33.6847 155.323L33.9312 155.569L37.8746 151.635Z" fill="white"/>
</g>
<g opacity="0.5">
<path d="M28.5598 168.191L28.3134 167.945L24.3699 171.879L24.6164 172.124L28.5598 168.191Z" fill="white"/>
</g>
<g opacity="0.5">
<path d="M28.5395 170.964L28.293 170.718L24.3496 174.652L24.5961 174.897L28.5395 170.964Z" fill="white"/>
</g>
<g opacity="0.5">
<path d="M38.2221 173.556L37.9756 173.311L34.0322 177.244L34.2787 177.49L38.2221 173.556Z" fill="white"/>
</g>
<g opacity="0.5">
<path d="M38.2018 176.329L37.9553 176.083L34.0119 180.017L34.2584 180.263L38.2018 176.329Z" fill="white"/>
</g>
<g opacity="0.5">
<path d="M28.2273 190.071L27.9808 189.826L24.0374 193.759L24.2839 194.005L28.2273 190.071Z" fill="white"/>
</g>
<g opacity="0.5">
<path d="M28.207 192.845L27.9606 192.599L24.0171 196.532L24.2636 196.778L28.207 192.845Z" fill="white"/>
</g>
<g opacity="0.5">
<path d="M37.8896 195.437L37.6431 195.191L33.6997 199.125L33.9462 199.371L37.8896 195.437Z" fill="white"/>
</g>
<g opacity="0.5">
<path d="M37.8693 198.21L37.6228 197.964L33.6794 201.898L33.9258 202.144L37.8693 198.21Z" fill="white"/>
</g>
<path d="M83.0481 93.8762H63.8774V207.745H83.0481V93.8762Z" fill="black"/>
<g opacity="0.7">
<path d="M64.7488 93.8762H63.006V207.745H64.7488V93.8762Z" fill="white"/>
</g>
<g opacity="0.7">
<path d="M69.6286 94.3977H67.8858V207.918H69.6286V94.3977Z" fill="white"/>
</g>
<g opacity="0.7">
<path d="M74.1598 93.8762H72.4171V207.745H74.1598V93.8762Z" fill="white"/>
</g>
<g opacity="0.7">
<path d="M79.2139 94.05H77.4711V207.571H79.2139V94.05Z" fill="white"/>
</g>
<g opacity="0.7">
<path d="M83.9194 93.8762H82.1766V207.745H83.9194V93.8762Z" fill="white"/>
</g>
<path d="M83.0481 97.0055H63.7032C62.3089 97.0055 61.2632 95.9624 61.2632 94.5716V93.3547C61.2632 91.964 62.3089 90.9209 63.7032 90.9209H83.0481C84.4423 90.9209 85.488 91.964 85.488 93.3547V94.5716C85.488 95.7886 84.4423 97.0055 83.0481 97.0055Z" fill="#FFDD2E"/>
<path d="M83.0481 158.547H63.7032C62.3089 158.547 61.2632 157.504 61.2632 156.113V154.896C61.2632 153.505 62.3089 152.462 63.7032 152.462H83.0481C84.4423 152.462 85.488 153.505 85.488 154.896V156.113C85.488 157.33 84.4423 158.547 83.0481 158.547Z" fill="#FFDD2E"/>
<path d="M324.25 58.5857H215.5V222H324.25V58.5857Z" fill="#0B0073"/>
<path d="M324.25 58.5857H215.5L238.331 8.86606C240.77 3.65071 245.999 0.347656 251.75 0.347656H289.743C295.494 0.347656 300.722 3.82456 302.988 9.0399L324.25 58.5857Z" fill="#772F07"/>
<g opacity="0.5">
<path d="M305.079 58.5857L287.303 1.21681C285.56 1.04297 282.946 1.39066 282.075 1.5645L294.1 58.5857C297.76 58.4118 301.419 58.5857 305.079 58.5857Z" stroke="#350101" stroke-miterlimit="10"/>
<path d="M248.787 58.2379C251.053 39.115 253.493 20.1659 255.758 1.04296C255.758 0.695267 250.182 1.04296 249.833 1.04296C248.787 1.2168 247.742 1.56449 246.87 1.91218C245.825 2.25987 245.999 3.30294 245.825 4.34601C244.779 8.69213 243.733 13.2121 242.688 17.5582C240.596 26.4243 238.505 35.1166 236.413 43.9827C235.194 48.8503 234.148 53.718 232.928 58.5856C235.019 58.7595 245.65 58.5856 248.787 58.2379Z" stroke="#350101" stroke-miterlimit="10"/>
<path d="M268.829 57.8903C273.012 57.3687 277.195 57.3687 281.377 57.5426L275.8 0.869141C272.838 0.869141 269.875 0.869141 266.912 0.869141L263.078 58.238C264.995 58.238 266.912 58.0641 268.829 57.8903Z" stroke="#350101" stroke-miterlimit="10"/>
<path d="M239.899 6.25837C244.605 6.25837 242.339 11.4737 247.044 11.4737C251.75 11.4737 251.75 5.56299 256.456 5.56299C261.161 5.56299 261.161 11.4737 265.867 11.4737C270.572 11.4737 270.572 5.56299 275.278 5.56299C279.983 5.56299 279.983 11.4737 284.689 11.4737C289.394 11.4737 289.394 5.56299 294.1 5.56299C298.805 5.56299 298.805 11.4737 303.511 11.4737" stroke="#350101" stroke-miterlimit="10"/>
<path d="M235.891 14.2552C241.468 14.2552 239.202 20.5136 244.605 20.5136C250.181 20.5136 250.181 13.7336 255.758 13.7336C261.335 13.7336 261.335 20.5136 266.912 20.5136C272.489 20.5136 272.489 13.7336 278.066 13.7336C283.643 13.7336 283.643 20.5136 289.22 20.5136C294.797 20.5136 294.797 13.7336 300.374 13.7336C305.951 13.7336 302.465 20.5136 308.042 20.5136" stroke="#350101" stroke-miterlimit="10"/>
<path d="M232.579 22.9475C238.331 22.9475 237.285 30.0752 243.21 30.0752C248.962 30.0752 248.962 22.9475 254.887 22.9475C260.638 22.9475 260.638 30.0752 266.564 30.0752C272.315 30.0752 272.315 22.9475 278.24 22.9475C283.992 22.9475 283.992 30.0752 289.917 30.0752C295.668 30.0752 295.668 22.9475 301.594 22.9475C307.345 22.9475 306.125 29.7275 312.05 29.7275" stroke="#350101" stroke-miterlimit="10"/>
<path d="M228.745 29.9013C235.019 29.9013 233.974 37.5504 240.248 37.5504C246.522 37.5504 246.522 29.7274 252.97 29.7274C259.244 29.7274 259.244 37.5504 265.692 37.5504C271.966 37.5504 271.966 29.7274 278.415 29.7274C284.689 29.7274 284.689 37.5504 291.137 37.5504C297.411 37.5504 297.411 29.7274 303.859 29.7274C310.308 29.7274 308.913 37.3766 315.362 37.3766" stroke="#350101" stroke-miterlimit="10"/>
<path d="M224.737 38.4197C231.882 38.4197 227.525 47.1119 234.496 47.1119C241.642 47.1119 241.642 38.4197 248.613 38.4197C255.758 38.4197 255.758 47.1119 262.73 47.1119C269.875 47.1119 269.875 38.4197 276.846 38.4197C283.992 38.4197 283.992 47.1119 290.963 47.1119C298.108 47.1119 298.108 38.4197 305.079 38.4197C312.051 38.4197 310.133 44.3304 317.279 44.3304" stroke="#350101" stroke-miterlimit="10"/>
<path d="M220.903 47.112C228.397 47.112 227.002 56.1519 234.496 56.1519C241.99 56.1519 241.99 46.9381 249.484 46.9381C256.978 46.9381 256.978 56.1519 264.472 56.1519C271.966 56.1519 271.966 46.9381 279.46 46.9381C286.954 46.9381 286.954 56.1519 294.448 56.1519C301.942 56.1519 301.942 46.9381 309.436 46.9381C316.93 46.9381 314.839 55.978 322.333 55.978" stroke="#350101" stroke-miterlimit="10"/>
</g>
<path d="M324.25 58.5857H215.5V70.2333H324.25V58.5857Z" fill="#1DC0B8"/>
<path d="M235.542 77.5348H220.554V215.394H235.542V77.5348Z" fill="#1DC0B8"/>
<path d="M277.02 77.5348H262.032V215.394H277.02V77.5348Z" fill="#1DC0B8"/>
<path d="M319.022 77.5348H304.034V215.394H319.022V77.5348Z" fill="#1DC0B8"/>
<path d="M258.373 97.0055H239.028C237.633 97.0055 236.588 95.9624 236.588 94.5716V93.3547C236.588 91.964 237.633 90.9209 239.028 90.9209H258.373C259.767 90.9209 260.812 91.964 260.812 93.3547V94.5716C260.812 95.7886 259.767 97.0055 258.373 97.0055Z" fill="#1DC03A"/>
<path d="M260.464 215.22H237.633V113.347C237.633 106.915 242.862 101.873 249.136 101.873C255.41 101.873 260.464 106.915 260.464 113.173V215.22Z" fill="black"/>
<path d="M260.464 141.51V215.22H237.633V141.51C237.633 140.119 238.331 138.902 239.376 138.033C239.376 138.033 239.55 137.859 239.725 137.859C239.725 137.859 239.899 137.859 239.899 137.685C241.816 136.642 241.99 135.773 243.733 134.034C244.779 132.296 246.696 131.079 248.962 131.079C251.227 131.079 253.144 132.296 254.19 134.034C255.933 135.773 256.107 136.642 258.198 137.685C258.373 137.859 258.547 137.859 258.547 137.859C259.767 138.902 260.464 140.119 260.464 141.51Z" fill="#1DC03A"/>
<path d="M248.439 159.937H240.422V144.813C240.422 141.162 243.385 138.207 247.044 138.207C247.916 138.207 248.439 138.902 248.439 139.597V159.937Z" fill="black"/>
<path d="M249.659 159.937H257.675V144.813C257.675 141.162 254.713 138.207 251.053 138.207C250.181 138.207 249.659 138.902 249.659 139.597V159.937Z" fill="black"/>
<path d="M248.439 161.676H240.422V186.188H248.439V161.676Z" fill="black"/>
<path d="M257.675 161.676H249.659V186.188H257.675V161.676Z" fill="black"/>
<path d="M248.439 187.752H240.422V211.917H248.439V187.752Z" fill="black"/>
<path d="M257.675 187.752H249.659V211.917H257.675V187.752Z" fill="black"/>
<g opacity="0.5">
<path d="M245.616 143.433L245.369 143.187L241.426 147.121L241.672 147.367L245.616 143.433Z" fill="white"/>
</g>
<g opacity="0.5">
<path d="M245.719 146.083L245.472 145.838L241.529 149.771L241.775 150.017L245.719 146.083Z" fill="white"/>
</g>
<g opacity="0.5">
<path d="M255.401 148.676L255.155 148.43L251.211 152.364L251.458 152.61L255.401 148.676Z" fill="white"/>
</g>
<g opacity="0.5">
<path d="M255.381 151.449L255.134 151.203L251.191 155.137L251.437 155.383L255.381 151.449Z" fill="white"/>
</g>
<g opacity="0.5">
<path d="M246.066 168.005L245.819 167.759L241.876 171.693L242.122 171.939L246.066 168.005Z" fill="white"/>
</g>
<g opacity="0.5">
<path d="M246.046 170.778L245.799 170.532L241.856 174.466L242.102 174.712L246.046 170.778Z" fill="white"/>
</g>
<g opacity="0.5">
<path d="M255.728 173.371L255.482 173.125L251.538 177.058L251.785 177.304L255.728 173.371Z" fill="white"/>
</g>
<g opacity="0.5">
<path d="M255.708 176.144L255.461 175.898L251.518 179.831L251.764 180.077L255.708 176.144Z" fill="white"/>
</g>
<g opacity="0.5">
<path d="M245.733 189.886L245.487 189.64L241.543 193.573L241.79 193.819L245.733 189.886Z" fill="white"/>
</g>
<g opacity="0.5">
<path d="M245.713 192.659L245.467 192.413L241.523 196.346L241.77 196.592L245.713 192.659Z" fill="white"/>
</g>
<g opacity="0.5">
<path d="M255.396 195.251L255.149 195.005L251.206 198.939L251.452 199.185L255.396 195.251Z" fill="white"/>
</g>
<g opacity="0.5">
<path d="M255.376 198.024L255.129 197.779L251.186 201.712L251.432 201.958L255.376 198.024Z" fill="white"/>
</g>
<path d="M300.025 93.1809H280.855V207.049H300.025V93.1809Z" fill="black"/>
<path d="M302.639 207.919V209.135C302.639 210.526 301.594 211.569 300.199 211.569V212.96C300.199 214.003 299.328 214.699 298.457 214.699H282.772C281.726 214.699 281.029 213.829 281.029 212.96V211.569C279.635 211.569 278.589 210.526 278.589 209.135V207.919C278.589 206.528 279.635 205.485 281.029 205.485H300.374C301.594 205.485 302.639 206.528 302.639 207.919Z" fill="#1DC03A"/>
<g opacity="0.7">
<path d="M281.726 93.5286H279.983V207.397H281.726V93.5286Z" fill="white"/>
</g>
<g opacity="0.7">
<path d="M286.78 94.05H285.037V207.571H286.78V94.05Z" fill="white"/>
</g>
<g opacity="0.7">
<path d="M291.311 93.5286H289.568V207.397H291.311V93.5286Z" fill="white"/>
</g>
<g opacity="0.7">
<path d="M296.365 93.7024H294.623V207.223H296.365V93.7024Z" fill="white"/>
</g>
<g opacity="0.7">
<path d="M301.071 93.5286H299.328V207.397H301.071V93.5286Z" fill="white"/>
</g>
<path d="M300.2 97.0055H280.855C279.46 97.0055 278.415 95.9624 278.415 94.5716V93.3547C278.415 91.964 279.46 90.9209 280.855 90.9209H300.2C301.594 90.9209 302.639 91.964 302.639 93.3547V94.5716C302.639 95.7886 301.594 97.0055 300.2 97.0055Z" fill="#1DC03A"/>
<path d="M300.2 158.025H280.855C279.46 158.025 278.415 156.982 278.415 155.591V154.374C278.415 152.984 279.46 151.94 280.855 151.94H300.2C301.594 151.94 302.639 152.984 302.639 154.374V155.591C302.639 156.982 301.594 158.025 300.2 158.025Z" fill="#1DC03A"/>
<path d="M215.5 102.395H106.75V222H215.5V102.395Z" fill="#FFDD2E"/>
<path d="M215.5 102.221H106.75L129.581 52.5012C132.02 47.2858 137.249 43.9828 143 43.9828H180.993C186.744 43.9828 191.972 47.4597 194.238 52.675L215.5 102.221Z" fill="#772F07"/>
<g opacity="0.5">
<path d="M196.329 102.221L178.553 44.8521C176.81 44.6782 174.196 45.0259 173.325 45.1998L185.35 102.221C189.01 102.221 192.669 102.221 196.329 102.221Z" stroke="#350101" stroke-miterlimit="10"/>
<path d="M140.037 102.047C142.303 82.9241 144.743 63.975 147.008 44.852C147.008 44.5043 141.432 44.852 141.083 44.852C140.037 45.0259 138.992 45.3736 138.12 45.7213C137.075 46.069 137.249 47.112 137.075 48.1551C136.029 52.5012 134.983 57.0212 133.938 61.3673C131.846 70.2334 129.755 78.9257 127.663 87.7917C126.444 92.6594 125.398 97.5271 124.178 102.395C126.269 102.395 136.9 102.221 140.037 102.047Z" stroke="#350101" stroke-miterlimit="10"/>
<path d="M160.079 101.526C164.262 101.004 168.445 101.004 172.627 101.178L167.05 44.6782C164.088 44.6782 161.125 44.6782 158.162 44.6782L154.328 102.047C156.245 101.873 158.162 101.873 160.079 101.526Z" stroke="#350101" stroke-miterlimit="10"/>
<path d="M131.149 50.0674C135.855 50.0674 133.589 55.2828 138.294 55.2828C143 55.2828 143 49.3721 147.706 49.3721C152.411 49.3721 152.411 55.2828 157.117 55.2828C161.822 55.2828 161.822 49.3721 166.528 49.3721C171.233 49.3721 171.233 55.2828 175.939 55.2828C180.644 55.2828 180.644 49.3721 185.35 49.3721C190.055 49.3721 190.055 55.2828 194.761 55.2828" stroke="#350101" stroke-miterlimit="10"/>
<path d="M127.141 57.8904C132.718 57.8904 130.452 64.1489 135.855 64.1489C141.431 64.1489 141.431 57.3689 147.008 57.3689C152.585 57.3689 152.585 64.1489 158.162 64.1489C163.739 64.1489 163.739 57.3689 169.316 57.3689C174.893 57.3689 174.893 64.1489 180.47 64.1489C186.047 64.1489 186.047 57.3689 191.624 57.3689C197.201 57.3689 193.715 64.1489 199.292 64.1489" stroke="#350101" stroke-miterlimit="10"/>
<path d="M123.829 66.5826C129.581 66.5826 128.535 73.7103 134.46 73.7103C140.212 73.7103 140.212 66.5826 146.137 66.5826C151.888 66.5826 151.888 73.7103 157.814 73.7103C163.565 73.7103 163.565 66.5826 169.49 66.5826C175.242 66.5826 175.242 73.7103 181.167 73.7103C186.918 73.7103 186.918 66.5826 192.844 66.5826C198.769 66.5826 197.375 73.3626 203.301 73.3626" stroke="#350101" stroke-miterlimit="10"/>
<path d="M119.995 73.7103C126.269 73.7103 125.224 81.3595 131.498 81.3595C137.772 81.3595 137.772 73.5365 144.22 73.5365C150.494 73.5365 150.494 81.3595 156.942 81.3595C163.216 81.3595 163.216 73.5365 169.665 73.5365C175.939 73.5365 175.939 81.3595 182.387 81.3595C188.661 81.3595 188.661 73.5365 195.109 73.5365C201.383 73.5365 200.163 81.1857 206.612 81.1857" stroke="#350101" stroke-miterlimit="10"/>
<path d="M115.987 82.2288C123.132 82.2288 118.775 90.921 125.746 90.921C132.892 90.921 132.892 82.2288 139.863 82.2288C147.008 82.2288 147.008 90.921 153.98 90.921C161.125 90.921 161.125 82.2288 168.096 82.2288C175.242 82.2288 175.242 90.921 182.213 90.921C189.358 90.921 189.358 82.2288 196.329 82.2288C203.3 82.2288 201.383 88.1395 208.529 88.1395" stroke="#350101" stroke-miterlimit="10"/>
<path d="M112.153 90.921C119.647 90.921 118.252 99.961 125.746 99.961C133.24 99.961 133.24 90.7472 140.734 90.7472C148.228 90.7472 148.228 99.961 155.722 99.961C163.216 99.961 163.216 90.7472 170.71 90.7472C178.204 90.7472 178.204 99.961 185.698 99.961C193.192 99.961 193.192 90.7472 200.686 90.7472C208.18 90.7472 206.089 99.7871 213.583 99.7871" stroke="#350101" stroke-miterlimit="10"/>
</g>
<path d="M215.5 102.395H106.75V114.042H215.5V102.395Z" fill="#FF9C12"/>
<path d="M127.489 118.041H112.501V215.394H127.489V118.041Z" fill="#FF9C12"/>
<path d="M173.847 118.041H158.859V215.394H173.847V118.041Z" fill="#FF9C12"/>
<path d="M210.446 118.041H195.458V215.394H210.446V118.041Z" fill="#FF9C12"/>
<path d="M154.154 134.73H131.498C130.103 134.73 129.058 133.687 129.058 132.296V130.384C129.058 128.993 130.103 127.95 131.498 127.95H154.154C155.548 127.95 156.594 128.993 156.594 130.384V132.47C156.594 133.687 155.548 134.73 154.154 134.73Z" fill="#0B0073"/>
<path d="M153.98 214.177H131.149V147.421C131.149 140.988 136.377 135.947 142.651 135.947C148.925 135.947 153.98 140.988 153.98 147.247V214.177Z" fill="black"/>
<path d="M153.98 163.24V214.003H131.149V163.24C131.149 162.197 131.846 161.328 132.892 160.807C132.892 160.807 133.066 160.807 133.24 160.633H133.415C135.332 159.937 135.506 159.416 137.249 158.199C138.294 156.982 140.212 156.113 142.477 156.113C144.743 156.113 146.66 156.982 147.706 158.199C149.448 159.416 149.623 159.937 151.714 160.807C151.888 160.807 152.063 160.98 152.063 160.98C153.282 161.502 153.98 162.371 153.98 163.24Z" fill="#0B0073"/>
<path d="M141.954 175.931H133.938V167.587C133.938 163.936 136.9 160.98 140.56 160.98C141.431 160.98 141.954 161.676 141.954 162.371V175.931Z" fill="black"/>
<path d="M143.174 175.931H151.191V167.587C151.191 163.936 148.228 160.98 144.569 160.98C143.697 160.98 143.174 161.676 143.174 162.371V175.931Z" fill="black"/>
<path d="M141.954 177.148H133.938V194.011H141.954V177.148Z" fill="black"/>
<path d="M151.191 177.148H143.174V194.011H151.191V177.148Z" fill="black"/>
<path d="M141.954 195.228H133.938V211.917H141.954V195.228Z" fill="black"/>
<path d="M151.191 195.228H143.174V211.917H151.191V195.228Z" fill="black"/>
<g opacity="0.5">
<path d="M135.332 167.239L134.983 167.065L138.992 164.457L139.166 164.631L135.332 167.239Z" fill="white"/>
</g>
<g opacity="0.5">
<path d="M135.332 169.151L134.983 168.977L138.992 166.196L139.166 166.543L135.332 169.151Z" fill="white"/>
</g>
<g opacity="0.5">
<path d="M145.091 170.89L144.743 170.716L148.751 167.934L148.925 168.282L145.091 170.89Z" fill="white"/>
</g>
<g opacity="0.5">
<path d="M145.091 172.802L144.743 172.628L148.751 169.847L148.925 170.194L145.091 172.802Z" fill="white"/>
</g>
<g opacity="0.5">
<path d="M135.68 184.276L135.332 184.102L139.34 181.32L139.514 181.668L135.68 184.276Z" fill="white"/>
</g>
<g opacity="0.5">
<path d="M135.68 186.188L135.332 186.014L139.34 183.233L139.514 183.58L135.68 186.188Z" fill="white"/>
</g>
<g opacity="0.5">
<path d="M145.44 187.926L145.091 187.753L148.925 184.971L149.274 185.319L145.44 187.926Z" fill="white"/>
</g>
<g opacity="0.5">
<path d="M145.44 189.839L145.091 189.665L148.925 186.883L149.274 187.231L145.44 189.839Z" fill="white"/>
</g>
<g opacity="0.5">
<path d="M135.332 199.4L134.983 199.226L138.992 196.445L139.34 196.793L135.332 199.4Z" fill="white"/>
</g>
<g opacity="0.5">
<path d="M135.332 201.312L134.983 201.139L138.992 198.357L139.34 198.705L135.332 201.312Z" fill="white"/>
</g>
<g opacity="0.5">
<path d="M145.091 203.051L144.743 202.877L148.751 200.096L148.925 200.443L145.091 203.051Z" fill="white"/>
</g>
<g opacity="0.5">
<path d="M145.091 204.963L144.743 204.789L148.751 202.008L148.925 202.356L145.091 204.963Z" fill="white"/>
</g>
<path d="M193.715 131.427H175.939V210.005H193.715V131.427Z" fill="black"/>
<g opacity="0.7">
<path d="M177.333 132.47H175.939V208.962H177.333V132.47Z" fill="white"/>
</g>
<g opacity="0.7">
<path d="M181.516 132.644H180.121V208.962H181.516V132.644Z" fill="white"/>
</g>
<g opacity="0.7">
<path d="M185.35 132.47H183.956V209.135H185.35V132.47Z" fill="white"/>
</g>
<g opacity="0.7">
<path d="M189.532 132.644H188.138V209.135H189.532V132.644Z" fill="white"/>
</g>
<g opacity="0.7">
<path d="M193.367 132.47H191.972V208.962H193.367V132.47Z" fill="white"/>
</g>
<path d="M192.495 133.861H177.159C175.764 133.861 174.719 132.818 174.719 131.427V131.253C174.719 129.862 175.764 128.819 177.159 128.819H192.495C193.889 128.819 194.935 129.862 194.935 131.253V131.427C194.935 132.818 193.715 133.861 192.495 133.861Z" fill="#0B0073"/>
<path d="M192.495 171.759H177.159C175.764 171.759 174.719 170.716 174.719 169.325V169.151C174.719 167.76 175.764 166.717 177.159 166.717H192.495C193.889 166.717 194.935 167.76 194.935 169.151V169.325C194.935 170.716 193.715 171.759 192.495 171.759Z" fill="#0B0073"/>
<path d="M433 101.873H324.25V221.479H433V101.873Z" fill="#FFDDDB"/>
<path d="M433 101.873H324.25L347.081 52.1535C349.52 46.9382 354.749 43.6351 360.5 43.6351H398.493C404.244 43.6351 409.472 47.112 411.738 52.3274L433 101.873Z" fill="#772F07"/>
<g opacity="0.5">
<path d="M413.829 101.873L396.053 44.5043C394.31 44.3304 391.696 44.6781 390.825 44.852L402.85 101.873C406.51 101.699 410.169 101.873 413.829 101.873Z" stroke="#350101" stroke-miterlimit="10"/>
<path d="M357.537 101.525C359.803 82.4025 362.243 63.4534 364.508 44.3304C364.508 43.9827 358.931 44.3304 358.583 44.3304C357.537 44.5043 356.492 44.852 355.62 45.1997C354.575 45.5473 354.749 46.5904 354.575 47.6335C353.529 51.9796 352.483 56.4996 351.438 60.8457C349.346 69.7118 347.255 78.404 345.163 87.2701C343.944 92.1378 342.898 97.0055 341.678 101.873C343.769 101.873 354.4 101.873 357.537 101.525Z" stroke="#350101" stroke-miterlimit="10"/>
<path d="M377.579 101.178C381.762 100.656 385.945 100.656 390.127 100.83L384.55 44.1566C381.588 44.1566 378.625 44.1566 375.662 44.1566L371.828 101.525C373.745 101.525 375.662 101.352 377.579 101.178Z" stroke="#350101" stroke-miterlimit="10"/>
<path d="M348.649 49.5458C353.355 49.5458 351.089 54.7612 355.794 54.7612C360.5 54.7612 360.5 48.8505 365.206 48.8505C369.911 48.8505 369.911 54.7612 374.617 54.7612C379.322 54.7612 379.322 48.8505 384.028 48.8505C388.733 48.8505 388.733 54.7612 393.439 54.7612C398.144 54.7612 398.144 48.8505 402.85 48.8505C407.555 48.8505 407.555 54.7612 412.261 54.7612" stroke="#350101" stroke-miterlimit="10"/>
<path d="M344.641 57.5427C350.218 57.5427 347.952 63.8011 353.355 63.8011C358.931 63.8011 358.932 57.0211 364.508 57.0211C370.085 57.0211 370.085 63.8011 375.662 63.8011C381.239 63.8011 381.239 57.0211 386.816 57.0211C392.393 57.0211 392.393 63.8011 397.97 63.8011C403.547 63.8011 403.547 57.0211 409.124 57.0211C414.701 57.0211 411.215 63.8011 416.792 63.8011" stroke="#350101" stroke-miterlimit="10"/>
<path d="M341.329 66.2349C347.081 66.2349 346.035 73.3625 351.96 73.3625C357.712 73.3625 357.712 66.2349 363.637 66.2349C369.388 66.2349 369.388 73.3625 375.314 73.3625C381.065 73.3625 381.065 66.2349 386.99 66.2349C392.742 66.2349 392.742 73.3625 398.667 73.3625C404.418 73.3625 404.418 66.2349 410.344 66.2349C416.095 66.2349 414.875 73.0148 420.801 73.0148" stroke="#350101" stroke-miterlimit="10"/>
<path d="M337.495 73.1887C343.769 73.1887 342.724 80.8379 348.998 80.8379C355.272 80.8379 355.272 73.0149 361.72 73.0149C367.994 73.0149 367.994 80.8379 374.442 80.8379C380.716 80.8379 380.716 73.0149 387.165 73.0149C393.439 73.0149 393.439 80.8379 399.887 80.8379C406.161 80.8379 406.161 73.0149 412.609 73.0149C418.883 73.0149 417.663 80.6641 424.112 80.6641" stroke="#350101" stroke-miterlimit="10"/>
<path d="M333.487 81.7072C340.632 81.7072 336.275 90.3994 343.246 90.3994C350.392 90.3994 350.392 81.7072 357.363 81.7072C364.508 81.7072 364.508 90.3994 371.48 90.3994C378.625 90.3994 378.625 81.7072 385.596 81.7072C392.742 81.7072 392.742 90.3994 399.713 90.3994C406.858 90.3994 406.858 81.7072 413.829 81.7072C420.8 81.7072 418.883 87.6179 426.029 87.6179" stroke="#350101" stroke-miterlimit="10"/>
<path d="M329.478 90.3994C336.972 90.3994 335.578 99.4394 343.072 99.4394C350.566 99.4394 350.566 90.2256 358.06 90.2256C365.554 90.2256 365.554 99.4394 373.048 99.4394C380.542 99.4394 380.542 90.2256 388.036 90.2256C395.53 90.2256 395.53 99.4394 403.024 99.4394C410.518 99.4394 410.518 90.2256 418.012 90.2256C425.506 90.2256 423.415 99.2655 430.909 99.2655" stroke="#350101" stroke-miterlimit="10"/>
</g>
<path d="M433 101.873H324.25V113.521H433V101.873Z" fill="#FF1D12"/>
<path d="M344.989 117.519H330.001V214.872H344.989V117.519Z" fill="#FF1D12"/>
<path d="M391.347 117.519H376.359V214.872H391.347V117.519Z" fill="#FF1D12"/>
<path d="M427.946 117.519H412.958V214.872H427.946V117.519Z" fill="#FF1D12"/>
<path d="M371.654 134.208H348.998C347.603 134.208 346.558 133.165 346.558 131.774V129.688C346.558 128.298 347.603 127.255 348.998 127.255H371.654C373.048 127.255 374.094 128.298 374.094 129.688V131.774C374.094 133.165 373.048 134.208 371.654 134.208Z" fill="#FF9200"/>
<path d="M371.48 213.656H348.649V146.899C348.649 140.467 353.877 135.425 360.151 135.425C366.425 135.425 371.48 140.467 371.48 146.725V213.656Z" fill="black"/>
<path d="M371.48 162.719V213.482H348.649V162.719C348.649 161.676 349.346 160.807 350.392 160.285C350.392 160.285 350.566 160.285 350.74 160.111H350.915C352.832 159.416 353.006 158.894 354.749 157.677C355.794 156.461 357.712 155.591 359.977 155.591C362.243 155.591 364.16 156.461 365.206 157.677C366.948 158.894 367.123 159.416 369.214 160.285C369.388 160.285 369.562 160.459 369.562 160.459C370.782 160.981 371.48 161.85 371.48 162.719Z" fill="#FF9200"/>
<path d="M359.454 175.41H351.438V167.065C351.438 163.414 354.4 160.459 358.06 160.459C358.931 160.459 359.454 161.154 359.454 161.85V175.41Z" fill="black"/>
<path d="M360.674 175.41H368.691V167.065C368.691 163.414 365.728 160.459 362.068 160.459C361.197 160.459 360.674 161.154 360.674 161.85V175.41Z" fill="black"/>
<path d="M359.454 176.8H351.438V193.663H359.454V176.8Z" fill="black"/>
<path d="M368.691 176.8H360.674V193.663H368.691V176.8Z" fill="black"/>
<path d="M359.454 194.706H351.438V211.396H359.454V194.706Z" fill="black"/>
<path d="M368.691 194.706H360.674V211.396H368.691V194.706Z" fill="black"/>
<g opacity="0.5">
<path d="M352.832 166.891L352.483 166.544L356.492 163.936L356.666 164.11L352.832 166.891Z" fill="white"/>
</g>
<g opacity="0.5">
<path d="M352.832 168.804L352.483 168.456L356.492 165.848L356.666 166.022L352.832 168.804Z" fill="white"/>
</g>
<g opacity="0.5">
<path d="M362.591 170.542L362.243 170.194L366.077 167.587L366.425 167.761L362.591 170.542Z" fill="white"/>
</g>
<g opacity="0.5">
<path d="M362.591 172.28L362.243 172.107L366.077 169.499L366.425 169.673L362.591 172.28Z" fill="white"/>
</g>
<g opacity="0.5">
<path d="M353.18 183.928L352.832 183.58L356.666 180.973L357.014 181.146L353.18 183.928Z" fill="white"/>
</g>
<g opacity="0.5">
<path d="M353.18 185.84L352.832 185.493L356.666 182.885L357.014 183.059L353.18 185.84Z" fill="white"/>
</g>
<g opacity="0.5">
<path d="M362.766 187.405L362.591 187.231L366.425 184.623L366.774 184.797L362.766 187.405Z" fill="white"/>
</g>
<g opacity="0.5">
<path d="M362.766 189.317L362.591 189.143L366.425 186.536L366.774 186.71L362.766 189.317Z" fill="white"/>
</g>
<g opacity="0.5">
<path d="M352.832 199.053L352.483 198.705L356.492 196.097L356.666 196.271L352.832 199.053Z" fill="white"/>
</g>
<g opacity="0.5">
<path d="M352.832 200.965L352.483 200.617L356.492 198.01L356.666 198.183L352.832 200.965Z" fill="white"/>
</g>
<g opacity="0.5">
<path d="M362.591 202.529L362.243 202.356L366.251 199.748L366.425 199.922L362.591 202.529Z" fill="white"/>
</g>
<g opacity="0.5">
<path d="M362.591 204.442L362.243 204.268L366.251 201.66L366.425 201.834L362.591 204.442Z" fill="white"/>
</g>
<path d="M411.215 131.079H393.439V209.657H411.215V131.079Z" fill="black"/>
<g opacity="0.7">
<path d="M394.833 131.948H393.439V208.44H394.833V131.948Z" fill="white"/>
</g>
<g opacity="0.7">
<path d="M399.016 132.296H397.621V208.614H399.016V132.296Z" fill="white"/>
</g>
<g opacity="0.7">
<path d="M402.85 131.948H401.456V208.614H402.85V131.948Z" fill="white"/>
</g>
<g opacity="0.7">
<path d="M407.032 132.122H405.638V208.614H407.032V132.122Z" fill="white"/>
</g>
<g opacity="0.7">
<path d="M410.867 131.948H409.472V208.44H410.867V131.948Z" fill="white"/>
</g>
<path d="M409.995 133.339H394.659C393.264 133.339 392.219 132.296 392.219 130.905V130.731C392.219 129.341 393.264 128.298 394.659 128.298H409.995C411.389 128.298 412.435 129.341 412.435 130.731V130.905C412.435 132.296 411.215 133.339 409.995 133.339Z" fill="#FF9200"/>
<path d="M409.995 171.237H394.659C393.264 171.237 392.219 170.194 392.219 168.803V168.63C392.219 167.239 393.264 166.196 394.659 166.196H409.995C411.389 166.196 412.435 167.239 412.435 168.63V168.803C412.435 170.194 411.215 171.237 409.995 171.237Z" fill="#FF9200"/>
<rect x="-2" width="433" height="215" fill="url(#paint0_linear_51_89)" fill-opacity="0.76"/>
</g>
<defs>
<linearGradient id="paint0_linear_51_89" x1="167.457" y1="215" x2="163.579" y2="28.608" gradientUnits="userSpaceOnUse">
<stop stop-color="#D9D9D9"/>
<stop offset="1" stop-color="#737373"/>
</linearGradient>
<clipPath id="clip0_51_89">
<rect width="435" height="222" fill="white" transform="translate(-2)"/>
</clipPath>
</defs>
</svg>
