<svg width="430" height="932" viewBox="0 0 430 932" fill="none" xmlns="http://www.w3.org/2000/svg">
<g opacity="0.53">
<path d="M767.854 -56H-293V1004.85H767.854V-56Z" fill="#A2DDF1"/>
<path d="M541.061 -56H-65.3295C-161.252 1.17351 -240.359 84.6673 -293 184.684V764.316C-240.359 864.333 -161.399 947.826 -65.4757 1005H541.061C636.545 948.119 715.213 865.21 767.708 765.924V183.222C715.213 83.79 636.545 0.881069 541.061 -56ZM234.429 892.115C-0.113617 892.115 -190.205 702.024 -190.205 467.481C-190.205 232.938 -0.113617 42.8473 234.429 42.8473C468.826 42.9935 658.917 233.084 658.917 467.481C658.917 702.024 468.826 892.115 234.429 892.115Z" fill="#37AEC7"/>
<path d="M520.297 234.401C763.906 602.738 368.517 998.128 0.178917 754.519C-16.7831 743.259 -40.0326 720.01 -51.2919 703.048C-294.901 334.71 100.488 -60.8254 468.826 182.93C485.935 194.189 509.038 217.292 520.297 234.401Z" fill="#B62A80"/>
<path d="M237.5 -55.5613C-49.6834 -55.5613 -282.472 181.906 -282.472 474.646C-282.472 767.386 -49.6834 1004.85 237.5 1004.85C524.684 1004.85 757.326 767.533 757.326 474.646C757.326 181.76 524.538 -55.5613 237.5 -55.5613ZM234.43 835.38C31.9095 835.38 -132.3 671.171 -132.3 468.651C-132.3 266.131 31.9095 101.922 234.43 101.922C436.95 101.922 601.159 266.131 601.159 468.651C601.159 671.171 436.95 835.38 234.43 835.38Z" fill="#A2DDF1"/>
<path d="M237.5 -35.5288C-38.7171 -35.5288 -262.586 192.727 -262.586 474.354C-262.586 755.981 -38.7171 984.236 237.5 984.236C513.57 984.236 737.439 755.981 737.439 474.354C737.439 192.727 513.57 -35.5288 237.5 -35.5288ZM234.575 821.343C39.8051 821.343 -118.117 663.421 -118.117 468.651C-118.117 273.881 39.8051 115.959 234.575 115.959C429.345 115.959 587.267 273.881 587.267 468.651C587.267 663.421 429.345 821.343 234.575 821.343Z" fill="#0B53A1"/>
<path d="M26.645 780.839C44.6305 771.627 66.4178 778.792 75.3375 796.778C82.21 810.815 79.2855 827.338 69.0499 838.305C69.0499 838.305 48.1399 870.182 70.6583 886.998C70.6583 886.998 53.9888 898.257 37.4655 879.102C37.4655 879.102 23.1356 895.186 14.3622 895.332C14.3622 895.332 9.53679 888.899 13.4848 875.446C13.4848 875.446 2.07936 888.46 -7.86386 888.167C-7.86386 888.167 -10.2034 872.521 -3.76958 865.649C-3.76958 865.649 -15.1751 871.498 -21.1702 870.036C-21.1702 870.036 -24.5334 854.097 -13.5666 842.107C-13.5666 842.107 -33.3068 841.668 -36.3775 817.395C-36.3775 817.395 -11.5195 831.871 9.53677 798.678C13.0461 791.221 18.8951 784.787 26.645 780.839Z" fill="#37AEC7"/>
<path d="M38.6355 793.268C49.3098 790.782 59.8379 797.655 62.0313 808.329C64.2247 819.15 57.3521 829.824 46.6778 832.31C36.0035 834.796 25.4753 827.923 23.282 817.249C21.0886 806.428 27.9611 795.754 38.6355 793.268Z" fill="#A2DDF1"/>
<path d="M-27.3113 771.042L0.909922 737.995" stroke="#37AEC7" stroke-width="2" stroke-miterlimit="10"/>
<path d="M27.3759 156.025C28.9844 176.204 14.0696 193.604 -5.96311 194.92C-21.6091 195.944 -35.6466 186.878 -41.9342 173.279C-41.9342 173.279 -63.4291 141.841 -87.556 156.171C-87.556 156.171 -91.6503 136.431 -67.6696 128.535C-67.6696 128.535 -77.1741 109.087 -73.811 100.898C-73.811 100.898 -66.0611 98.8512 -55.0943 107.625C-55.0943 107.625 -62.698 92.1249 -58.6037 83.059C-58.6037 83.059 -43.2502 86.8608 -39.4484 95.488C-39.4484 95.488 -40.4719 82.7665 -36.9626 77.7949C-36.9626 77.7949 -20.8779 80.7194 -14.1516 95.488C-14.1516 95.488 -6.10933 77.3562 17.4327 83.9363C17.4327 83.9363 -5.37822 101.337 17.2865 133.506C22.9892 139.501 26.6448 147.397 27.3759 156.025Z" fill="#37AEC7"/>
<path d="M11.2917 162.312C9.39075 173.133 -0.844938 180.298 -11.6655 178.251C-22.4861 176.204 -29.651 165.675 -27.8963 154.855C-25.9954 144.034 -15.7598 136.869 -4.9392 138.916C5.88137 141.11 13.0463 151.492 11.2917 162.312Z" fill="#A2DDF1"/>
<path d="M56.6212 113.766L80.7481 150.029" stroke="#37AEC7" stroke-width="2" stroke-miterlimit="10"/>
<path d="M58.8145 118.299C49.3099 124.44 36.5884 121.662 30.1546 112.157C23.7207 102.653 26.3528 89.9314 35.7111 83.6438C45.2156 77.5024 57.9371 80.2806 64.3709 89.7852C70.8048 99.2897 68.1728 112.157 58.8145 118.299Z" fill="#A2DDF1"/>
<path d="M162.78 100.167C156.492 119.469 136.167 129.85 117.158 123.27C102.389 118.153 92.8847 104.407 92.2998 89.4926C92.2998 89.4926 84.55 52.2056 56.6212 56.1536C56.6212 56.1536 60.423 36.4134 85.5735 38.3143C85.5735 38.3143 84.2575 16.8194 90.3989 10.5318C90.3989 10.5318 98.295 11.5553 105.167 23.9844C105.167 23.9844 104.144 6.72996 111.309 0.00366211C111.309 0.00366211 124.03 9.36199 124.323 18.7203C124.323 18.7203 128.271 6.58373 133.389 3.36681C133.389 3.36681 147.134 12.2865 147.719 28.5173C147.719 28.5173 162.049 14.9185 181.35 29.8333C181.35 29.8333 153.568 37.2907 162.195 75.6014C165.119 83.0588 165.558 91.686 162.78 100.167Z" fill="#37AEC7"/>
<path d="M145.525 99.7286C139.676 109.087 127.394 111.719 118.328 105.578C109.116 99.5823 106.484 87.0071 112.333 77.795C118.182 68.4367 130.464 65.8046 139.53 71.946C148.742 78.0874 151.374 90.5165 145.525 99.7286Z" fill="#A2DDF1"/>
<path d="M207.085 72.9695L208.986 116.398" stroke="#37AEC7" stroke-width="2" stroke-miterlimit="10"/>
<path d="M206.647 77.9413C195.387 78.3799 185.883 69.3141 185.298 57.9086C184.859 46.5032 193.487 36.8524 204.746 36.4137C216.005 35.975 225.51 45.0409 226.094 56.4464C226.533 67.8518 217.906 77.5026 206.647 77.9413Z" fill="#A2DDF1"/>
<path d="M309.442 100.313C296.282 115.667 273.471 117.421 258.41 104.261C246.712 93.8792 243.203 77.6484 248.321 63.6109C248.321 63.6109 255.339 26.1776 228.142 19.1589C228.142 19.1589 239.255 2.34313 261.773 13.7486C261.773 13.7486 268.792 -6.57652 276.98 -10.0859C276.98 -10.0859 283.999 -6.13785 285.461 8.04586C285.461 8.04586 291.018 -8.3312 300.23 -11.8406C300.23 -11.8406 308.419 1.75824 305.055 10.5317C305.055 10.5317 313.39 0.880898 319.385 -0.14267C319.385 -0.14267 328.597 13.3099 323.041 28.5172C323.041 28.5172 341.465 21.3522 353.602 42.7009C353.602 42.7009 325.088 38.8991 318.362 77.6484C318.069 85.3983 315.145 93.5868 309.442 100.313Z" fill="#37AEC7"/>
<path d="M293.65 93.2946C284.73 99.5822 272.448 97.3889 266.16 88.323C260.019 79.2571 262.212 66.6819 271.278 60.3942C280.197 54.1066 292.48 56.3 298.768 65.3659C304.909 74.4317 302.57 87.007 293.65 93.2946Z" fill="#A2DDF1"/>
<path d="M362.814 92.4175L350.238 134.091" stroke="#37AEC7" stroke-width="2" stroke-miterlimit="10"/>
<path d="M360.62 96.9499C349.8 93.5867 343.805 82.0351 347.022 70.9221C350.385 59.9553 361.79 53.6676 372.465 57.0308C383.285 60.3939 389.28 71.9456 386.063 83.0586C382.846 94.0254 371.441 100.313 360.62 96.9499Z" fill="#A2DDF1"/>
<path d="M444.699 156.463C426.714 165.675 404.926 158.51 396.007 140.525C389.134 126.487 392.059 109.964 402.294 98.9973C402.294 98.9973 423.204 67.1205 400.686 50.3047C400.686 50.3047 417.356 39.0455 433.879 58.2008C433.879 58.2008 448.209 42.1162 456.982 41.97C456.982 41.97 461.808 48.4038 457.86 61.8564C457.86 61.8564 469.265 48.8425 479.208 49.1349C479.208 49.1349 481.548 64.7809 475.114 71.6534C475.114 71.6534 486.519 65.8045 492.515 67.2667C492.515 67.2667 495.878 83.2051 484.911 95.1954C484.911 95.1954 504.651 95.6341 507.722 119.907C507.722 119.907 482.864 105.431 461.808 138.624C458.444 146.081 452.595 152.515 444.699 156.463Z" fill="#37AEC7"/>
<path d="M432.855 144.034C422.181 146.52 411.652 139.648 409.459 128.973C407.266 118.153 414.138 107.478 424.813 104.992C435.487 102.507 446.015 109.379 448.208 120.054C450.402 130.874 443.529 141.548 432.855 144.034Z" fill="#A2DDF1"/>
<path d="M408.582 826.607L389.134 787.712" stroke="#37AEC7" stroke-width="2" stroke-miterlimit="10"/>
<path d="M407.12 821.928C417.209 816.956 429.638 821.197 434.756 831.432C439.874 841.668 435.926 854.097 425.836 859.069C415.747 864.04 403.318 859.8 398.2 849.564C392.936 839.182 396.884 826.899 407.12 821.928Z" fill="#A2DDF1"/>
<path d="M308.711 837.281C314.999 817.98 335.324 807.598 354.333 814.178C369.101 819.296 378.606 833.041 379.191 847.956C379.191 847.956 386.941 885.243 414.87 881.295C414.87 881.295 411.068 901.035 385.917 899.134C385.917 899.134 387.233 920.629 381.092 926.916C381.092 926.916 373.196 925.893 366.323 913.464C366.323 913.464 367.347 930.718 360.182 937.445C360.182 937.445 347.46 928.086 347.168 918.728C347.168 918.728 343.22 930.864 338.102 934.081C338.102 934.081 324.357 925.162 323.772 908.931C323.772 908.931 309.442 922.53 290.141 907.615C290.141 907.615 317.923 900.157 309.296 861.847C306.371 854.243 305.933 845.616 308.711 837.281Z" fill="#37AEC7"/>
<path d="M325.965 837.574C331.814 828.215 344.097 825.583 353.163 831.725C362.375 837.72 365.007 850.295 359.158 859.507C353.309 868.866 341.027 871.498 331.961 865.356C322.749 859.361 320.117 846.932 325.965 837.574Z" fill="#A2DDF1"/>
<path d="M264.405 864.333L262.358 820.904" stroke="#37AEC7" stroke-width="2" stroke-miterlimit="10"/>
<path d="M264.844 859.507C276.103 859.069 285.754 867.988 286.192 879.54C286.777 890.945 278.004 900.596 266.745 901.035C255.485 901.473 245.835 892.554 245.396 881.002C244.957 869.45 253.585 859.946 264.844 859.507Z" fill="#A2DDF1"/>
<path d="M162.049 837.135C175.209 821.782 198.02 820.027 213.081 833.187C224.779 843.569 228.288 859.8 223.17 873.837C223.17 873.837 216.151 911.271 243.349 918.289C243.349 918.289 232.236 935.105 209.718 923.7C209.718 923.7 202.699 944.025 194.51 947.534C194.51 947.534 187.492 943.586 186.029 929.403C186.029 929.403 180.473 945.78 171.261 949.289C171.261 949.289 163.072 935.69 166.435 926.917C166.435 926.917 158.101 936.567 152.105 937.591C152.105 937.591 142.893 924.138 148.45 908.931C148.45 908.931 130.026 916.096 117.889 894.747C117.889 894.747 146.403 898.549 153.129 859.8C153.421 851.904 156.346 843.715 162.049 837.135Z" fill="#37AEC7"/>
<path d="M177.841 844.008C186.76 837.72 199.043 839.914 205.331 848.979C211.472 858.045 209.279 870.62 200.213 876.908C191.293 883.196 179.01 881.002 172.723 871.936C166.581 862.871 168.921 850.295 177.841 844.008Z" fill="#A2DDF1"/>
<path d="M108.677 844.885L121.106 803.211" stroke="#37AEC7" stroke-width="2" stroke-miterlimit="10"/>
<path d="M110.87 840.352C121.691 843.715 127.832 855.267 124.469 866.234C121.252 877.2 109.846 883.488 99.0259 880.125C88.2053 876.762 82.0639 865.21 85.427 854.243C88.644 843.423 100.049 837.135 110.87 840.352Z" fill="#A2DDF1"/>
<path d="M230.628 739.604C377.202 739.604 496.024 620.782 496.024 474.208C496.024 327.633 377.202 208.811 230.628 208.811C84.0535 208.811 -34.7685 327.633 -34.7685 474.208C-34.7685 620.782 84.0535 739.604 230.628 739.604Z" fill="#0B53A1"/>
<path d="M234.137 248.146C207.963 248.146 178.426 224.603 154.884 232.207C130.464 240.103 120.375 276.952 100.05 291.72C79.4323 306.635 41.5603 304.88 26.4993 325.498C11.7307 345.823 25.037 381.355 16.9947 405.775C9.39108 429.317 -22.4857 450.227 -22.4857 476.255C-22.4857 502.429 9.39108 523.193 16.9947 546.735C24.8908 571.154 11.5844 606.686 26.4993 627.011C41.4141 647.629 79.4323 645.874 100.05 660.789C120.375 675.558 130.464 712.406 154.884 720.302C178.426 727.906 208.109 704.364 234.137 704.364C260.311 704.364 289.848 727.906 313.39 720.302C337.81 712.406 347.899 675.558 368.224 660.789C388.842 645.874 426.714 647.629 441.775 627.011C456.544 606.686 443.237 571.154 451.279 546.735C458.883 523.193 490.76 502.283 490.76 476.255C490.76 450.081 458.883 429.317 451.279 405.775C443.383 381.355 456.69 345.823 441.775 325.498C426.86 304.88 388.842 306.635 368.224 291.72C347.899 276.952 337.81 240.103 313.39 232.207C289.848 224.603 260.165 248.146 234.137 248.146ZM234.137 636.224C218.491 636.224 207.671 605.955 193.487 601.422C178.865 596.597 152.398 614.582 140.115 605.663C127.832 596.743 136.752 565.89 127.686 553.607C118.767 541.324 86.7435 540.447 81.9181 525.825C77.3851 511.641 102.536 492.193 102.536 476.401C102.536 460.755 77.2389 441.161 81.9181 426.977C86.7435 412.355 118.767 411.331 127.686 399.195C136.606 386.912 127.686 356.059 140.115 347.139C152.398 338.219 178.718 356.205 193.487 351.38C207.671 346.847 218.345 316.578 234.137 316.578C249.783 316.578 260.604 346.847 274.787 351.38C289.41 356.205 315.876 338.219 328.159 347.139C340.442 356.059 331.522 386.912 340.588 399.195C349.508 411.477 381.531 412.355 386.356 426.977C390.889 441.161 365.739 460.609 365.739 476.401C365.739 492.047 391.035 511.641 386.356 525.825C381.531 540.447 349.508 541.47 340.588 553.607C331.668 565.89 340.588 596.743 328.159 605.663C315.876 614.582 289.556 596.597 274.787 601.422C260.457 605.955 249.783 636.224 234.137 636.224Z" fill="#88D5EE"/>
<path d="M379.045 150.907H378.752C377.29 154.27 378.314 157.487 379.776 160.558C382.408 184.539 385.186 208.666 387.818 232.646C388.111 235.863 389.134 237.472 392.936 237.179C414.139 235.424 435.487 234.108 456.69 232.5C463.562 231.915 470.581 231.184 477.453 230.453C481.255 231.33 484.911 230.892 488.713 230.16C488.859 230.307 489.005 230.599 489.298 230.745C487.982 234.255 487.25 237.91 487.543 241.566C482.717 267.594 477.746 293.622 472.92 319.649C472.336 322.428 473.213 323.451 475.991 323.89C479.939 324.621 483.887 325.937 487.689 326.961C509.038 332.371 530.386 337.927 551.735 343.338C554.952 345.239 558.169 346.701 562.117 345.97C562.409 346.408 562.848 346.993 563.141 347.432C559.924 349.625 557.877 352.696 556.561 356.498C542.377 375.946 528.339 395.54 514.009 414.987C512.109 417.619 512.255 419.228 514.594 421.275C535.504 438.529 556.414 455.93 577.324 473.331C579.079 476.84 581.857 479.033 585.805 479.618C585.805 480.349 585.805 481.081 585.951 481.958C582.15 482.835 579.81 485.613 577.324 488.392C556.268 503.453 535.358 518.368 514.302 533.282C512.108 534.891 511.67 536.207 513.132 538.547C526 561.211 538.721 583.876 551.589 606.394C552.612 610.196 553.782 613.852 557.292 616.191C556.999 616.63 556.707 617.215 556.414 617.654C552.905 616.922 549.542 617.361 546.471 619.554C542.231 619.993 537.99 620.432 533.896 621.017C515.325 623.795 496.755 626.866 478.185 629.498C474.237 630.083 473.652 631.983 473.944 635.347C476.722 661.959 479.354 688.572 481.986 715.331C480.817 719.279 481.986 722.935 483.156 726.59C482.571 726.883 482.133 727.175 481.548 727.321C477.892 726.59 474.237 725.421 470.435 726.005C446.015 722.204 421.596 718.402 397.177 714.454C394.252 714.015 392.79 715.039 392.059 717.671C385.04 742.967 378.021 768.264 371.003 793.561C368.955 796.778 367.201 800.141 367.786 804.235H367.932C364.715 802.919 362.668 799.41 358.866 799.117C339.857 785.372 320.848 771.627 301.839 757.882C299.938 756.566 298.622 756.42 297.013 758.467C279.32 780.254 261.481 802.042 243.788 823.829C240.132 825.584 238.67 829.093 236.623 832.31H236.038L235.453 832.456C234.429 828.947 232.09 826.461 229.312 824.414C227.411 821.782 225.51 819.004 223.609 816.372C210.595 798.971 197.581 781.57 184.567 764.024C182.959 761.83 181.789 760.368 178.426 762.269C154.445 775.868 130.318 789.32 106.337 802.773C105.753 802.773 105.168 802.773 104.583 802.919C97.8564 805.697 97.8564 805.844 96.248 798.971C96.1017 798.532 95.9555 798.24 95.8093 797.948C95.5168 795.9 95.0782 793.707 94.7857 791.66C91.5688 771.335 88.0594 751.156 84.9887 730.831C84.2576 725.713 82.0642 724.689 77.3851 725.274C49.4563 728.053 21.3813 730.831 -6.54742 733.463C-10.203 732.001 -13.7124 734.048 -17.368 733.902L-17.2217 734.048C-16.7831 730.685 -15.6133 727.614 -16.052 724.104C-12.1039 698.808 -8.15586 673.657 -4.06159 648.361C-3.4767 644.851 -4.35404 643.828 -7.71719 642.95C-34.4761 635.932 -61.2351 628.62 -87.9941 621.455C-90.7723 620.286 -93.6968 619.262 -96.6213 618.092C-95.3053 615.606 -93.9893 613.121 -92.8195 610.635C-78.4895 590.602 -64.1596 570.57 -49.5372 550.683C-47.1976 547.466 -48.3674 546.15 -50.707 544.249C-73.9566 525.094 -97.06 505.939 -120.31 486.783C-126.89 481.227 -126.89 481.227 -120.748 475.524C-120.456 475.232 -120.31 474.939 -120.017 474.647C-98.5222 459.293 -77.0273 444.086 -55.5324 428.732C-53.0466 426.978 -50.9995 425.662 -53.1928 421.86C-67.3765 396.856 -81.414 371.851 -95.4515 346.847C-96.3288 343.045 -97.7911 339.536 -101.008 337.05L-100.862 336.611C-97.3524 337.781 -93.843 337.489 -90.6261 335.442C-65.9143 332.81 -41.2025 330.031 -16.6368 327.399C-13.8586 327.107 -13.2737 325.645 -13.4199 323.013C-14.4435 312.192 -15.1746 301.371 -16.052 290.551C-17.6604 270.957 -19.4151 251.509 -21.1698 232.061C-20 228.406 -20.2925 224.896 -21.9009 221.533C-21.6085 221.533 -21.4622 221.241 -21.4622 221.095C-17.9529 221.533 -14.5897 223.142 -10.7879 222.411C-4.93894 223.434 1.05624 224.604 6.9052 225.481C25.7681 228.698 44.631 232.061 63.4938 235.132C65.9796 235.571 69.6352 237.618 71.0975 232.792C78.5549 206.618 86.1585 180.444 93.6159 154.27C95.3706 150.907 97.4177 147.69 96.3941 143.742C97.1253 143.45 98.0026 143.303 98.7337 143.011C100.342 146.52 103.413 147.836 106.922 148.86C128.271 164.067 149.62 179.128 170.822 194.482C174.185 196.968 175.355 195.067 177.256 192.727C194.51 170.794 211.765 148.86 229.165 126.926C231.797 124.441 235.014 122.393 235.453 118.299C235.892 118.299 236.184 118.299 236.623 118.445C237.208 122.101 239.401 124.733 242.326 126.926C257.825 149.152 273.325 171.525 288.825 193.751C290.726 196.529 292.48 196.968 295.551 195.213C319.678 182.053 343.951 168.893 368.078 155.879C372.172 155.148 375.097 151.638 379.045 150.907ZM515.033 477.571C514.887 320.088 389.719 193.458 233.698 192.727C73.8757 191.85 -50.2683 321.112 -51.2919 475.085C-52.4617 635.639 76.3615 765.924 238.67 762.269C393.667 758.613 514.74 631.545 515.033 477.571Z" fill="#19A0D8"/>
<path d="M-17.2217 733.609C-13.5661 733.755 -10.0568 731.708 -6.40117 733.17C-6.25495 735.217 -4.64648 736.095 -3.33046 737.118C25.1832 761.976 56.7675 782.155 91.5688 797.216C92.8848 797.801 94.2008 799.117 95.8093 797.655C95.9555 797.947 96.1018 798.386 96.248 798.679C97.8564 805.551 97.8564 805.551 104.583 802.627C105.021 802.48 105.753 802.48 106.337 802.48C106.922 802.919 107.653 803.504 108.238 803.65C141.577 815.787 176.086 822.952 211.472 824.706C217.321 824.999 223.463 826.169 229.312 824.122C232.236 826.169 234.576 828.654 235.453 832.164C223.316 833.919 211.034 832.456 198.897 831.433C148.304 827.338 100.781 812.862 56.3288 788.443C30.301 774.113 6.61275 756.858 -15.1746 736.68C-16.0519 735.948 -17.5142 735.364 -17.2217 733.609Z" fill="#88D5EE"/>
<path d="M379.045 150.907C374.95 151.638 372.172 155.294 367.932 155.586C367.493 152.808 364.861 152.954 362.96 152.223C332.838 139.794 301.546 131.459 269.231 127.803C260.311 126.78 251.245 124.879 242.179 126.634C239.255 124.44 237.061 121.808 236.476 118.153C248.759 119.761 261.042 118.591 273.325 120.492C300.522 124.733 327.574 129.997 353.309 140.086C362.083 143.449 370.856 146.52 379.045 150.907Z" fill="#88D5EE"/>
<path d="M-10.6416 222.117C-14.2972 222.995 -17.6603 221.24 -21.3159 220.801C-17.2217 214.514 -11.2265 210.273 -5.66997 205.448C24.7446 178.835 58.8147 158.071 96.5405 143.303C97.564 147.251 95.5169 150.614 93.7622 153.831C92.3 152.661 91.2764 153.831 90.1066 154.27C53.2582 170.208 20.0654 191.995 -9.4718 219.339C-10.2029 220.07 -11.5189 220.655 -10.6416 222.117Z" fill="#88D5EE"/>
<path d="M107.068 148.567C103.705 147.544 100.488 146.228 98.8799 142.718C118.035 134.237 138.068 129.119 158.393 124.879C182.959 119.761 207.963 117.86 233.113 117.714C233.845 117.714 234.576 118.006 235.453 118.153C235.014 122.247 231.797 124.294 229.165 126.78C228.142 125.756 226.826 125.756 225.364 125.756C194.072 125.756 163.511 130.582 133.535 139.063C124.469 141.402 115.111 143.157 107.068 148.567Z" fill="#88D5EE"/>
<path d="M367.932 804.235C367.347 800.14 369.248 796.924 371.149 793.56C371.734 794.292 372.465 794.145 373.196 793.853C409.313 777.476 441.629 755.396 470.435 728.345C471.166 727.614 471.751 726.882 470.581 726.005C474.383 725.274 478.038 726.59 481.694 727.321C469.119 741.505 454.35 753.203 439.143 764.316C417.063 780.4 393.521 794.145 367.932 804.235Z" fill="#88D5EE"/>
<path d="M379.922 160.557C378.46 157.487 377.436 154.27 378.898 150.906C416.624 168.015 450.109 191.557 479.793 220.509C483.01 223.58 486.665 226.212 488.859 230.306C485.203 231.037 481.401 231.622 477.599 230.598C477.892 228.698 476.283 227.82 475.26 226.797C452.449 204.424 427.152 185.269 399.223 169.769C392.936 166.26 386.941 162.02 379.922 160.557Z" fill="#88D5EE"/>
<path d="M358.866 799.117C362.668 799.409 364.715 802.919 367.932 804.235C347.314 813.886 325.527 820.027 303.301 824.999C282.391 829.678 261.188 831.871 239.84 832.895C238.67 832.895 237.646 832.602 236.476 832.31C238.377 829.093 239.986 825.583 243.641 823.829C244.811 824.706 246.127 824.56 247.589 824.56C279.466 822.805 310.612 816.956 340.734 806.428C346.875 804.381 353.602 803.211 358.866 799.117Z" fill="#88D5EE"/>
<path d="M515.033 477.571C514.887 631.544 393.667 758.613 238.67 762.122C76.3613 765.778 -52.4619 635.492 -51.2921 474.939C-50.2686 320.965 73.8755 191.703 233.698 192.58C389.719 193.458 514.74 320.088 515.033 477.571ZM387.818 684.77C398.2 676.435 407.997 667.515 417.648 658.449C417.501 659.034 417.355 659.619 417.355 660.204C416.77 667.515 421.011 672.926 427.445 673.072C432.855 673.072 437.827 668.1 437.68 662.69C437.534 656.402 432.709 652.454 425.398 652.893C424.52 652.893 423.497 652.893 422.619 652.893C424.666 650.846 426.714 648.799 428.468 646.605C434.756 639.002 440.897 631.252 447.185 623.502C451.425 631.837 457.859 634.469 463.708 630.228C467.802 627.304 469.557 623.356 467.949 618.53C465.902 612.681 461.369 610.342 455.227 610.634C459.76 600.837 465.609 591.771 469.411 581.682C470.873 585.776 473.505 588.701 477.892 589.432C482.864 590.309 486.519 587.97 488.859 583.729C491.052 579.635 490.029 575.833 487.104 572.616C483.302 568.522 478.915 568.083 474.09 570.861C475.406 567.206 476.722 563.55 477.892 559.895C480.67 550.829 483.302 541.909 486.08 532.843C486.958 533.574 487.835 534.305 488.712 535.037C492.222 537.815 495.877 538.838 499.972 536.645C504.066 534.305 506.113 530.942 505.821 526.117C505.236 518.075 497.486 514.711 488.566 518.659C488.713 516.174 489.005 513.688 489.005 511.202C489.444 500.966 492.076 490.877 490.467 480.495C492.368 480.495 493.538 481.811 495 482.835C499.387 486.052 504.505 485.174 508.307 480.788C511.67 476.839 511.67 471.283 508.16 467.774C504.212 463.533 499.094 462.948 494.708 466.311C493.538 467.189 492.807 468.797 490.906 468.505C491.637 465.58 490.906 462.802 490.613 460.024C489.59 450.519 488.566 441.161 487.397 431.656C492.222 434.581 497.047 434.727 501.142 430.779C504.797 427.416 505.528 423.029 503.481 418.642C499.826 410.893 491.783 410.746 484.472 417.911C480.524 405.775 476.576 393.638 472.628 381.355C473.944 382.086 475.26 382.964 476.722 383.549C481.401 385.45 486.373 383.402 489.005 378.723C491.491 374.337 490.613 369.219 486.812 366.148C483.887 363.808 480.524 363.077 477.015 364.247C472.043 366.002 469.996 370.096 469.703 375.068C467.802 371.12 466.048 367.172 464.001 363.37C459.322 354.889 454.496 346.408 449.817 337.927C451.425 338.073 452.888 338.219 454.496 338.219C458.737 338.219 461.807 336.318 463.708 332.37C465.755 328.13 464.878 324.474 462.1 321.111C459.322 317.894 455.812 316.286 451.718 317.602C446.308 319.356 443.676 323.304 443.529 329.007C442.944 328.276 442.067 327.691 441.628 326.96C425.251 304.295 405.511 285.14 382.846 268.763C380.068 266.862 376.851 265.254 375.243 262.037C376.997 261.744 378.752 261.598 380.361 261.159C385.04 260.136 388.988 255.603 388.695 251.362C388.257 246.245 385.625 242.443 380.507 241.273C375.243 240.103 371.587 242.735 369.248 247.268C366.323 252.971 369.833 256.773 372.903 260.721C370.71 260.867 369.394 259.258 367.785 258.381C327.72 234.108 284.292 221.679 237.5 220.802C209.571 220.363 182.227 224.311 155.615 232.792C127.832 241.712 102.389 254.872 79.2858 272.565C48.1401 296.399 23.1358 325.205 5.00404 360.007C-10.9344 390.421 -20.1465 422.883 -22.9247 457.099C-25.8492 492.339 -21.9012 526.848 -10.4957 560.479C-7.27878 569.838 -3.76939 579.05 -0.406242 588.262C-1.57603 587.531 -2.59961 586.8 -3.76939 586.069C-7.86366 582.998 -12.2504 583.144 -16.0522 586.361C-19.5616 589.286 -21.3163 593.087 -19.2691 597.767C-17.222 602.299 -13.7126 604.932 -8.74102 604.493C-3.91563 604.054 -0.698692 600.983 0.324875 596.158C0.763546 594.257 0.471096 592.356 0.617321 590.455C4.12669 593.672 5.00402 598.351 7.3436 602.299C29.8621 641.341 59.3993 673.657 97.71 697.637C99.1722 698.515 100.927 699.1 101.073 701.293C99.9033 701.147 98.7335 701.001 97.71 700.854C92.5921 699.831 87.9129 702.463 85.8658 707.727C84.1111 712.26 85.8658 717.67 89.9601 720.302C94.3468 723.08 99.3184 722.495 103.12 718.547C107.799 713.722 107.214 708.604 101.073 701.293C115.111 707.873 129.002 714.453 143.039 721.033C141.138 721.033 139.237 720.741 137.337 721.033C132.365 721.764 129.294 724.981 128.563 729.807C127.686 735.071 130.318 738.873 135.143 740.773C139.822 742.674 143.917 741.212 146.841 737.118C149.766 733.024 149.766 728.929 146.402 724.981C145.379 723.665 143.478 723.08 143.186 721.033C149.327 721.326 154.591 724.396 160.44 726.151C192.609 735.509 225.363 738.288 258.849 735.363C285.754 733.024 311.489 726.151 336.201 715.477C336.347 717.231 334.885 718.255 334.3 719.571C331.814 724.543 333.569 729.953 338.394 733.024C342.635 735.656 347.899 734.632 351.262 730.392C354.479 726.443 354.04 720.448 350.385 716.793C348.045 714.453 344.974 714.014 342.05 713.137C344.828 711.821 347.46 710.213 350.239 709.043C360.913 704.217 370.271 697.053 380.507 691.496C380.361 692.666 380.068 693.836 380.068 695.005C379.63 700.562 382.115 704.364 387.379 706.118C392.205 707.727 397.323 705.534 399.808 701.147C402.294 696.906 401.124 691.788 397.176 687.987C393.959 684.916 390.889 685.208 387.818 684.77ZM13.1926 336.026C13.1926 330.323 8.22096 324.913 2.81068 324.767C-2.59961 324.62 -7.86368 329.885 -8.0099 335.441C-8.15612 341.144 -3.03827 346.554 2.51823 346.408C7.92852 346.262 13.1926 341.144 13.1926 336.026ZM305.055 740.773C305.055 735.071 300.669 730.392 294.966 730.245C289.117 730.099 283.999 735.071 284.145 740.773C284.145 746.622 289.263 751.448 294.966 751.448C300.522 751.302 305.055 746.476 305.055 740.773ZM-28.6274 554.777C-22.6323 554.777 -18.2456 550.098 -18.2456 543.956C-18.3918 538.4 -23.0709 533.721 -28.6274 533.721C-34.3302 533.721 -39.1556 538.546 -39.1556 544.395C-39.3018 550.683 -35.0613 554.777 -28.6274 554.777ZM-23.0709 435.604C-23.0709 429.902 -28.335 424.93 -33.8915 425.076C-39.0094 425.222 -44.4196 430.487 -44.5659 435.458C-44.7121 440.868 -39.3018 446.279 -33.7453 446.279C-28.1888 446.279 -23.0709 441.307 -23.0709 435.604ZM189.392 734.778C183.69 734.778 178.572 739.604 178.425 745.306C178.279 751.009 183.251 756.273 188.954 756.127C194.364 756.127 199.774 750.717 199.774 745.306C199.774 740.189 194.51 734.924 189.392 734.778ZM76.5075 266.277C81.9178 266.423 86.8894 261.598 87.0356 256.188C87.1818 250.193 82.6489 245.221 76.7999 245.075C71.0972 244.928 65.9794 249.9 65.8331 255.457C65.6869 261.159 70.6585 266.131 76.5075 266.277ZM63.9322 680.383C64.0785 675.265 58.8144 669.855 53.6966 669.562C48.8712 669.27 43.1684 674.827 43.0222 680.091C42.876 684.916 47.8476 690.034 53.1117 690.326C58.3757 690.619 63.786 685.647 63.9322 680.383ZM-18.9767 391.445C-13.8589 391.299 -8.74102 385.742 -9.03346 380.478C-9.32591 375.36 -14.4437 370.535 -19.4153 370.681C-24.6794 370.681 -29.7972 375.945 -29.651 381.355C-29.651 386.327 -24.0945 391.591 -18.9767 391.445ZM6.17383 639.879C6.17383 645.582 10.9992 650.115 16.7019 649.968C22.4047 649.822 27.23 644.704 27.0838 638.855C26.9376 633.299 22.1122 628.912 16.2633 628.912C9.97564 629.058 6.02761 633.299 6.17383 639.879ZM234.722 207.495C235.014 201.792 230.481 196.967 224.925 196.821C219.661 196.675 214.397 201.792 214.25 207.057C214.25 212.028 219.514 217.585 224.632 217.731C229.604 217.877 234.575 212.759 234.722 207.495ZM35.1261 303.272C40.5364 303.126 45.3618 298.154 45.3618 292.597C45.3618 287.333 40.244 282.654 34.6875 282.654C28.9847 282.8 24.4518 287.48 24.7443 293.182C25.0367 298.446 30.3007 303.418 35.1261 303.272ZM272.155 212.467C272.009 218.316 276.395 222.849 282.098 223.141C287.947 223.287 292.919 218.462 293.065 212.759C293.211 207.057 288.678 202.524 282.976 202.231C276.98 202.085 272.301 206.472 272.155 212.467ZM134.705 229.867C134.851 224.018 130.464 219.632 124.615 219.778C119.205 219.778 114.087 224.75 114.233 230.014C114.233 234.693 119.644 239.957 124.469 240.103C130.172 240.249 134.558 235.863 134.705 229.867ZM173.161 224.457C178.718 224.457 183.836 219.193 183.69 213.49C183.543 207.934 178.279 203.108 172.577 203.255C167.166 203.401 162.341 208.373 162.341 213.783C162.341 219.339 167.605 224.457 173.161 224.457ZM-35.9386 501.405C-30.967 501.259 -25.4105 495.556 -25.703 490.731C-25.8492 485.32 -31.1133 480.641 -36.5236 480.934C-42.3725 481.226 -46.613 485.759 -46.3205 491.608C-45.8819 496.726 -40.9103 501.551 -35.9386 501.405ZM250.075 749.401C250.221 743.844 246.127 739.165 240.717 738.872C235.307 738.58 230.043 743.259 229.75 748.669C229.458 753.934 234.575 759.344 239.986 759.198C245.396 759.344 249.929 754.811 250.075 749.401ZM333.277 217.292C327.866 217.292 323.187 221.679 322.895 226.943C322.748 232.353 327.866 237.764 332.984 237.764C337.956 237.764 343.22 232.792 343.366 227.82C343.658 222.264 338.687 217.292 333.277 217.292Z" fill="#88D5EE"/>
<path d="M242.325 126.634C251.391 124.879 260.457 126.926 269.377 127.803C301.692 131.459 332.984 139.647 363.106 152.223C364.861 152.954 367.493 152.808 368.078 155.586C343.805 168.746 319.678 181.76 295.551 194.92C292.48 196.675 290.872 196.236 288.825 193.458C273.325 171.086 257.825 148.86 242.325 126.634ZM321.725 161.435C321.871 149.591 311.636 139.209 299.791 138.916C287.655 138.624 276.98 149.006 276.688 160.996C276.542 173.133 286.777 183.661 299.06 183.807C311.051 184.1 321.579 173.864 321.725 161.435Z" fill="#0B53A1"/>
<path d="M107.068 148.567C115.11 143.157 124.469 141.402 133.535 138.917C163.511 130.436 194.218 125.756 225.363 125.61C226.825 125.61 228.141 125.464 229.165 126.634C211.911 148.567 194.51 170.501 177.256 192.435C175.501 194.774 174.185 196.675 170.822 194.189C149.765 178.836 128.417 163.775 107.068 148.567ZM168.628 181.468C180.911 181.76 191.439 171.671 191.732 159.388C192.024 147.398 181.496 136.723 169.359 136.431C157.662 136.138 146.841 146.374 146.402 158.218C145.964 170.355 156.346 181.175 168.628 181.468Z" fill="#0B53A1"/>
<path d="M-10.6416 222.118C-11.5189 220.655 -10.2029 220.071 -9.47183 219.339C20.0654 191.996 53.112 170.208 90.1066 154.27C91.2764 153.831 92.4462 152.661 93.7622 153.831C86.1586 180.005 78.7012 206.179 71.2437 232.353C69.7815 237.325 66.2721 235.132 63.6401 234.693C44.7772 231.622 25.9143 228.259 7.05147 225.042C1.20252 224.165 -4.79265 223.141 -10.6416 222.118ZM51.2111 184.246C38.782 183.953 28.8388 193.604 28.2539 205.594C27.669 217.731 38.3434 228.698 50.0413 228.99C62.1779 229.283 73.1446 218.901 73.1446 206.764C73.1446 194.628 63.3476 184.538 51.2111 184.246Z" fill="#0B53A1"/>
<path d="M229.312 824.121C223.463 826.168 217.467 824.999 211.472 824.706C175.94 822.951 141.577 815.786 108.238 803.65C107.507 803.357 106.922 802.773 106.337 802.48C130.464 789.027 154.591 775.721 178.426 761.976C181.643 760.075 182.959 761.684 184.567 763.731C197.581 781.131 210.595 798.532 223.609 816.079C225.51 818.857 227.411 821.489 229.312 824.121ZM197.581 794.292C197.581 782.155 187.053 771.773 174.916 771.773C163.218 771.773 152.69 782.301 152.544 794.145C152.544 806.282 163.218 817.102 175.062 816.956C187.199 816.81 197.435 806.574 197.581 794.292Z" fill="#0B53A1"/>
<path d="M379.922 160.557C387.087 162.02 392.936 166.26 399.077 169.623C427.006 185.123 452.303 204.278 475.114 226.651C476.137 227.674 477.746 228.552 477.453 230.452C470.581 231.184 463.562 231.915 456.689 232.5C435.487 234.108 414.138 235.424 392.936 237.179C389.134 237.471 388.257 235.863 387.818 232.646C385.332 208.519 382.554 184.538 379.922 160.557ZM412.091 188.048C399.662 188.048 389.719 197.845 389.719 209.981C389.719 222.995 399.223 232.646 411.945 232.792C423.935 232.938 434.61 222.556 434.61 210.858C434.756 198.429 424.374 188.048 412.091 188.048Z" fill="#0B53A1"/>
<path d="M95.9549 797.509C94.3465 798.971 93.0305 797.655 91.7145 797.07C56.9132 782.009 25.3288 761.976 -3.18481 736.972C-4.3546 735.948 -6.10927 734.925 -6.25549 733.024C21.6733 730.246 49.7482 727.614 77.677 724.835C82.2099 724.397 84.5495 725.274 85.2806 730.392C88.2051 750.717 91.7144 770.896 95.0776 791.221C95.2238 793.414 95.5163 795.462 95.9549 797.509ZM41.121 752.764C41.121 764.755 51.0642 775.136 63.0546 775.429C75.0449 775.575 86.0117 765.047 86.1579 753.203C86.3042 741.213 75.9223 730.684 63.6395 730.538C51.3567 730.246 41.2672 740.335 41.121 752.764Z" fill="#0B53A1"/>
<path d="M470.581 726.005C471.751 726.882 471.166 727.613 470.435 728.344C441.482 755.396 409.167 777.476 373.196 793.853C372.465 794.145 371.734 794.438 371.149 793.56C378.167 768.264 385.186 742.967 392.205 717.67C392.936 715.038 394.398 714.015 397.323 714.453C421.742 718.401 446.162 722.203 470.581 726.005ZM411.36 721.326C399.077 721.326 388.403 731.561 388.257 743.552C388.111 755.396 398.931 766.216 411.068 766.363C423.204 766.363 433.586 755.981 433.586 743.698C433.44 731.561 423.351 721.326 411.36 721.326Z" fill="#0B53A1"/>
<path d="M358.866 799.117C353.602 803.357 346.875 804.381 340.88 806.428C310.758 816.81 279.612 822.805 247.735 824.56C246.419 824.56 244.957 824.706 243.787 823.829C261.627 802.041 279.32 780.254 297.013 758.467C298.621 756.42 299.937 756.566 301.838 757.882C320.847 771.627 339.857 785.372 358.866 799.117ZM303.301 767.971C291.164 767.825 280.343 778.353 280.49 790.344C280.49 802.334 291.456 813.301 303.301 813.155C314.852 813.008 325.673 802.334 325.819 790.636C325.965 778.792 315.437 768.118 303.301 767.971Z" fill="#0B53A1"/>
<path d="M13.1926 336.026C13.1926 341.144 7.78236 346.262 2.51831 346.408C-2.89197 346.554 -8.00983 341.144 -8.00983 335.441C-7.8636 329.738 -2.59953 324.62 2.81075 324.767C8.22103 324.913 13.3389 330.469 13.1926 336.026Z" fill="#19A0D8"/>
<path d="M305.055 740.774C305.055 746.623 300.523 751.302 294.966 751.448C289.263 751.594 284.146 746.623 284.146 740.774C284.146 735.071 289.263 730.099 294.966 730.246C300.669 730.392 305.055 734.925 305.055 740.774Z" fill="#19A0D8"/>
<path d="M100.635 700.416C106.63 707.727 107.215 712.699 102.682 717.67C98.8798 721.618 93.9082 722.203 89.5215 719.425C85.4273 716.793 83.6725 711.383 85.4272 706.85C87.4744 701.732 92.0073 698.954 97.2714 699.977C98.2949 700.27 99.4647 700.27 100.635 700.416Z" fill="#19A0D8"/>
<path d="M189.392 734.779C194.51 734.779 199.774 740.189 199.774 745.307C199.774 750.717 194.364 756.127 188.953 756.127C183.251 756.127 178.279 751.01 178.425 745.307C178.572 739.75 183.689 734.779 189.392 734.779Z" fill="#19A0D8"/>
<path d="M379.922 690.911C381.969 688.133 384.601 686.232 387.818 684.916C390.889 685.209 393.96 684.916 396.445 687.402C400.393 691.204 401.563 696.322 399.077 700.562C396.445 704.949 391.327 707.142 386.648 705.534C381.53 703.779 378.898 699.977 379.337 694.421C379.63 693.105 379.776 691.935 379.922 690.911Z" fill="#19A0D8"/>
<path d="M76.5079 266.277C70.8052 266.131 65.8336 261.159 65.8336 255.603C65.9798 249.9 71.0976 245.075 76.8003 245.221C82.5031 245.367 87.036 250.339 87.036 256.334C86.8898 261.598 81.9182 266.277 76.5079 266.277Z" fill="#19A0D8"/>
<path d="M417.648 658.45C419.256 656.549 421.011 654.502 422.619 652.601C423.497 652.601 424.52 652.747 425.398 652.601C432.709 652.308 437.534 656.11 437.68 662.398C437.827 667.808 432.709 672.926 427.445 672.78C421.157 672.634 416.917 667.223 417.355 659.912C417.355 659.62 417.502 659.035 417.648 658.45Z" fill="#19A0D8"/>
<path d="M63.9322 680.383C63.7859 685.647 58.3757 690.619 52.9654 690.326C47.8475 690.034 42.7297 684.916 42.8759 680.091C43.0221 674.827 48.7249 669.27 53.5503 669.563C58.8143 669.855 64.0784 675.265 63.9322 680.383Z" fill="#19A0D8"/>
<path d="M-0.990814 587.823C-0.990814 588.701 -0.99081 589.578 0.17898 589.578L0.0327473 589.724C-0.113476 591.625 0.178976 593.672 -0.259695 595.427C-1.28326 600.252 -4.50018 603.323 -9.32557 603.762C-14.2972 604.2 -17.8065 601.568 -19.8537 597.035C-21.9008 592.503 -20.1461 588.554 -16.6368 585.63C-12.8349 582.559 -8.59446 582.267 -4.35397 585.338C-3.18418 586.361 -2.01438 587.092 -0.990814 587.823Z" fill="#19A0D8"/>
<path d="M335.616 714.746C337.517 714.015 339.564 713.284 341.465 712.406C344.39 713.284 347.46 713.576 349.8 716.062C353.456 719.864 353.894 725.713 350.677 729.661C347.314 733.755 342.05 734.925 337.81 732.293C332.838 729.222 331.23 723.666 333.715 718.84C334.3 717.524 335.763 716.501 335.616 714.746Z" fill="#19A0D8"/>
<path d="M6.17385 639.879C6.02762 633.153 9.97566 629.059 16.2633 628.912C22.1122 628.912 26.9376 633.299 27.0838 638.856C27.2301 644.705 22.4047 649.822 16.702 649.969C10.9992 650.115 6.17385 645.582 6.17385 639.879Z" fill="#19A0D8"/>
<path d="M418.525 294.352C415.893 291.72 413.407 288.942 412.091 285.287C412.237 279.584 414.869 275.636 420.28 273.881C424.374 272.565 427.883 274.174 430.662 277.39C433.586 280.754 434.317 284.555 432.27 288.65C430.369 292.598 427.298 294.499 423.058 294.499C421.742 294.645 420.133 294.499 418.525 294.352Z" fill="#19A0D8"/>
<path d="M234.722 207.495C234.576 212.76 229.604 217.731 224.632 217.585C219.515 217.439 214.104 212.028 214.25 206.911C214.25 201.647 219.661 196.529 224.925 196.675C230.481 197.114 235.014 201.939 234.722 207.495Z" fill="#19A0D8"/>
<path d="M35.1264 303.272C30.1548 303.418 25.037 298.447 24.8908 293.329C24.5983 287.626 29.1313 282.947 34.834 282.801C40.3905 282.655 45.5083 287.334 45.5083 292.744C45.3621 298.154 40.5367 303.126 35.1264 303.272Z" fill="#19A0D8"/>
<path d="M142.601 720.302C142.893 722.203 144.648 722.934 145.818 724.25C149.181 728.198 149.181 732.293 146.256 736.387C143.332 740.481 139.237 741.943 134.558 740.042C129.733 738.142 127.101 734.34 127.978 729.076C128.709 724.25 131.926 721.18 136.752 720.302C138.653 720.01 140.7 720.302 142.601 720.302Z" fill="#19A0D8"/>
<path d="M272.155 212.467C272.301 206.325 276.834 201.939 282.976 202.231C288.825 202.377 293.211 207.057 293.065 212.759C292.919 218.608 287.801 223.434 282.098 223.141C276.396 222.995 272.155 218.316 272.155 212.467Z" fill="#19A0D8"/>
<path d="M134.705 229.868C134.559 235.863 130.172 240.25 124.469 239.957C119.497 239.811 114.233 234.693 114.233 229.868C114.233 224.604 119.205 219.632 124.615 219.632C130.464 219.778 134.705 224.019 134.705 229.868Z" fill="#19A0D8"/>
<path d="M173.162 224.457C167.605 224.457 162.341 219.339 162.341 213.783C162.341 208.226 167.167 203.401 172.577 203.255C178.28 203.109 183.544 207.934 183.69 213.49C183.836 219.047 178.718 224.311 173.162 224.457Z" fill="#19A0D8"/>
<path d="M250.075 749.401C249.929 754.811 245.396 759.198 239.986 759.198C234.722 759.198 229.458 753.787 229.75 748.67C230.043 743.259 235.307 738.58 240.717 738.873C246.127 739.165 250.222 743.844 250.075 749.401Z" fill="#19A0D8"/>
<path d="M333.277 217.292C338.833 217.292 343.659 222.41 343.513 227.821C343.366 232.792 338.102 237.764 333.131 237.764C327.867 237.764 322.749 232.353 323.041 226.943C323.041 221.679 327.867 217.146 333.277 217.292Z" fill="#19A0D8"/>
<path d="M372.611 260.429C369.54 256.481 365.885 252.679 368.955 246.976C371.441 242.297 375.097 239.811 380.215 240.981C385.479 242.004 387.965 245.952 388.403 251.07C388.842 255.311 384.894 259.844 380.068 260.867C378.314 261.306 376.705 261.452 374.951 261.745H374.804C374.658 260.282 373.781 260.136 372.611 260.429Z" fill="#19A0D8"/>
<path d="M321.725 161.435C321.579 173.718 311.197 184.1 299.06 183.953C286.924 183.807 276.542 173.133 276.688 161.143C276.834 149.006 287.508 138.77 299.791 139.063C311.635 139.209 321.871 149.591 321.725 161.435Z" fill="#88D5EE"/>
<path d="M168.629 181.468C156.492 181.175 146.11 170.355 146.403 158.364C146.841 146.52 157.516 136.284 169.36 136.577C181.643 136.869 192.024 147.544 191.732 159.534C191.44 171.671 180.911 181.76 168.629 181.468Z" fill="#88D5EE"/>
<path d="M51.2109 184.246C63.3475 184.538 73.2907 194.628 73.1445 206.764C72.9983 218.755 62.1777 229.283 50.0412 228.99C38.3433 228.698 27.5227 217.731 28.2538 205.595C28.8387 193.604 38.7819 183.954 51.2109 184.246Z" fill="#88D5EE"/>
<path d="M197.581 794.292C197.581 806.574 187.199 816.81 175.062 816.956C163.218 817.103 152.544 806.282 152.544 794.146C152.544 782.301 163.072 771.773 174.916 771.773C187.053 771.773 197.581 782.155 197.581 794.292Z" fill="#88D5EE"/>
<path d="M412.091 188.047C424.374 188.047 434.609 198.576 434.609 210.712C434.463 222.41 423.935 232.792 411.945 232.646C399.223 232.5 389.719 222.849 389.719 209.835C389.719 197.845 399.808 187.901 412.091 188.047Z" fill="#88D5EE"/>
<path d="M41.1216 752.764C41.1216 740.335 51.3573 730.392 63.7863 730.392C76.0691 730.538 86.451 741.066 86.3047 753.056C86.1585 764.9 75.0455 775.429 63.2014 775.282C51.211 775.136 41.1216 764.754 41.1216 752.764Z" fill="#88D5EE"/>
<path d="M411.36 721.326C423.35 721.326 433.44 731.562 433.44 743.552C433.44 755.835 423.058 766.363 410.921 766.217C398.931 766.217 387.964 755.25 388.11 743.406C388.403 731.562 399.077 721.326 411.36 721.326Z" fill="#88D5EE"/>
<path d="M303.301 767.971C315.437 768.118 325.966 778.646 325.819 790.782C325.673 802.334 314.853 813.154 303.301 813.301C291.603 813.447 280.49 802.48 280.49 790.49C280.49 778.499 291.164 767.971 303.301 767.971Z" fill="#88D5EE"/>
<path d="M232.821 633.884C149.327 634.908 77.5312 568.083 75.7765 481.08C74.0218 392.176 143.771 322.72 229.165 320.965C317.923 319.064 389.28 390.275 389.134 478.01C388.988 563.258 319.385 634.323 232.821 633.884ZM232.821 589.578C294.381 589.871 346.144 540.008 345.121 474.646C344.243 412.794 294.235 361.615 229.312 363.663C169.945 365.563 120.229 413.964 120.667 478.448C121.106 539.57 171.846 589.871 232.821 589.578Z" fill="#19A0D8"/>
<path d="M170.383 714.307C145.525 712.991 126.37 692.52 127.832 668.685C129.441 643.681 149.766 625.842 174.916 627.304C197.581 628.62 216.444 649.676 215.128 672.048C213.958 696.468 193.487 715.623 170.383 714.307ZM135.728 670.879C135.582 690.619 151.667 706.85 171.553 706.85C191.293 706.85 207.086 690.911 207.232 670.879C207.378 651.138 191.586 635.054 172.138 634.908C151.959 634.761 135.875 650.554 135.728 670.879Z" fill="#0B53A1"/>
<path d="M73.8755 477.717C73.7293 501.551 54.2815 520.999 30.447 521.145C6.61256 521.292 -13.2739 501.113 -12.9814 477.132C-12.8352 453.298 6.90501 433.704 30.5933 433.704C54.574 433.704 73.8755 453.444 73.8755 477.717ZM30.1546 513.103C50.4797 513.103 66.4181 497.311 66.4181 476.986C66.4181 457.538 50.3335 441.746 30.5933 441.746C10.2682 441.746 -5.23156 457.246 -5.52401 477.863C-5.81646 496.872 10.7068 513.103 30.1546 513.103Z" fill="#0B53A1"/>
<path d="M479.793 474.939C479.793 499.212 460.345 518.952 436.218 518.806C412.53 518.806 392.79 499.212 392.643 475.377C392.497 451.543 412.384 431.51 436.364 431.364C460.199 431.364 479.793 451.104 479.793 474.939ZM472.189 474.792C471.897 454.906 455.958 439.26 435.926 439.406C416.039 439.552 400.393 455.783 400.54 475.67C400.686 495.264 417.063 511.202 436.949 511.056C456.69 510.763 472.482 494.679 472.189 474.792Z" fill="#0B53A1"/>
<path d="M396.738 312.923C420.134 311.753 440.751 330.908 441.628 354.889C442.652 378.577 423.789 398.756 399.808 399.926C375.535 401.096 355.21 382.087 354.187 357.375C353.455 333.979 372.465 314.093 396.738 312.923ZM433.732 356.351C433.732 335.88 417.794 320.38 396.884 320.526C378.314 320.673 362.521 337.05 362.375 355.913C362.375 376.384 377.875 392.322 398.2 392.322C418.233 392.176 433.732 376.53 433.732 356.351Z" fill="#0B53A1"/>
<path d="M67.1492 551.999C91.1299 551.853 111.309 571.885 111.163 595.72C111.016 619.408 91.4223 639.148 67.7341 639.441C44.192 639.733 23.8669 619.554 23.7207 595.72C23.7207 572.178 43.6071 552.145 67.1492 551.999ZM67.5878 560.041C47.8476 559.895 31.9092 575.541 31.763 595.135C31.6168 615.752 47.1165 631.398 67.5878 631.398C87.1818 631.545 103.12 615.899 103.266 596.305C103.413 575.687 88.0592 560.187 67.5878 560.041Z" fill="#0B53A1"/>
<path d="M298.914 627.304C323.333 627.304 342.635 646.459 342.781 670.733C342.781 694.713 323.48 714.161 299.645 714.307C275.664 714.453 255.778 694.713 255.632 670.733C255.339 647.044 275.08 627.45 298.914 627.304ZM335.031 670.733C335.031 651.139 318.947 634.762 299.791 634.762C279.759 634.762 263.089 650.992 263.235 670.879C263.382 690.765 279.466 706.704 299.206 706.85C318.8 706.85 335.031 690.473 335.031 670.733Z" fill="#0B53A1"/>
<path d="M296.575 240.542C320.994 240.542 340.149 259.844 340.149 284.263C340.149 308.244 320.701 327.692 296.867 327.692C272.886 327.692 253.146 307.951 253.292 283.824C253.292 259.844 272.74 240.542 296.575 240.542ZM296.282 319.942C316.315 320.088 332.692 303.711 332.692 283.678C332.546 264.377 316.461 248.146 297.013 247.853C277.565 247.561 260.896 263.938 260.75 283.532C260.604 303.418 276.688 319.942 296.282 319.942Z" fill="#0B53A1"/>
<path d="M171.846 327.107C147.865 327.253 127.979 307.366 128.125 283.386C128.271 259.551 147.719 240.103 171.553 239.957C195.388 239.811 215.567 259.99 215.42 283.678C215.128 307.659 195.68 326.96 171.846 327.107ZM171.7 247.707C152.252 247.415 136.313 263.061 135.875 282.801C135.436 303.126 151.082 319.064 171.407 319.211C191.294 319.357 206.939 304.003 207.378 284.117C207.817 263.938 192.171 248 171.7 247.707Z" fill="#0B53A1"/>
<path d="M372.611 260.428C373.781 260.136 374.512 260.282 374.95 261.598C373.781 261.891 372.903 261.744 372.611 260.428Z" fill="#7E54A2"/>
<path d="M0.324771 589.578C-0.991244 589.578 -0.991248 588.701 -0.845024 587.824C-0.406353 588.409 -0.113901 588.994 0.324771 589.578Z" fill="#7E54A2"/>
<path d="M135.728 670.879C135.874 650.7 151.813 634.762 172.138 634.908C191.586 635.054 207.378 651.139 207.232 670.879C207.085 690.911 191.293 706.85 171.553 706.85C151.813 706.704 135.728 690.619 135.728 670.879Z" fill="#19A0D8"/>
<path d="M30.1546 513.103C10.5606 513.103 -5.81646 496.872 -5.67023 477.863C-5.37778 457.392 10.1219 441.746 30.4471 441.746C50.1873 441.746 66.2719 457.538 66.2719 476.986C66.4181 497.311 50.6259 513.103 30.1546 513.103Z" fill="#19A0D8"/>
<path d="M109.408 357.521C109.262 381.355 89.8141 400.803 65.9796 400.949C42.1451 401.096 22.2587 380.917 22.5512 356.936C22.6974 333.102 42.4376 313.508 66.1259 313.508C90.1066 313.508 109.408 333.248 109.408 357.521ZM65.6872 392.907C86.0123 392.907 101.951 377.115 101.951 356.79C101.951 337.342 85.8661 321.55 66.1259 321.55C45.8008 321.55 30.301 337.05 30.0086 357.667C29.7161 376.676 46.0932 392.907 65.6872 392.907Z" fill="#0B53A1"/>
<path d="M65.6872 392.907C46.0932 392.907 29.7161 376.676 29.8624 357.667C30.1548 337.196 45.6545 321.55 65.9796 321.55C85.7199 321.55 101.804 337.342 101.804 356.79C101.951 376.969 86.0123 392.907 65.6872 392.907Z" fill="#19A0D8"/>
<path d="M472.189 474.792C472.482 494.825 456.69 510.91 436.803 511.056C416.917 511.202 400.54 495.264 400.394 475.67C400.247 455.637 416.039 439.553 435.78 439.406C455.959 439.26 471.897 454.76 472.189 474.792Z" fill="#19A0D8"/>
<path d="M443.968 593.819C443.968 618.092 424.52 637.832 400.394 637.686C376.705 637.686 356.965 618.092 356.819 594.258C356.673 570.423 376.559 550.391 400.54 550.244C424.228 550.244 443.968 569.985 443.968 593.819ZM436.365 593.527C436.072 573.64 420.134 557.994 400.101 558.14C380.215 558.287 364.569 574.518 364.715 594.404C364.861 613.998 381.238 629.936 401.125 629.79C420.865 629.644 436.511 613.559 436.365 593.527Z" fill="#0B53A1"/>
<path d="M436.365 593.526C436.657 613.559 420.865 629.643 400.978 629.79C381.092 629.936 364.715 613.998 364.569 594.404C364.422 574.371 380.215 558.286 399.955 558.14C420.134 558.14 436.072 573.64 436.365 593.526Z" fill="#19A0D8"/>
<path d="M433.732 356.351C433.732 376.676 418.233 392.322 398.2 392.322C377.875 392.322 362.375 376.53 362.375 355.912C362.375 337.05 378.314 320.673 396.884 320.526C417.794 320.38 433.732 335.734 433.732 356.351Z" fill="#19A0D8"/>
<path d="M67.588 560.041C88.0593 560.187 103.413 575.833 103.267 596.45C103.12 616.044 87.1819 631.69 67.588 631.544C47.1166 631.398 31.6169 615.752 31.7631 595.281C31.7631 575.54 47.8477 559.894 67.588 560.041Z" fill="#19A0D8"/>
<path d="M335.031 670.733C335.031 690.473 318.8 706.704 299.206 706.704C279.466 706.704 263.381 690.619 263.235 670.733C263.089 650.993 279.612 634.615 299.791 634.615C318.946 634.762 335.031 651.285 335.031 670.733Z" fill="#19A0D8"/>
<path d="M296.282 319.942C276.688 319.795 260.457 303.418 260.75 283.678C260.896 264.084 277.565 247.707 297.013 247.999C316.461 248.292 332.545 264.523 332.692 283.824C332.838 303.711 316.315 320.088 296.282 319.942Z" fill="#19A0D8"/>
<path d="M171.699 247.707C192.171 247.999 207.67 263.938 207.378 284.263C207.085 304.149 191.293 319.503 171.407 319.357C150.936 319.21 135.436 303.272 135.874 282.947C136.313 263.06 152.252 247.561 171.699 247.707Z" fill="#19A0D8"/>
<path d="M178.864 460.024C181.789 460.316 181.35 457.684 182.081 456.222C191.586 436.043 206.793 423.907 229.458 421.713C254.462 419.228 281.513 439.991 286.485 464.557C292.773 495.849 271.278 525.971 240.863 530.504C218.491 533.867 197.873 524.07 185.298 502.429C178.864 491.316 176.963 479.179 179.157 466.458C179.303 464.411 181.204 462.071 178.864 460.024Z" fill="#0B53A1"/>
<path d="M148.45 526.556C143.332 526.702 138.36 525.971 136.167 520.707C134.12 515.735 136.898 511.787 140.261 508.278C148.596 499.65 158.831 495.118 170.822 495.118C175.501 495.118 179.741 496.434 181.789 501.113C183.69 505.499 181.204 509.155 178.572 512.226C170.383 521.145 160.294 525.678 148.45 526.556Z" fill="#7E54A2"/>
<path d="M345.121 474.646C344.243 412.794 294.235 361.615 229.312 363.663C169.945 365.563 120.229 413.964 120.667 478.448C121.106 539.716 171.846 590.017 232.821 589.725C294.381 589.871 346.144 540.008 345.121 474.646ZM240.717 530.504C218.345 533.867 197.727 524.07 185.152 502.429C178.718 491.316 176.817 479.179 179.01 466.458C179.303 464.411 181.204 462.071 179.01 460.024C181.935 460.316 181.35 457.684 182.081 456.222C191.586 436.043 206.793 423.907 229.458 421.713C254.462 419.228 281.513 439.991 286.485 464.557C292.773 495.849 271.132 525.971 240.717 530.504Z" fill="#19A0D8"/>
<path d="M401.856 575.248C399.224 575.248 394.837 564.135 392.351 564.867C389.865 565.744 392.79 577.296 390.743 578.758C388.696 580.22 378.46 573.786 376.998 575.98C375.535 578.027 384.747 585.63 383.87 588.262C383.139 590.602 371.149 591.333 371.149 594.111C371.149 596.89 383.139 597.474 383.87 599.96C384.747 602.446 375.389 610.05 376.998 612.243C378.46 614.29 388.696 607.856 390.743 609.465C392.79 610.927 389.865 622.625 392.351 623.356C394.691 624.087 399.224 612.974 401.856 612.974C404.488 612.974 408.874 624.087 411.36 623.356C413.846 622.479 410.922 610.927 412.969 609.465C415.016 608.003 425.251 614.436 426.714 612.243C428.176 610.196 418.964 602.592 419.841 599.96C420.572 597.621 432.563 596.89 432.563 594.111C432.563 591.479 420.572 590.748 419.841 588.262C418.964 585.777 428.322 578.173 426.714 575.98C425.251 573.932 415.016 580.366 412.969 578.758C410.922 577.296 413.846 565.598 411.36 564.867C408.874 564.135 404.488 575.248 401.856 575.248ZM401.856 614.875C400.247 614.875 400.54 603.031 399.077 602.592C397.615 602.154 390.889 611.804 389.573 610.927C388.257 610.05 395.422 600.545 394.544 599.375C393.667 598.059 382.408 602.007 381.969 600.545C381.531 599.083 392.79 595.72 392.79 594.111C392.79 592.503 381.531 589.14 381.969 587.678C382.408 586.215 393.667 590.163 394.544 588.847C395.422 587.531 388.257 578.173 389.573 577.296C390.889 576.418 397.469 586.069 399.077 585.63C400.54 585.192 400.247 573.348 401.856 573.348C403.464 573.348 403.172 585.192 404.634 585.63C406.096 586.069 412.822 576.418 414.138 577.296C415.454 578.173 408.29 587.677 409.167 588.847C410.044 590.163 421.303 586.215 421.742 587.678C422.181 589.14 410.922 592.503 410.922 594.111C410.922 595.72 422.181 599.083 421.742 600.545C421.303 602.007 410.044 598.059 409.167 599.375C408.29 600.691 415.454 610.05 414.138 610.927C412.822 611.804 406.242 602.154 404.634 602.592C403.172 603.031 403.464 614.875 401.856 614.875Z" fill="#0B53A1"/>
<path d="M299.06 653.04C296.428 653.04 292.041 641.926 289.555 642.658C287.07 643.535 289.994 655.087 287.947 656.549C285.9 658.011 275.664 651.577 274.202 653.771C272.74 655.818 281.952 663.421 281.074 666.053C280.343 668.393 268.353 669.124 268.353 671.902C268.353 674.534 280.343 675.266 281.074 677.751C281.952 680.237 272.593 687.841 274.202 690.034C275.664 692.081 285.9 685.647 287.947 687.256C289.994 688.718 287.07 700.416 289.555 701.147C291.895 701.878 296.428 690.765 299.06 690.765C301.692 690.765 306.079 701.878 308.565 701.147C311.05 700.27 308.126 688.718 310.173 687.256C312.22 685.794 322.456 692.228 323.918 690.034C325.38 687.987 316.168 680.383 317.046 677.751C317.777 675.412 329.767 674.681 329.767 671.902C329.767 669.124 317.777 668.539 317.046 666.053C316.168 663.568 325.526 655.964 323.918 653.771C322.456 651.723 312.22 658.157 310.173 656.549C308.126 655.087 311.05 643.389 308.565 642.658C306.225 641.926 301.838 653.04 299.06 653.04ZM299.06 692.666C297.452 692.666 297.744 680.822 296.282 680.383C294.819 679.945 288.093 689.595 286.777 688.718C285.461 687.841 292.626 678.336 291.749 677.166C290.871 675.85 279.612 679.798 279.174 678.336C278.735 676.874 289.994 673.511 289.994 671.902C289.994 670.294 278.735 666.931 279.174 665.469C279.612 664.006 290.871 667.954 291.749 666.638C292.626 665.322 285.461 655.964 286.777 655.087C288.093 654.209 294.673 663.86 296.282 663.421C297.744 662.983 297.452 651.139 299.06 651.139C300.668 651.139 300.376 662.983 301.838 663.421C303.3 663.86 310.027 654.209 311.343 655.087C312.659 655.964 305.494 665.469 306.371 666.638C307.249 667.954 318.508 664.006 318.946 665.469C319.385 666.931 308.126 670.294 308.126 671.902C308.126 673.511 319.385 676.874 318.946 678.336C318.508 679.798 307.249 675.85 306.371 677.166C305.494 678.482 312.659 687.841 311.343 688.718C310.027 689.595 303.447 679.945 301.838 680.383C300.376 680.822 300.668 692.666 299.06 692.666Z" fill="#0B53A1"/>
<path d="M171.553 652.016C168.921 652.016 164.534 640.903 162.049 641.634C159.563 642.511 162.487 654.063 160.44 655.525C158.393 656.987 148.157 650.554 146.695 652.747C145.233 654.794 154.445 662.398 153.568 665.03C152.836 667.369 140.846 668.1 140.846 670.879C140.846 673.657 152.836 674.242 153.568 676.728C154.445 679.213 145.087 686.817 146.695 689.01C148.157 691.058 158.393 684.624 160.44 686.232C162.487 687.694 159.563 699.392 162.049 700.123C164.388 700.855 168.921 689.742 171.553 689.742C174.185 689.742 178.572 700.855 181.058 700.123C183.543 699.246 180.619 687.694 182.666 686.232C184.713 684.77 194.949 691.204 196.411 689.01C197.873 686.963 188.661 679.36 189.539 676.728C190.27 674.388 202.26 673.657 202.26 670.879C202.26 668.247 190.27 667.516 189.539 665.03C188.661 662.544 198.02 654.94 196.411 652.747C194.949 650.7 184.713 657.134 182.666 655.525C180.619 654.063 183.543 642.365 181.058 641.634C178.572 640.757 174.185 652.016 171.553 652.016ZM171.553 691.496C169.945 691.496 170.237 679.652 168.775 679.213C167.313 678.775 160.586 688.426 159.27 687.548C157.954 686.671 165.119 677.166 164.242 675.997C163.365 674.681 152.105 678.629 151.667 677.166C151.228 675.704 162.487 672.341 162.487 670.732C162.487 669.124 151.228 665.761 151.667 664.299C152.105 662.836 163.365 666.784 164.242 665.468C165.119 664.152 157.954 654.794 159.27 653.917C160.586 653.039 167.166 662.69 168.775 662.252C170.237 661.813 169.945 649.969 171.553 649.969C173.162 649.969 172.869 661.813 174.331 662.252C175.794 662.69 182.52 653.039 183.836 653.917C185.152 654.794 177.987 664.299 178.864 665.468C179.742 666.784 191.001 662.836 191.439 664.299C191.878 665.761 180.619 669.124 180.619 670.732C180.619 672.341 191.878 675.704 191.439 677.166C191.001 678.629 179.742 674.681 178.864 675.997C177.987 677.313 185.152 686.671 183.836 687.548C182.52 688.426 175.94 678.775 174.331 679.213C172.869 679.652 173.162 691.496 171.553 691.496Z" fill="#0B53A1"/>
<path d="M67.442 577.003C64.81 577.003 60.4232 565.89 57.9374 566.621C55.4516 567.498 58.3761 579.05 56.329 580.512C54.2818 581.974 44.0462 575.54 42.5839 577.734C41.1217 579.781 50.3338 587.385 49.4565 590.017C48.7253 592.356 36.735 593.087 36.735 595.866C36.735 598.498 48.7253 599.229 49.4565 601.714C50.3338 604.2 40.9755 611.804 42.5839 613.997C44.0462 616.044 54.2818 609.611 56.329 611.219C58.3761 612.681 55.4516 624.379 57.9374 625.11C60.277 625.841 64.81 614.728 67.442 614.728C70.074 614.728 74.4607 625.841 76.9465 625.11C79.4323 624.233 76.5079 612.681 78.555 611.219C80.6021 609.757 90.8378 616.191 92.3 613.997C93.7623 611.95 84.5502 604.346 85.4275 601.714C86.1586 599.375 98.149 598.644 98.149 595.866C98.149 593.087 86.1586 592.502 85.4275 590.017C84.5502 587.531 93.9085 579.927 92.3 577.734C90.8378 575.687 80.6021 582.12 78.555 580.512C76.5079 579.05 79.4323 567.352 76.9465 566.621C74.4607 565.89 70.074 577.003 67.442 577.003ZM67.442 616.629C65.8335 616.629 66.126 604.785 64.6637 604.347C63.2015 603.908 56.4752 613.559 55.1592 612.681C53.8432 611.804 61.0081 602.299 60.1308 601.13C59.2535 599.814 47.9942 603.762 47.5555 602.299C47.1169 600.837 58.3761 597.474 58.3761 595.866C58.3761 594.257 47.1169 590.894 47.5555 589.432C47.9942 587.969 59.2535 591.917 60.1308 590.601C61.0081 589.285 53.8432 579.927 55.1592 579.05C56.4752 578.172 63.0553 587.823 64.6637 587.385C66.126 586.946 65.8335 575.102 67.442 575.102C69.0504 575.102 68.758 586.946 70.2202 587.385C71.6825 587.823 78.4088 578.172 79.7248 579.05C81.0408 579.927 73.8758 589.432 74.7532 590.601C75.6305 591.917 86.8898 587.969 87.3284 589.432C87.7671 590.894 76.5079 594.257 76.5079 595.866C76.5079 597.474 87.7671 600.837 87.3284 602.299C86.8898 603.762 75.6305 599.814 74.7532 601.13C73.8758 602.446 81.0408 611.804 79.7248 612.681C78.4088 613.559 71.8287 603.908 70.2202 604.347C68.758 604.785 69.0504 616.629 67.442 616.629Z" fill="#0B53A1"/>
<path d="M31.7629 458.708C29.1309 458.708 24.7442 447.595 22.2584 448.326C19.7726 449.203 22.697 460.755 20.6499 462.217C18.6028 463.68 8.3671 457.246 6.90486 459.439C5.44262 461.486 14.6547 469.09 13.7774 471.722C13.0463 474.061 1.05591 474.793 1.05591 477.571C1.05591 480.203 13.0463 480.934 13.7774 483.42C14.6547 485.906 5.2964 493.509 6.90486 495.703C8.3671 497.75 18.6028 491.316 20.6499 492.924C22.697 494.387 19.7726 506.084 22.2584 506.816C24.5979 507.547 29.1309 496.434 31.7629 496.434C34.3949 496.434 38.7817 507.547 41.2675 506.816C43.7533 505.938 40.8288 494.387 42.8759 492.924C44.923 491.462 55.1587 497.896 56.621 495.703C58.0832 493.655 48.8711 486.052 49.7484 483.42C50.4795 481.08 62.4699 480.349 62.4699 477.571C62.4699 474.939 50.4795 474.208 49.7484 471.722C48.8711 469.236 58.2294 461.632 56.621 459.439C55.1587 457.392 44.923 463.826 42.8759 462.217C40.8288 460.755 43.7533 449.057 41.2675 448.326C38.7817 447.595 34.3949 458.708 31.7629 458.708ZM31.7629 498.335C30.1544 498.335 30.4469 486.491 28.9846 486.052C27.5224 485.613 20.7961 495.264 19.4801 494.387C18.1641 493.509 25.3291 484.005 24.4517 482.835C23.5744 481.519 12.3151 485.467 11.8765 484.005C11.4378 482.542 22.697 479.179 22.697 477.571C22.697 475.962 11.4378 472.599 11.8765 471.137C12.3151 469.675 23.5744 473.623 24.4517 472.307C25.3291 470.991 18.1641 461.632 19.4801 460.755C20.7961 459.878 27.3762 469.529 28.9846 469.09C30.4469 468.651 30.1544 456.807 31.7629 456.807C33.3714 456.807 33.0789 468.651 34.5412 469.09C36.0034 469.529 42.7297 459.878 44.0457 460.755C45.3617 461.632 38.1968 471.137 39.0741 472.307C39.9514 473.623 51.2107 469.675 51.6493 471.137C52.088 472.599 40.8288 475.962 40.8288 477.571C40.8288 479.179 52.088 482.542 51.6493 484.005C51.2107 485.467 39.9514 481.519 39.0741 482.835C38.1968 484.151 45.3617 493.509 44.0457 494.387C42.7297 495.264 36.1496 485.613 34.5412 486.052C33.0789 486.491 33.3714 498.335 31.7629 498.335Z" fill="#0B53A1"/>
<path d="M63.9319 338.366C61.2999 338.366 56.9132 327.253 54.4274 327.984C51.9416 328.861 54.866 340.413 52.8189 341.875C50.7718 343.337 40.5361 336.904 39.0739 339.097C37.6116 341.144 46.8237 348.748 45.9464 351.38C45.2153 353.719 33.2249 354.45 33.2249 357.229C33.2249 360.007 45.2153 360.592 45.9464 363.078C46.8237 365.563 37.4654 373.167 39.0739 375.36C40.5361 377.408 50.7718 370.974 52.8189 372.582C54.866 374.044 51.9416 385.742 54.4274 386.473C56.7669 387.205 61.2999 376.092 63.9319 376.092C66.5639 376.092 70.9507 387.205 73.4365 386.473C75.9223 385.596 72.9978 374.044 75.0449 372.582C77.092 371.12 87.3277 377.554 88.79 375.36C90.2522 373.313 81.0401 365.71 81.9174 363.078C82.6485 360.738 94.6389 360.007 94.6389 357.229C94.6389 354.597 82.6485 353.866 81.9174 351.38C81.0401 348.894 90.3984 341.29 88.79 339.097C87.3277 337.05 77.092 343.484 75.0449 341.875C72.9978 340.413 75.9223 328.715 73.4365 327.984C70.9507 327.253 66.5639 338.366 63.9319 338.366ZM63.9319 377.992C62.3235 377.992 62.6159 366.148 61.1536 365.71C59.6914 365.271 52.9651 374.922 51.6491 374.044C50.3331 373.167 57.4981 363.663 56.6207 362.493C55.7434 361.177 44.4841 365.125 44.0455 363.662C43.6068 362.2 54.866 358.837 54.866 357.229C54.866 355.62 43.6068 352.257 44.0455 350.795C44.4841 349.333 55.7434 353.281 56.6207 351.965C57.4981 350.649 50.3331 341.29 51.6491 340.413C52.9651 339.536 59.5452 349.186 61.1536 348.748C62.6159 348.309 62.3235 336.465 63.9319 336.465C65.5404 336.465 65.2479 348.309 66.7102 348.748C68.1724 349.186 74.8987 339.536 76.2147 340.413C77.5307 341.29 70.3658 350.795 71.2431 351.965C72.1204 353.281 83.3797 349.333 83.8184 350.795C84.257 352.257 72.9978 355.62 72.9978 357.229C72.9978 358.837 84.257 362.2 83.8184 363.662C83.3797 365.125 72.1204 361.177 71.2431 362.493C70.3658 363.809 77.5307 373.167 76.2147 374.044C74.8987 374.922 68.3186 365.271 66.7102 365.71C65.2479 366.148 65.5404 377.992 63.9319 377.992Z" fill="#0B53A1"/>
<path d="M173.161 265.254C170.529 265.254 166.143 254.141 163.657 254.872C161.171 255.749 164.096 267.301 162.048 268.763C160.001 270.225 149.766 263.791 148.303 265.985C146.841 268.032 156.053 275.636 155.176 278.268C154.445 280.607 142.454 281.338 142.454 284.117C142.454 286.895 154.445 287.48 155.176 289.966C156.053 292.451 146.695 300.055 148.303 302.248C149.766 304.295 160.001 297.862 162.048 299.47C164.096 300.932 161.171 312.63 163.657 313.361C165.996 314.092 170.529 302.979 173.161 302.979C175.793 302.979 180.18 314.092 182.666 313.361C185.152 312.484 182.227 300.932 184.274 299.47C186.322 298.008 196.557 304.442 198.019 302.248C199.482 300.201 190.27 292.598 191.147 289.966C191.878 287.626 203.868 286.895 203.868 284.117C203.868 281.485 191.878 280.753 191.147 278.268C190.27 275.782 199.628 268.178 198.019 265.985C196.557 263.938 186.322 270.372 184.274 268.763C182.227 267.301 185.152 255.603 182.666 254.872C180.18 254.141 175.793 265.254 173.161 265.254ZM173.161 304.88C171.553 304.88 171.845 293.036 170.383 292.598C168.921 292.159 162.195 301.81 160.879 300.932C159.563 300.055 166.728 290.55 165.85 289.381C164.973 288.065 153.714 292.013 153.275 290.55C152.836 289.088 164.096 285.725 164.096 284.117C164.096 282.508 152.836 279.145 153.275 277.683C153.714 276.221 164.973 280.169 165.85 278.853C166.728 277.537 159.563 268.178 160.879 267.301C162.195 266.424 168.775 276.074 170.383 275.636C171.845 275.197 171.553 263.353 173.161 263.353C174.77 263.353 174.477 275.197 175.94 275.636C177.402 276.074 184.128 266.424 185.444 267.301C186.76 268.178 179.595 277.683 180.473 278.853C181.35 280.169 192.609 276.221 193.048 277.683C193.487 279.145 182.227 282.508 182.227 284.117C182.227 285.725 193.487 289.088 193.048 290.55C192.609 292.013 181.35 288.065 180.473 289.381C179.595 290.697 186.76 300.055 185.444 300.932C184.128 301.81 177.548 292.159 175.94 292.598C174.477 293.036 174.77 304.88 173.161 304.88Z" fill="#0B53A1"/>
<path d="M299.06 265.107C296.428 265.107 292.041 253.994 289.555 254.726C287.07 255.603 289.994 267.155 287.947 268.617C285.9 270.079 275.664 263.645 274.202 265.839C272.74 267.886 281.952 275.489 281.074 278.121C280.343 280.461 268.353 281.192 268.353 283.97C268.353 286.602 280.343 287.334 281.074 289.819C281.952 292.305 272.593 299.909 274.202 302.102C275.664 304.149 285.9 297.715 287.947 299.324C289.994 300.786 287.07 312.484 289.555 313.215C291.895 313.946 296.428 302.833 299.06 302.833C301.692 302.833 306.079 313.946 308.565 313.215C311.05 312.338 308.126 300.786 310.173 299.324C312.22 297.862 322.456 304.295 323.918 302.102C325.38 300.055 316.168 292.451 317.046 289.819C317.777 287.48 329.767 286.749 329.767 283.97C329.767 281.338 317.777 280.607 317.046 278.121C316.168 275.636 325.526 268.032 323.918 265.839C322.456 263.791 312.22 270.225 310.173 268.617C308.126 267.155 311.05 255.457 308.565 254.726C306.225 253.994 301.692 265.107 299.06 265.107ZM299.06 304.734C297.452 304.734 297.744 292.89 296.282 292.451C294.819 292.013 288.093 301.663 286.777 300.786C285.461 299.909 292.626 290.404 291.749 289.234C290.871 287.918 279.612 291.866 279.174 290.404C278.735 288.942 289.994 285.579 289.994 283.97C289.994 282.362 278.735 278.999 279.174 277.537C279.612 276.074 290.871 280.022 291.749 278.706C292.626 277.39 285.461 268.032 286.777 267.155C288.093 266.277 294.673 275.928 296.282 275.489C297.744 275.051 297.452 263.207 299.06 263.207C300.668 263.207 300.376 275.051 301.838 275.489C303.3 275.928 310.027 266.277 311.343 267.155C312.659 268.032 305.494 277.537 306.371 278.706C307.249 280.022 318.508 276.074 318.946 277.537C319.385 278.999 308.126 282.362 308.126 283.97C308.126 285.579 319.385 288.942 318.946 290.404C318.508 291.866 307.249 287.918 306.371 289.234C305.494 290.55 312.659 299.909 311.343 300.786C310.027 301.663 303.447 292.013 301.838 292.451C300.376 292.89 300.668 304.734 299.06 304.734Z" fill="#0B53A1"/>
<path d="M398.054 337.488C395.422 337.488 391.035 326.375 388.549 327.106C386.064 327.984 388.988 339.535 386.941 340.998C384.894 342.46 374.658 336.026 373.196 338.219C371.734 340.266 380.946 347.87 380.068 350.502C379.337 352.842 367.347 353.573 367.347 356.351C367.347 359.129 379.337 359.714 380.068 362.2C380.946 364.686 371.587 372.289 373.196 374.483C374.658 376.53 384.894 370.096 386.941 371.705C388.988 373.167 386.064 384.865 388.549 385.596C390.889 386.327 395.422 375.214 398.054 375.214C400.686 375.214 405.073 386.327 407.558 385.596C410.044 384.719 407.12 373.167 409.167 371.705C411.214 370.242 421.45 376.676 422.912 374.483C424.374 372.436 415.162 364.832 416.039 362.2C416.771 359.86 428.761 359.129 428.761 356.351C428.761 353.719 416.771 352.988 416.039 350.502C415.162 348.016 424.52 340.413 422.912 338.219C421.45 336.172 411.214 342.606 409.167 340.998C407.12 339.535 410.044 327.837 407.558 327.106C405.073 326.375 400.686 337.488 398.054 337.488ZM398.054 377.115C396.445 377.115 396.738 365.271 395.276 364.832C393.813 364.393 387.087 374.044 385.771 373.167C384.455 372.289 391.62 362.785 390.743 361.615C389.865 360.299 378.606 364.247 378.167 362.785C377.729 361.323 388.988 357.96 388.988 356.351C388.988 354.743 377.729 351.379 378.167 349.917C378.606 348.455 389.865 352.403 390.743 351.087C391.62 349.771 384.455 340.413 385.771 339.535C387.087 338.658 393.667 348.309 395.276 347.87C396.738 347.431 396.445 335.587 398.054 335.587C399.662 335.587 399.37 347.431 400.832 347.87C402.294 348.309 409.021 338.658 410.337 339.535C411.653 340.413 404.488 349.917 405.365 351.087C406.242 352.403 417.502 348.455 417.94 349.917C418.379 351.379 407.12 354.743 407.12 356.351C407.12 357.96 418.379 361.323 417.94 362.785C417.502 364.247 406.242 360.299 405.365 361.615C404.488 362.931 411.653 372.289 410.337 373.167C409.021 374.044 402.441 364.393 400.832 364.832C399.37 365.271 399.662 377.115 398.054 377.115Z" fill="#0B53A1"/>
<path d="M437.68 455.637C435.048 455.637 430.662 444.524 428.176 445.256C425.69 446.133 428.614 457.685 426.567 459.147C424.52 460.609 414.285 454.175 412.822 456.369C411.36 458.416 420.572 466.019 419.695 468.651C418.964 470.991 406.973 471.722 406.973 474.5C406.973 477.279 418.964 477.863 419.695 480.349C420.572 482.835 411.214 490.439 412.822 492.632C414.285 494.679 424.52 488.245 426.567 489.854C428.614 491.316 425.69 503.014 428.176 503.745C430.515 504.476 435.048 493.363 437.68 493.363C440.312 493.363 444.699 504.476 447.185 503.745C449.671 502.868 446.746 491.316 448.793 489.854C450.84 488.392 461.076 494.825 462.538 492.632C464.001 490.585 454.788 482.981 455.666 480.349C456.397 478.01 468.387 477.279 468.387 474.5C468.387 471.868 456.397 471.137 455.666 468.651C454.788 466.166 464.147 458.562 462.538 456.369C461.076 454.321 450.84 460.755 448.793 459.147C446.746 457.685 449.671 445.987 447.185 445.256C444.699 444.524 440.312 455.637 437.68 455.637ZM437.68 495.264C436.072 495.264 436.364 483.42 434.902 482.981C433.44 482.543 426.714 492.193 425.397 491.316C424.081 490.439 431.246 480.934 430.369 479.764C429.492 478.448 418.233 482.396 417.794 480.934C417.355 479.472 428.614 476.109 428.614 474.5C428.614 472.892 417.355 469.529 417.794 468.066C418.233 466.604 429.492 470.552 430.369 469.236C431.246 467.92 424.081 458.562 425.397 457.685C426.714 456.807 433.294 466.458 434.902 466.019C436.364 465.581 436.072 453.737 437.68 453.737C439.289 453.737 438.996 465.581 440.459 466.019C441.921 466.458 448.647 456.807 449.963 457.685C451.279 458.562 444.114 468.066 444.992 469.236C445.869 470.552 457.128 466.604 457.567 468.066C458.005 469.529 446.746 472.892 446.746 474.5C446.746 476.109 458.005 479.472 457.567 480.934C457.128 482.396 445.869 478.448 444.992 479.764C444.114 481.08 451.279 490.439 449.963 491.316C448.647 492.193 442.067 482.543 440.459 482.981C438.996 483.42 439.289 495.264 437.68 495.264Z" fill="#0B53A1"/>
<path d="M232.528 449.934C228.726 449.934 222.585 434.142 219.076 435.312C215.566 436.482 219.807 453.005 216.882 455.052C213.958 457.246 199.628 448.033 197.435 451.104C195.241 454.029 208.401 464.849 207.232 468.359C206.062 471.722 189.1 472.745 189.1 476.547C189.1 480.349 206.062 481.373 207.232 484.736C208.401 488.245 195.241 499.066 197.435 501.99C199.628 504.915 213.958 495.849 216.882 498.042C219.807 500.235 215.566 516.612 219.076 517.782C222.439 518.952 228.726 503.16 232.528 503.16C236.33 503.16 242.472 518.952 245.981 517.782C249.49 516.612 245.25 500.089 248.174 498.042C251.099 495.849 265.429 505.061 267.622 501.99C269.815 499.066 256.655 488.245 257.825 484.736C258.995 481.373 275.957 480.349 275.957 476.547C275.957 472.745 258.995 471.722 257.825 468.359C256.655 464.849 269.815 454.029 267.622 451.104C265.429 448.18 251.099 457.246 248.174 455.052C245.25 452.859 249.49 436.482 245.981 435.312C242.472 434.142 236.184 449.934 232.528 449.934ZM232.528 506.084C230.189 506.084 230.627 489.269 228.58 488.684C226.387 487.953 216.882 501.698 215.128 500.528C213.373 499.212 223.462 485.905 222.146 484.151C220.83 482.396 205.038 487.953 204.307 485.759C203.576 483.712 219.661 478.887 219.661 476.693C219.661 474.354 203.576 469.675 204.307 467.628C205.038 465.434 220.83 471.137 222.146 469.236C223.462 467.481 213.227 454.175 215.128 452.859C216.882 451.543 226.387 465.288 228.58 464.703C230.627 463.972 230.189 447.302 232.528 447.302C234.868 447.302 234.429 464.118 236.476 464.703C238.67 465.434 248.174 451.689 249.929 452.859C251.684 454.175 241.594 467.481 242.91 469.236C244.226 470.991 260.018 465.434 260.75 467.628C261.481 469.675 245.396 474.5 245.396 476.693C245.396 479.033 261.481 483.712 260.75 485.759C260.018 487.953 244.226 482.25 242.91 484.151C241.594 485.905 251.83 499.212 249.929 500.528C248.174 501.844 238.67 488.099 236.476 488.684C234.283 489.269 234.722 506.084 232.528 506.084Z" fill="#19A0D8"/>
<path d="M278.004 341.875C262.504 336.903 249.49 317.456 234.137 317.602C218.198 317.748 205.477 337.488 190.708 342.46C175.793 347.432 153.714 339.243 140.992 348.601C128.417 357.813 129.587 381.209 120.375 394.223C111.455 406.652 88.7902 412.94 83.8186 428.44C78.847 443.939 93.7618 462.071 93.9081 477.425C94.0543 493.363 79.5781 511.787 84.4035 526.556C89.3751 541.471 112.186 547.612 121.398 560.333C130.61 572.909 129.587 596.451 142.601 605.663C155.03 614.582 176.963 606.248 192.463 611.073C207.963 616.045 220.977 635.492 236.33 635.346C252.268 635.2 264.99 615.46 279.759 610.488C294.673 605.517 316.753 613.705 329.475 604.347C342.05 595.135 340.88 571.739 350.092 558.725C359.012 546.296 381.677 540.008 386.648 524.509C391.62 509.009 376.705 490.877 376.559 475.524C376.413 459.585 390.889 441.161 386.063 426.392C381.092 411.478 358.427 405.336 349.069 392.615C339.857 380.039 340.88 356.497 327.866 347.285C315.437 338.512 293.504 346.847 278.004 341.875ZM205.331 570.862C196.118 567.937 195.387 548.051 187.93 542.64C180.18 537.084 161.171 542.787 155.615 535.183C150.058 527.579 161.025 511.056 158.1 502.136C155.176 493.217 136.459 486.637 136.313 477.132C136.313 467.92 154.883 461.047 157.808 451.835C160.732 442.623 149.473 426.246 154.883 418.789C160.44 411.039 179.595 416.449 187.053 410.893C194.656 405.336 195.095 385.45 204.161 382.525C213.08 379.601 225.217 395.101 234.868 395.101C244.08 395.101 256.07 379.162 265.429 382.233C274.641 385.157 275.372 405.044 282.829 410.454C290.579 416.011 309.588 410.308 315.145 417.911C320.701 425.515 309.734 442.038 312.659 450.958C315.583 459.878 334.3 466.458 334.446 475.962C334.446 485.174 315.876 492.047 312.951 501.259C310.027 510.471 321.286 526.848 315.876 534.306C310.319 542.055 291.164 536.645 283.707 542.202C276.103 547.758 275.664 567.645 266.598 570.569C257.679 573.494 245.542 557.994 235.891 557.994C226.533 557.994 214.543 573.786 205.331 570.862Z" fill="#0B53A1"/>
<path d="M213.081 400.511C202.26 403.289 172.576 362.931 163.657 368.634C154.445 374.629 179.01 418.497 172.138 426.685C165.265 435.02 117.45 419.812 113.502 429.902C109.554 439.845 155.176 461.048 154.445 471.868C153.86 482.396 106.045 498.188 108.969 509.009C111.747 519.83 161.171 510.033 166.874 518.952C172.869 528.164 143.478 568.961 151.813 575.687C160.147 582.56 194.364 545.711 204.453 549.659C214.397 553.607 214.689 603.762 225.656 604.493C236.184 605.078 242.179 555.362 253 552.438C263.82 549.659 293.504 590.017 302.423 584.314C311.635 578.319 287.07 534.452 293.942 526.263C300.815 517.929 348.63 533.136 352.578 523.047C356.526 513.103 310.904 491.901 311.635 481.08C312.22 470.552 360.035 454.76 357.111 443.939C354.333 433.119 304.909 442.916 299.206 433.996C293.211 424.784 322.602 383.988 314.267 377.261C305.933 370.389 271.716 407.237 261.627 403.289C251.684 399.341 251.391 349.186 240.424 348.455C229.896 347.87 223.901 397.733 213.081 400.511ZM255.193 560.626C248.759 562.381 237.354 514.127 230.92 513.834C224.34 513.396 207.524 559.895 201.529 557.555C195.387 555.216 214.543 509.594 209.425 505.353C204.453 501.259 163.511 529.042 159.855 523.485C156.346 518.075 198.604 492.486 196.85 485.906C195.095 479.472 145.818 477.863 146.11 471.43C146.549 464.849 195.826 468.944 198.166 462.802C200.505 456.661 161.464 426.393 165.558 421.275C169.652 416.303 207.085 448.472 212.642 444.963C218.052 441.454 204.307 393.931 210.741 392.322C217.175 390.568 228.58 438.822 235.014 439.114C241.594 439.553 258.41 393.054 264.405 395.393C270.546 397.733 251.391 443.355 256.509 447.595C261.481 451.689 302.423 423.907 306.079 429.463C309.588 434.874 267.33 460.463 269.084 467.043C270.839 473.477 320.116 475.085 319.824 481.519C319.385 488.099 270.108 484.005 267.768 490.146C265.429 496.288 304.47 526.556 300.376 531.674C296.282 536.645 258.849 504.476 253.292 507.986C247.882 511.349 261.627 558.871 255.193 560.626Z" fill="#88D5EE"/>
</g>
</svg>
