<svg width="9" height="9" viewBox="0 0 9 9" fill="none" xmlns="http://www.w3.org/2000/svg">
<g clip-path="url(#clip0_51_367)">
<path d="M4.5 0.84375C3.77686 0.84375 3.06997 1.05819 2.4687 1.45994C1.86743 1.86169 1.3988 2.43272 1.12207 3.10081C0.845334 3.76891 0.772928 4.50406 0.914005 5.2133C1.05508 5.92254 1.40331 6.57402 1.91464 7.08536C2.42598 7.59669 3.07746 7.94492 3.7867 8.086C4.49595 8.22707 5.2311 8.15467 5.89919 7.87793C6.56728 7.6012 7.13831 7.13257 7.54006 6.5313C7.94182 5.93004 8.15625 5.22314 8.15625 4.5C8.15523 3.53062 7.76969 2.60123 7.08423 1.91577C6.39877 1.23031 5.46939 0.844774 4.5 0.84375ZM4.5 7.59375C3.88812 7.59375 3.28997 7.4123 2.78121 7.07236C2.27244 6.73241 1.87591 6.24924 1.64175 5.68393C1.40759 5.11862 1.34632 4.49657 1.4657 3.89644C1.58507 3.29631 1.87972 2.74506 2.31239 2.31239C2.74506 1.87972 3.29631 1.58507 3.89644 1.4657C4.49657 1.34632 5.11862 1.40759 5.68393 1.64175C6.24924 1.87591 6.73242 2.27244 7.07236 2.7812C7.41231 3.28997 7.59375 3.88811 7.59375 4.5C7.59282 5.32023 7.26657 6.1066 6.68659 6.68658C6.1066 7.26657 5.32023 7.59282 4.5 7.59375ZM3.375 4.5C3.375 4.73612 3.44929 4.96625 3.58735 5.1578C3.72541 5.34935 3.92024 5.4926 4.14425 5.56727C4.36825 5.64194 4.61006 5.64423 4.83544 5.57383C5.06082 5.50343 5.25833 5.36389 5.4 5.175C5.4448 5.11533 5.51148 5.07589 5.58535 5.06538C5.65923 5.05486 5.73425 5.07412 5.79393 5.11893C5.8536 5.16373 5.89303 5.2304 5.90355 5.30428C5.91406 5.37815 5.8948 5.45318 5.85 5.51285C5.63744 5.79611 5.34116 6.00531 5.00311 6.11084C4.66506 6.21637 4.30237 6.21287 3.96642 6.10083C3.63047 5.9888 3.33828 5.77392 3.13123 5.48661C2.92418 5.1993 2.81277 4.85414 2.81277 4.5C2.81277 4.14586 2.92418 3.8007 3.13123 3.51339C3.33828 3.22608 3.63047 3.0112 3.96642 2.89917C4.30237 2.78713 4.66506 2.78363 5.00311 2.88916C5.34116 2.99469 5.63744 3.20389 5.85 3.48715C5.87219 3.5167 5.88833 3.55032 5.89752 3.58611C5.90671 3.6219 5.90876 3.65915 5.90355 3.69572C5.89834 3.7323 5.88598 3.7675 5.86717 3.7993C5.84836 3.8311 5.82347 3.85889 5.79393 3.88107C5.76438 3.90326 5.73075 3.9194 5.69496 3.92859C5.65918 3.93778 5.62193 3.93983 5.58535 3.93462C5.54877 3.92941 5.51358 3.91705 5.48177 3.89825C5.44997 3.87944 5.42219 3.85455 5.4 3.825C5.25833 3.63611 5.06082 3.49657 4.83544 3.42617C4.61006 3.35577 4.36825 3.35806 4.14425 3.43273C3.92024 3.5074 3.72541 3.65065 3.58735 3.8422C3.44929 4.03375 3.375 4.26388 3.375 4.5Z" fill="#F8F8F8"/>
</g>
<defs>
<clipPath id="clip0_51_367">
<rect width="9" height="9" fill="white"/>
</clipPath>
</defs>
</svg>
