<svg width="113" height="230" viewBox="0 0 113 230" fill="none" xmlns="http://www.w3.org/2000/svg">
<g opacity="0.69" filter="url(#filter0_f_51_364)">
<path d="M121.054 186.527C121.54 186.02 121.378 185.514 121.378 185.092C121.378 152.266 121.378 119.524 121.378 86.6974C121.378 85.516 121.054 84.7565 120.001 84.1658C104.45 74.8833 88.8993 65.5164 73.3485 56.1495C71.8096 55.2213 71.8096 55.2212 71.8096 57.0778C71.8096 89.7353 71.6477 122.393 71.8906 155.05C71.9716 165.599 67.436 172.772 59.0126 177.413C47.4305 183.742 35.4434 183.826 23.6993 177.582C17.2198 174.122 13.3321 168.468 13.0081 160.62C12.8461 155.304 15.114 151.084 18.8397 147.709C24.5093 142.646 31.2317 140.874 38.5212 141.549C43.4618 141.971 48.1594 143.321 52.4521 146.021C54.639 147.371 56.4208 149.228 57.7977 151.422C58.2837 151.253 58.1217 150.831 58.1217 150.494C58.1217 142.561 58.1217 134.629 58.1217 126.612C58.1217 89.229 58.1217 51.8458 58.1217 14.4626C58.1217 14.0407 57.9597 13.3656 58.2837 13.1124C58.6886 12.7749 59.0936 13.2812 59.4986 13.5343C83.0678 27.7113 106.718 41.8882 130.287 56.0651C131.583 56.8246 132.879 57.6685 134.256 58.4279C134.823 58.7655 135.066 59.103 134.985 59.7781C134.904 60.2844 134.985 60.7908 134.985 61.2971C134.985 96.2331 134.985 131.169 134.985 166.105C134.985 174.375 134.742 182.56 134.985 190.83C135.228 199.606 131.421 205.935 124.861 210.661C116.437 216.737 107.042 218.003 97.1607 216.315C91.0862 215.302 85.5786 212.855 81.2049 208.214C75.8593 202.56 74.5634 193.615 78.2082 187.37C80.557 183.32 83.9587 180.366 88.1704 178.679C98.2136 174.628 107.69 175.978 116.761 181.885C118.543 183.067 119.839 184.67 121.054 186.527Z" fill="white"/>
</g>
<defs>
<filter id="filter0_f_51_364" x="0.2" y="0.2" width="147.6" height="229.6" filterUnits="userSpaceOnUse" color-interpolation-filters="sRGB">
<feFlood flood-opacity="0" result="BackgroundImageFix"/>
<feBlend mode="normal" in="SourceGraphic" in2="BackgroundImageFix" result="shape"/>
<feGaussianBlur stdDeviation="6.4" result="effect1_foregroundBlur_51_364"/>
</filter>
</defs>
</svg>
