<svg width="54" height="54" viewBox="0 0 54 54" fill="none" xmlns="http://www.w3.org/2000/svg">
<path d="M27 53.6666C12.272 53.6666 0.333374 41.7279 0.333374 26.9999C0.333374 12.2719 12.272 0.333252 27 0.333252C41.728 0.333252 53.6667 12.2719 53.6667 26.9999C53.6667 41.7279 41.728 53.6666 27 53.6666ZM13.6667 29.6666C13.6667 33.2028 15.0715 36.5942 17.5719 39.0947C20.0724 41.5952 23.4638 42.9999 27 42.9999C30.5363 42.9999 33.9276 41.5952 36.4281 39.0947C38.9286 36.5942 40.3334 33.2028 40.3334 29.6666H35C35 31.7883 34.1572 33.8231 32.6569 35.3234C31.1566 36.8237 29.1218 37.6666 27 37.6666C24.8783 37.6666 22.8435 36.8237 21.3432 35.3234C19.8429 33.8231 19 31.7883 19 29.6666H13.6667ZM16.3334 24.3333C17.3942 24.3333 18.4117 23.9118 19.1618 23.1617C19.9119 22.4115 20.3334 21.3941 20.3334 20.3333C20.3334 19.2724 19.9119 18.255 19.1618 17.5048C18.4117 16.7547 17.3942 16.3333 16.3334 16.3333C15.2725 16.3333 14.2551 16.7547 13.5049 17.5048C12.7548 18.255 12.3334 19.2724 12.3334 20.3333C12.3334 21.3941 12.7548 22.4115 13.5049 23.1617C14.2551 23.9118 15.2725 24.3333 16.3334 24.3333ZM37.6667 24.3333C38.7276 24.3333 39.745 23.9118 40.4951 23.1617C41.2453 22.4115 41.6667 21.3941 41.6667 20.3333C41.6667 19.2724 41.2453 18.255 40.4951 17.5048C39.745 16.7547 38.7276 16.3333 37.6667 16.3333C36.6058 16.3333 35.5884 16.7547 34.8383 17.5048C34.0881 18.255 33.6667 19.2724 33.6667 20.3333C33.6667 21.3941 34.0881 22.4115 34.8383 23.1617C35.5884 23.9118 36.6058 24.3333 37.6667 24.3333Z" fill="#F8F8F8"/>
</svg>
